<svg id="Layer_4" data-name="Layer 4" xmlns="http://www.w3.org/2000/svg" viewBox="0 0 1523.57 857">
	<defs>
		<style>.cls-1{fill:#f2f2f2;}</style>
	</defs>
	<title>pt-preloader</title>
	<style>
            .frame{
             width: 152px !important;
             height:"72";
            }
    		#frame1 {
    		  visibility: hidden;
    		}

    		#frame2 {
    		  visibility: hidden;
    		}
    		#frame3 {
    		  visibility: hidden;

    		  }
    		#frame4 {
    		  visibility: hidden;
    		  animation: 1.2s show infinite;
    		  animation-delay: 0.15s;
    	    }
    	    #frame5 {
    		  visibility: hidden;
    		  animation: 1.2s show infinite;
    		  animation-delay: 0.2s;
    	    }
    	    #frame6 {
    		  visibility: hidden;
    		  animation: 1.2s show infinite;
    		  animation-delay: 0.25s;
    	    }
    	    #frame7 {
    		  visibility: hidden;
    		  animation: 1.2s show infinite;
    		  animation-delay: 0.3s;
    	    }
    	    #frame8 {
    		  visibility: hidden;
    		  animation: 1.2s show infinite;
    		  animation-delay: 0.35s;
    	    }
    	    #frame9 {
    		  visibility: hidden;
    		  animation: 1.2s show infinite;
    		  animation-delay: 0.4s;
    	    }
    	    #frame10 {
    		  visibility: hidden;
    		  animation: 1.2s show infinite;
    		  animation-delay: 0.45s;
    	    }
    	    #frame11 {
    		  visibility: hidden;
    		  animation: 1.2s show infinite;
    		  animation-delay: 0.5s;
    	    }
    	    #frame12 {
    		  visibility: hidden;
    		  animation: 1.2s show infinite;
    		  animation-delay: 0.55s;
    	    }
    	    #frame13 {
    		  visibility: hidden;
    		  animation: 1.2s show infinite;
    		  animation-delay: 0.6s;
    	    }
    	    #frame14 {
    		  visibility: hidden;
    		  animation: 1.2s show infinite;
    		  animation-delay: 0.65s;
    	    }
    	    #frame15 {
    		  visibility: hidden;
    		  animation: 1.2s show infinite;
    		  animation-delay: 0.7s;
    	    }
    	    #frame16 {
    		  visibility: hidden;
    		  animation: 1.2s show infinite;
    		  animation-delay: 0.75s;
    	    }
    	    #frame17 {
    		  visibility: hidden;
    		  animation: 1.2s show infinite;
    		  animation-delay: 0.8s;
    	    }
    	    #frame18 {
    		  visibility: hidden;
    		  animation: 1.2s show infinite;
    		  animation-delay: 0.85s;
    	    }
    	    #frame19 {
    		  visibility: hidden;
    		  animation: 1.2s show infinite;
    		  animation-delay: 0.9s;
    	    }
    	    #frame20 {
    		  visibility: hidden;
    		  animation: 1.2s show infinite;
    		  animation-delay: 0.95s;
    	    }
    	    #frame21 {
    		  visibility: hidden;
    		  animation: 1.2s show infinite;
    		  animation-delay: 1s;
    	    }
    	    #frame22 {
    		  visibility: hidden;
    		  animation: 1.2s show infinite;
    		  animation-delay: 1.05s;
    	    }
    	    #frame23 {
    		  visibility: hidden;
    		  animation: 1.2s show infinite;
    		  animation-delay: 1.1s;
    	    }
    	    #frame24 {
    		  visibility: hidden;
    		  animation: 1.2s show infinite;
    		  animation-delay: 1.15s;
    	    }
    		@keyframes show {
    		  0%   { visibility: visible;}
    		  12.5%  { visibility: visible; }
    		  12.6%  { visibility: hidden; }
    		  100% { visibility: hidden; }
    		}
    		#frames{
    		    overflow: visible;
    		}
    	</style>
    	<rect class="cls-1" width="1523.57" height="857"/>
    <svg id="frames" width='450' height='450' viewBox='-1150 -470 1000 1000'>
    	<g class="frame" id="frame1">
    		<path d="M429,250.75a97.58,97.58,0,0,0,71,30.48" fill="none" stroke="#cccccc" stroke-linecap="round" stroke-linejoin="round" stroke-width="38.7"/><rect width="1000" height="1000" fill="none"/>
    	</g>
    	<g class="frame" id="frame2">
    		<path d="M402.11,183.34A97.89,97.89,0,0,0,500,281.23" fill="none" stroke="#cccccc" stroke-linecap="round" stroke-linejoin="round" stroke-width="38.7"/><rect width="1000" height="1000" fill="none"/>
    	</g>
    	<g class="frame" id="frame3">
    		<path d="M430.79,114.11A97.89,97.89,0,0,0,500,281.23" fill="none" stroke="#cccccc" stroke-linecap="round" stroke-linejoin="round" stroke-width="38.7"/><rect width="1000" height="1000" fill="none"/>
    	</g>
    	<g class="frame" id="frame4">
    		<svg id="Layer_1" data-name="Layer 1" xmlns="http://www.w3.org/2000/svg" viewBox="0 0 1000 1000"><title>Chinesepod_Logo_Stroke_1</title><path d="M500,85.43a97.9,97.9,0,1,0,0,195.8" fill="none" stroke="#cccccc" stroke-linecap="round" stroke-linejoin="round" stroke-width="38.7"/><rect width="1000" height="1000" fill="none"/></svg>
    	</g>
    	<g class="frame" id="frame5">
    		<svg id="Layer_1" data-name="Layer 1" xmlns="http://www.w3.org/2000/svg" viewBox="0 0 1000 1000"><title>Chinesepod_Logo_Stroke_1</title><path d="M569.36,114.23a97.9,97.9,0,1,0-69.35,167" fill="none" stroke="#cccccc" stroke-linecap="round" stroke-linejoin="round" stroke-width="38.7"/><rect width="1000" height="1000" fill="none"/></svg>
    	</g>
    	<g class="frame" id="frame6">
    		<svg id="Layer_1" data-name="Layer 1" xmlns="http://www.w3.org/2000/svg" viewBox="0 0 1000 1000"><title>Chinesepod_Logo_Stroke_1</title><path d="M597.91,183.34A97.9,97.9,0,1,0,500,281.23" fill="none" stroke="#cccccc" stroke-linecap="round" stroke-linejoin="round" stroke-width="38.7"/><rect width="1000" height="1000" fill="none"/></svg>
    	</g>
    	<g class="frame" id="frame7">
    		<svg id="Layer_1" data-name="Layer 1" xmlns="http://www.w3.org/2000/svg" viewBox="0 0 1000 1000"><title>Chinesepod_Logo_Stroke_1</title><path d="M561.58,259.45A97.9,97.9,0,1,0,500,281.23" fill="none" stroke="#cccccc" stroke-linecap="round" stroke-linejoin="round" stroke-width="38.7"/><rect width="1000" height="1000" fill="none"/></svg>
    	</g>
    	<g class="frame" id="frame8">
    		<svg id="Layer_1" data-name="Layer 1" xmlns="http://www.w3.org/2000/svg" viewBox="0 0 1000 1000"><title>Chinesepod_Logo_Stroke_1</title><path d="M500,281.23a97.9,97.9,0,1,0-97.9-97.89A97.89,97.89,0,0,0,500,281.23Z" fill="none" stroke="#cccccc" stroke-linejoin="round" stroke-width="38.7"/><rect width="1000" height="1000" fill="none"/></svg>
    	</g>
    	<g class="frame" id="frame9">
    		<svg id="Layer_1" data-name="Layer 1" xmlns="http://www.w3.org/2000/svg" viewBox="0 0 1000 1000"><title>Chinesepod_Logo_Stroke_1</title><path d="M500,281.23a97.9,97.9,0,1,0-97.9-97.89A97.89,97.89,0,0,0,500,281.23Z" fill="none" stroke="#cccccc" stroke-linecap="round" stroke-linejoin="round" stroke-width="38.7"/><path d="M267.32,758.16c-42.67,72-96.12,121.46-113.3,142.74" fill="none" stroke="#cccccc" stroke-linecap="round" stroke-linejoin="round" stroke-width="38.7"/><rect width="1000" height="1000" fill="none"/></svg>
    	</g>
    	<g id="frame10">
    		<svg id="Layer_1" data-name="Layer 1" xmlns="http://www.w3.org/2000/svg" viewBox="0 0 1000 1000"><title>Chinesepod_Logo_Stroke_1</title><path d="M500,281.23a97.9,97.9,0,1,0-97.9-97.89A97.89,97.89,0,0,0,500,281.23Z" fill="none" stroke="#cccccc" stroke-linecap="round" stroke-linejoin="round" stroke-width="38.7"/><path d="M325.27,560.21c0,180-141.18,303.45-171.25,340.69" fill="none" stroke="#cccccc" stroke-linecap="round" stroke-linejoin="round" stroke-width="38.7"/><rect width="1000" height="1000" fill="none"/></svg>
    	</g>
    	<g id="frame11">
    		<svg id="Layer_1" data-name="Layer 1" xmlns="http://www.w3.org/2000/svg" viewBox="0 0 1000 1000"><title>Chinesepod_Logo_Stroke_1</title><path d="M500,281.23a97.9,97.9,0,1,0-97.9-97.89A97.9,97.9,0,0,0,500,281.23Z" fill="none" stroke="#cccccc" stroke-linecap="round" stroke-linejoin="round" stroke-width="38.7"/><path d="M270.05,380.75c30.58,53.12,55.23,115.71,55.23,179.46,0,180-141.19,303.45-171.26,340.69" fill="none" stroke="#cccccc" stroke-linecap="round" stroke-linejoin="round" stroke-width="38.7"/><rect width="1000" height="1000" fill="none"/></svg>
    	</g>
    	<g id="frame12">
    		<svg id="Layer_1" data-name="Layer 1" xmlns="http://www.w3.org/2000/svg" viewBox="0 0 1000 1000"><title>Chinesepod_Logo_Stroke_1</title><path d="M500,281.23a97.9,97.9,0,1,0-97.9-97.89A97.9,97.9,0,0,0,500,281.23Z" fill="none" stroke="#cccccc" stroke-linecap="round" stroke-linejoin="round" stroke-width="38.7"/><path d="M154.35,232.49c.09.1,170.93,159.9,170.93,327.72,0,180-141.19,303.45-171.26,340.69" fill="none" stroke="#cccccc" stroke-linecap="round" stroke-linejoin="round" stroke-width="38.7"/><rect width="1000" height="1000" fill="none"/></svg>
    	</g>
    	<g id="frame13">
    		<svg id="Layer_1" data-name="Layer 1" xmlns="http://www.w3.org/2000/svg" viewBox="0 0 1000 1000"><title>Chinesepod_Logo_Stroke_1</title><path d="M500,281.23a97.9,97.9,0,1,0-97.9-97.89A97.89,97.89,0,0,0,500,281.23Z" fill="none" stroke="#cccccc" stroke-linecap="round" stroke-linejoin="round" stroke-width="38.7"/><path d="M342.53,310.75C262,280.65,191.61,241,165.43,220.34a8.23,8.23,0,0,0-11.09,12.15c.1.1,170.93,159.9,170.93,327.72,0,180-141.18,303.45-171.25,340.69" fill="none" stroke="#cccccc" stroke-linecap="round" stroke-linejoin="round" stroke-width="38.7"/><rect width="1000" height="1000" fill="none"/></svg>
    	</g>
    	<g id="frame14">
    		<svg id="Layer_1" data-name="Layer 1" xmlns="http://www.w3.org/2000/svg" viewBox="0 0 1000 1000"><title>Chinesepod_Logo_Stroke_1</title><path d="M500,281.23a97.9,97.9,0,1,0-97.9-97.89A97.89,97.89,0,0,0,500,281.23Z" fill="none" stroke="#cccccc" stroke-linecap="round" stroke-linejoin="round" stroke-width="38.7"/><path d="M498.61,349C368.33,338.34,208.13,254,165.43,220.34a8.23,8.23,0,0,0-11.09,12.15c.1.1,170.93,159.9,170.93,327.72,0,180-141.18,303.45-171.25,340.69" fill="none" stroke="#cccccc" stroke-linecap="round" stroke-linejoin="round" stroke-width="38.7"/><rect width="1000" height="1000" fill="none"/></svg>
    	</g>
    	<g id="frame15">
    		<svg id="Layer_1" data-name="Layer 1" xmlns="http://www.w3.org/2000/svg" viewBox="0 0 1000 1000"><title>Chinesepod_Logo_Stroke_1</title><path d="M500,281.23a97.9,97.9,0,1,0-97.9-97.89A97.89,97.89,0,0,0,500,281.23Z" fill="none" stroke="#cccccc" stroke-linecap="round" stroke-linejoin="round" stroke-width="38.7"/><path d="M665.48,331.31C619.64,346,564.15,354.4,498.61,349,368.33,338.34,208.13,254,165.43,220.34a8.23,8.23,0,0,0-11.09,12.15c.1.1,170.93,159.9,170.93,327.72,0,180-141.18,303.45-171.25,340.69" fill="none" stroke="#cccccc" stroke-linecap="round" stroke-linejoin="round" stroke-width="38.7"/><rect width="1000" height="1000" fill="none"/></svg>
    	</g>
    	<g id="frame16">
    		<svg id="Layer_1" data-name="Layer 1" xmlns="http://www.w3.org/2000/svg" viewBox="0 0 1000 1000"><title>Chinesepod_Logo_Stroke_1</title><path d="M500,281.23a97.9,97.9,0,1,0-97.9-97.89A97.89,97.89,0,0,0,500,281.23Z" fill="none" stroke="#cccccc" stroke-linecap="round" stroke-linejoin="round" stroke-width="38.7"/><path d="M834,220.82c-7.85,8-114.61,146.32-335.4,128.21C368.33,338.34,208.13,254,165.43,220.34a8.23,8.23,0,0,0-11.09,12.15c.1.1,170.93,159.9,170.93,327.72,0,180-141.18,303.45-171.25,340.69" fill="none" stroke="#cccccc" stroke-linecap="round" stroke-linejoin="round" stroke-width="38.7"/><rect width="1000" height="1000" fill="none"/></svg>
    	</g>
    	<g id="frame17">
    		<svg id="Layer_1" data-name="Layer 1" xmlns="http://www.w3.org/2000/svg" viewBox="0 0 999.66 999.66"><title>Chinesepod_Logo_Stroke_1</title><path d="M499.83,280.85A97.87,97.87,0,1,0,402,183,97.86,97.86,0,0,0,499.83,280.85Z" fill="none" stroke="#cccccc" stroke-linecap="round" stroke-linejoin="round" stroke-width="38.69"/><path d="M714.2,454.15c45.91-66.25,89.27-140.09,132.6-224a8.23,8.23,0,0,0-13.09-9.69c-7.85,8-114.57,146.27-335.28,128.16C368.19,337.93,208,253.57,165.36,220a8.23,8.23,0,0,0-11.08,12.15c.09.1,170.87,159.85,170.87,327.6C325.15,739.63,184,863.07,154,900.3" fill="none" stroke="#cccccc" stroke-linecap="round" stroke-linejoin="round" stroke-width="38.69"/><rect width="999.66" height="999.66" fill="none"/></svg>
    	</g>
    	<g id="frame18">
    		<svg id="Layer_1" data-name="Layer 1" xmlns="http://www.w3.org/2000/svg" viewBox="0 0 999.66 999.66"><title>Chinesepod_Logo_Stroke_1</title><rect width="999.66" height="999.66" fill="none"/><path d="M499.83,280.85A97.87,97.87,0,1,0,402,183,97.86,97.86,0,0,0,499.83,280.85Z" fill="none" stroke="#cccccc" stroke-linecap="round" stroke-linejoin="round" stroke-width="38.69"/><path d="M566.28,632.63C673.36,525.48,760.14,398,846.8,230.14a8.23,8.23,0,0,0-13.09-9.69c-7.85,8-114.57,146.27-335.28,128.16C368.19,337.93,208,253.57,165.36,220a8.23,8.23,0,0,0-11.08,12.15c.09.1,170.87,159.85,170.87,327.6C325.15,739.63,184,863.07,154,900.3" fill="none" stroke="#cccccc" stroke-linecap="round" stroke-linejoin="round" stroke-width="38.69"/></svg>
    	</g>
    	<g id="frame19">
    		<svg id="Layer_1" data-name="Layer 1" xmlns="http://www.w3.org/2000/svg" viewBox="0 0 999.66 999.66"><title>Chinesepod_Logo_Stroke_1</title><path d="M499.84,281.14A97.87,97.87,0,1,0,402,183.27,97.87,97.87,0,0,0,499.84,281.14Z" fill="none" stroke="#cccccc" stroke-linecap="round" stroke-linejoin="round" stroke-width="38.69"/><path d="M348.51,807.31c221.21-143.68,359.9-308.82,498.3-576.88a8.22,8.22,0,0,0-13.08-9.69c-7.86,8-114.58,146.27-335.29,128.17-130.24-10.69-290.39-95-333.06-128.64a8.23,8.23,0,0,0-11.09,12.14c.09.1,170.87,159.85,170.87,327.61C325.16,739.92,184,863.36,154,900.59" fill="none" stroke="#cccccc" stroke-linecap="round" stroke-linejoin="round" stroke-width="38.69"/><rect width="999.66" height="999.66" fill="none"/></svg>
    	</g>
    	<g id="frame20">
    		<svg id="Layer_1" data-name="Layer 1" xmlns="http://www.w3.org/2000/svg" viewBox="0 0 999.66 999.66"><title>Chinesepod_Logo_Stroke_1</title><path d="M499.84,281.14A97.87,97.87,0,1,0,402,183.27,97.87,97.87,0,0,0,499.84,281.14Z" fill="none" stroke="#cccccc" stroke-linecap="round" stroke-linejoin="round" stroke-width="38.69"/><path d="M845.4,220.74a8.27,8.27,0,0,0-11.67,0c-7.86,8-114.58,146.27-335.29,128.17-130.24-10.69-290.39-95-333.06-128.64a8.23,8.23,0,0,0-11.09,12.14c.09.1,170.87,159.85,170.87,327.61C325.16,739.92,184,863.36,154,900.59a8.21,8.21,0,0,0,10,12.7C499.71,740.41,673.49,566.13,846.81,230.43A8.23,8.23,0,0,0,845.4,220.74Z" fill="none" stroke="#cccccc" stroke-linecap="round" stroke-linejoin="round" stroke-width="38.69"/><rect width="999.66" height="999.66" fill="none"/></svg>
    	</g>
    	<g id="frame21">
    		<svg id="Layer_1" data-name="Layer 1" xmlns="http://www.w3.org/2000/svg" viewBox="0 0 999.66 999.66"><title>Chinesepod_Logo_Stroke_1</title><path d="M499.84,281.14A97.87,97.87,0,1,0,402,183.27,97.87,97.87,0,0,0,499.84,281.14Z" fill="none" stroke="#cccccc" stroke-linecap="round" stroke-linejoin="round" stroke-width="38.69"/><path d="M845.4,220.74a8.27,8.27,0,0,0-11.67,0c-7.86,8-114.58,146.27-335.29,128.17-130.24-10.69-290.39-95-333.06-128.64a8.23,8.23,0,0,0-11.09,12.14c.09.1,170.87,159.85,170.87,327.61C325.16,739.92,184,863.36,154,900.59a8.21,8.21,0,0,0,10,12.7C499.71,740.41,673.49,566.13,846.81,230.43A8.23,8.23,0,0,0,845.4,220.74Z" fill="none" stroke="#cccccc" stroke-linecap="round" stroke-linejoin="round" stroke-width="38.69"/><path d="M662,774.12C610.09,752.36,556.17,741.21,507.5,738l-55.73-4" fill="none" stroke="#cccccc" stroke-linecap="round" stroke-linejoin="round" stroke-width="38.69"/><rect width="999.66" height="999.66" fill="none"/></svg>
    	</g>
    	<g id="frame22">
    		<svg id="Layer_1" data-name="Layer 1" xmlns="http://www.w3.org/2000/svg" viewBox="0 0 999.66 999.66"><title>Chinesepod_Logo_Stroke_1</title><path d="M499.84,281.14A97.87,97.87,0,1,0,402,183.27,97.87,97.87,0,0,0,499.84,281.14Z" fill="none" stroke="#cccccc" stroke-linecap="round" stroke-linejoin="round" stroke-width="38.69"/><path d="M845.4,220.74a8.27,8.27,0,0,0-11.67,0c-7.86,8-114.58,146.27-335.29,128.17-130.24-10.69-290.39-95-333.06-128.64a8.23,8.23,0,0,0-11.09,12.14c.09.1,170.87,159.85,170.87,327.61C325.16,739.92,184,863.36,154,900.59a8.21,8.21,0,0,0,10,12.7C499.71,740.41,673.49,566.13,846.81,230.43A8.23,8.23,0,0,0,845.4,220.74Z" fill="none" stroke="#cccccc" stroke-linecap="round" stroke-linejoin="round" stroke-width="38.69"/><path d="M832.66,910.55h0C752.87,792.47,616.93,745.28,507.5,738l-55.73-4" fill="none" stroke="#cccccc" stroke-linecap="round" stroke-linejoin="round" stroke-width="38.69"/><rect width="999.66" height="999.66" fill="none"/></svg>
    	</g>
    	<g id="frame23">
    		<svg id="Layer_1" data-name="Layer 1" xmlns="http://www.w3.org/2000/svg" viewBox="0 0 999.66 999.66"><title>Chinesepod_Logo_Stroke_1</title><path d="M499.84,281.14A97.87,97.87,0,1,0,402,183.27,97.87,97.87,0,0,0,499.84,281.14Z" fill="none" stroke="#cccccc" stroke-linecap="round" stroke-linejoin="round" stroke-width="38.69"/><path d="M845.4,220.74a8.27,8.27,0,0,0-11.67,0c-7.86,8-114.58,146.27-335.29,128.17-130.24-10.69-290.39-95-333.06-128.64a8.23,8.23,0,0,0-11.09,12.14c.09.1,170.87,159.85,170.87,327.61C325.16,739.92,184,863.36,154,900.59a8.21,8.21,0,0,0,10,12.7C499.71,740.41,673.49,566.13,846.81,230.43A8.23,8.23,0,0,0,845.4,220.74Z" fill="none" stroke="#cccccc" stroke-linecap="round" stroke-linejoin="round" stroke-width="38.69"/><path d="M739.77,673.81C789.61,750.9,827.58,836.23,847.55,904h0a8.23,8.23,0,0,1-13.8,7.87,8.54,8.54,0,0,1-1.06-1.29h0C752.87,792.47,616.93,745.28,507.5,738l-55.73-4" fill="none" stroke="#cccccc" stroke-linecap="round" stroke-linejoin="round" stroke-width="38.69"/><rect width="999.66" height="999.66" fill="none"/></svg>
    	</g>
    	<g id="frame24">
    		<svg id="Layer_1" data-name="Layer 1" xmlns="http://www.w3.org/2000/svg" viewBox="0 0 999.66 999.66"><title>Chinesepod_Logo_Stroke_1</title><path d="M499.84,281.14A97.87,97.87,0,1,0,402,183.27,97.87,97.87,0,0,0,499.84,281.14Z" fill="none" stroke="#cccccc" stroke-linecap="round" stroke-linejoin="round" stroke-width="38.69"/><path d="M845.4,220.74a8.27,8.27,0,0,0-11.67,0c-7.86,8-114.58,146.27-335.29,128.17-130.24-10.69-290.39-95-333.06-128.64a8.23,8.23,0,0,0-11.09,12.14c.09.1,170.87,159.85,170.87,327.61C325.16,739.92,184,863.36,154,900.59a8.21,8.21,0,0,0,10,12.7C499.71,740.41,673.49,566.13,846.81,230.43A8.23,8.23,0,0,0,845.4,220.74Z" fill="none" stroke="#cccccc" stroke-linecap="round" stroke-linejoin="round" stroke-width="38.69"/><path d="M640.52,551.55l26.4,26.7C752.33,671.67,818.72,806.16,847.55,904h0a8.23,8.23,0,0,1-13.8,7.87,8.54,8.54,0,0,1-1.06-1.29h0C752.87,792.47,616.93,745.28,507.5,738l-55.73-4" fill="none" stroke="#cccccc" stroke-linecap="round" stroke-linejoin="round" stroke-width="38.69"/><rect width="999.66" height="999.66" fill="none"/></svg>
    	</g>
    </svg>
</svg>
