<?xml version="1.0" encoding="utf-8"?>
<!-- Generator: Adobe Illustrator 23.0.1, SVG Export Plug-In . SVG Version: 6.00 Build 0)  -->
<svg version="1.1" id="Layer_1" xmlns="http://www.w3.org/2000/svg" xmlns:xlink="http://www.w3.org/1999/xlink" x="0px" y="0px"
	 viewBox="0 0 800 900" style="enable-background:new 0 0 800 900;" xml:space="preserve">
<style type="text/css">
	.st0{fill:#FFFFFF;}
	.st1{fill:#E1001E;}
</style>
<g>
	<path id="XMLID_95_" class="st0" d="M393.01,240.27c55.39,0,100.3-44.9,100.3-100.29c0-55.4-44.91-100.3-100.3-100.3
		s-100.29,44.91-100.29,100.3C292.72,195.37,337.62,240.27,393.01,240.27z"/>
	<path class="st0" d="M747.14,153.6c-3.3-3.3-8.63-3.29-11.96,0c-8.05,8.22-117.42,149.9-343.6,131.34
		c-133.47-10.95-297.6-97.4-341.33-131.83c-3.32-2.77-8.25-2.63-11.36,0.49c-3.3,3.3-3.3,8.66,0,11.96
		C38.98,165.65,214,329.37,214,501.29c0,184.37-144.64,310.87-175.45,349.03c-2.93,3.32-2.85,8.38,0.33,11.55
		c2.69,2.69,6.73,3.15,9.92,1.46c344.07-177.17,522.17-355.77,699.79-699.8C750.29,160.33,749.83,156.29,747.14,153.6z"/>
</g>
<path class="st0" d="M749.35,853.77c-29.54-100.23-97.58-238.05-185.1-333.79c-50.18,59.55-103.95,113.43-163.38,163.68
	c112.15,7.5,251.46,55.86,333.23,176.87h0v0c0.31,0.47,0.67,0.91,1.08,1.33c3.3,3.3,8.66,3.3,11.96,0c2.19-2.19,2.89-5.27,2.18-8.07
	L749.35,853.77z"/>
</svg>
