<svg width="168" height="36" viewBox="0 0 168 36" fill="none" xmlns="http://www.w3.org/2000/svg">
<g opacity="0.5">
<path d="M44.2858 24.988C43.681 25.362 42.9171 25.549 41.9931 25.549C40.4475 25.549 39.2725 24.963 38.4661 23.79C37.6607 22.617 37.2575 21.029 37.2575 19.023C37.2575 17.018 37.6607 15.429 38.4661 14.256C39.2725 13.084 40.4475 12.497 41.9931 12.497C42.9003 12.497 43.6217 12.671 44.1593 13.02C44.6969 13.368 45.192 13.908 45.6456 14.639L47.9877 13.161C47.3829 12.074 46.5933 11.245 45.6199 10.676C44.6455 10.107 43.4369 9.82202 41.9931 9.82202C40.8507 9.82202 39.8229 10.048 38.9068 10.498C37.9917 10.949 37.211 11.581 36.5647 12.397C35.9184 13.213 35.4184 14.186 35.0656 15.315C34.7128 16.445 34.5369 17.682 34.5369 19.024C34.5369 20.384 34.7128 21.624 35.0656 22.746C35.4184 23.868 35.9174 24.836 36.5647 25.652C37.211 26.468 37.9917 27.101 38.9068 27.551C39.822 28.001 40.8507 28.227 41.9931 28.227C43.3361 28.227 44.525 27.934 45.5577 27.348C46.5904 26.762 47.4254 25.917 48.0638 24.812L45.8719 23.334C45.4193 24.063 44.8896 24.615 44.2858 24.988Z" fill="#7B0000"/>
<path d="M57.2582 14.283C56.5694 14.283 55.9271 14.42 55.3312 14.695C54.7352 14.97 54.2688 15.356 53.9328 15.854V9.36401L51.313 10.74V27.945H53.9328V20.138C53.9328 19.053 54.167 18.214 54.6344 17.62C55.1029 17.027 55.7709 16.73 56.6406 16.73C57.4934 16.73 58.1575 17.002 58.6338 17.544C59.1102 18.086 59.3483 19.036 59.3483 20.392V27.945H61.9681V20.272C61.9681 18.284 61.5689 16.789 60.7724 15.786C59.9739 14.784 58.8028 14.283 57.2582 14.283Z" fill="#7B0000"/>
<path d="M66.9303 9.44C66.4599 9.44 66.0617 9.606 65.7336 9.937C65.4065 10.268 65.2424 10.672 65.2424 11.148C65.2424 11.607 65.4055 12.002 65.7336 12.333C66.0607 12.664 66.4599 12.83 66.9303 12.83C67.3839 12.83 67.7743 12.664 68.1014 12.333C68.4295 12.002 68.5926 11.606 68.5926 11.148C68.5926 10.672 68.4285 10.269 68.1014 9.937C67.7743 9.606 67.3839 9.44 66.9303 9.44Z" fill="#7B0000"/>
<path d="M68.2407 14.563H65.6208V27.945H68.2407V14.563Z" fill="#7B0000"/>
<path d="M77.9381 14.283C77.2493 14.283 76.607 14.42 76.0111 14.695C75.4152 14.97 74.9487 15.356 74.6127 15.854V14.563H71.9929V27.945H74.6127V20.138C74.6127 19.053 74.8469 18.214 75.3144 17.62C75.7828 17.027 76.4518 16.73 77.3205 16.73C78.1733 16.73 78.8374 17.002 79.3128 17.544C79.7891 18.086 80.0283 19.036 80.0283 20.392V27.945H82.6481V20.272C82.6481 18.284 82.2488 16.789 81.4513 15.786C80.6548 14.784 79.4837 14.283 77.9381 14.283Z" fill="#7B0000"/>
<path d="M95.5328 16.271C95.0713 15.659 94.4912 15.175 93.7945 14.818C93.0978 14.461 92.2786 14.283 91.3387 14.283C90.4819 14.283 89.6973 14.436 88.9828 14.742C88.2693 15.048 87.6615 15.494 87.1565 16.08C86.6525 16.666 86.2582 17.393 85.9726 18.259C85.687 19.126 85.5447 20.129 85.5447 21.267C85.5447 22.372 85.6959 23.357 85.9983 24.224C86.3007 25.091 86.7118 25.821 87.2326 26.416C87.7534 27.011 88.3622 27.461 89.0589 27.767C89.7556 28.073 90.4898 28.226 91.2626 28.226C92.2697 28.226 93.1344 28.073 93.8568 27.767C94.5792 27.461 95.2334 27.028 95.8214 26.467L94.2847 24.785C93.8479 25.125 93.3992 25.389 92.9367 25.575C92.4742 25.762 91.9673 25.856 91.4129 25.856C91.0106 25.856 90.6232 25.784 90.2546 25.639C89.885 25.495 89.55 25.274 89.2476 24.976C88.9452 24.679 88.6932 24.3 88.4916 23.842C88.29 23.383 88.1556 22.831 88.0894 22.185H96.8304C96.8472 22.049 96.863 21.875 96.8808 21.663C96.8976 21.451 96.9055 21.226 96.9055 20.987C96.9055 20.086 96.7918 19.228 96.5655 18.412C96.3392 17.597 95.9943 16.883 95.5328 16.271ZM88.1398 20.018C88.2574 18.947 88.5726 18.119 89.0846 17.533C89.5965 16.947 90.2892 16.654 91.1628 16.654C91.7004 16.654 92.158 16.743 92.5355 16.922C92.914 17.1 93.2282 17.342 93.4802 17.648C93.7323 17.954 93.921 18.311 94.0465 18.718C94.172 19.126 94.2521 19.559 94.2857 20.018H88.1398Z" fill="#7B0000"/>
<path d="M107.825 21.509C107.448 21.178 106.981 20.881 106.427 20.617C105.873 20.354 105.226 20.078 104.487 19.789C103.983 19.585 103.576 19.402 103.266 19.241C102.955 19.08 102.707 18.922 102.523 18.77C102.337 18.617 102.211 18.469 102.145 18.324C102.078 18.18 102.044 18.023 102.044 17.852C102.044 17.495 102.187 17.202 102.472 16.973C102.758 16.744 103.219 16.629 103.858 16.629C104.495 16.629 105.092 16.723 105.645 16.909C106.2 17.096 106.745 17.385 107.283 17.776L108.415 15.762C107.827 15.32 107.144 14.963 106.363 14.691C105.582 14.419 104.772 14.283 103.932 14.283C103.277 14.283 102.672 14.359 102.117 14.512C101.563 14.665 101.085 14.894 100.682 15.2C100.279 15.506 99.968 15.888 99.7496 16.347C99.5312 16.806 99.4224 17.333 99.4224 17.927C99.4224 18.454 99.4896 18.917 99.624 19.316C99.7584 19.715 99.9808 20.077 100.292 20.399C100.602 20.722 101.007 21.024 101.502 21.304C101.997 21.584 102.598 21.861 103.303 22.132C104.26 22.506 105.011 22.846 105.557 23.152C106.103 23.458 106.376 23.866 106.376 24.375C106.376 25.361 105.569 25.854 103.957 25.854C103.336 25.854 102.693 25.744 102.03 25.523C101.367 25.302 100.724 24.971 100.103 24.529L98.9194 26.517C99.5904 27.01 100.376 27.418 101.274 27.741C102.173 28.063 103.076 28.225 103.982 28.225C104.637 28.225 105.263 28.157 105.859 28.021C106.455 27.885 106.979 27.664 107.432 27.358C107.886 27.052 108.251 26.649 108.528 26.147C108.806 25.646 108.943 25.021 108.943 24.274C108.943 23.646 108.85 23.11 108.666 22.668C108.484 22.227 108.203 21.84 107.825 21.509Z" fill="#7B0000"/>
<path d="M121.201 16.271C120.739 15.659 120.16 15.175 119.464 14.818C118.766 14.461 117.948 14.283 117.007 14.283C116.15 14.283 115.365 14.436 114.652 14.742C113.938 15.048 113.33 15.494 112.826 16.08C112.322 16.666 111.927 17.393 111.642 18.259C111.356 19.126 111.213 20.129 111.213 21.267C111.213 22.372 111.364 23.357 111.666 24.224C111.969 25.091 112.38 25.821 112.901 26.416C113.421 27.011 114.029 27.461 114.727 27.767C115.424 28.073 116.158 28.226 116.931 28.226C117.939 28.226 118.804 28.073 119.526 27.767C120.247 27.461 120.903 27.028 121.491 26.467L119.954 24.785C119.517 25.125 119.067 25.389 118.606 25.575C118.144 25.762 117.636 25.856 117.082 25.856C116.68 25.856 116.292 25.784 115.924 25.639C115.554 25.495 115.218 25.274 114.916 24.976C114.613 24.679 114.361 24.3 114.16 23.842C113.958 23.383 113.824 22.831 113.757 22.185H122.498C122.514 22.049 122.531 21.875 122.548 21.663C122.565 21.451 122.573 21.226 122.573 20.987C122.573 20.086 122.46 19.228 122.233 18.412C122.006 17.597 121.662 16.883 121.201 16.271ZM113.808 20.018C113.925 18.947 114.241 18.119 114.753 17.533C115.266 16.947 115.957 16.654 116.831 16.654C117.369 16.654 117.826 16.743 118.204 16.922C118.581 17.1 118.896 17.342 119.147 17.648C119.399 17.954 119.589 18.311 119.715 18.718C119.84 19.126 119.92 19.559 119.954 20.018H113.808Z" fill="#7B0000"/>
<path d="M137.436 11.517C136.932 11.05 136.331 10.697 135.634 10.459C134.938 10.221 134.186 10.102 133.38 10.102H126V27.945H128.62V21.292H133.219C134.073 21.292 134.857 21.173 135.568 20.935C136.28 20.697 136.895 20.34 137.415 19.865C137.934 19.389 138.336 18.803 138.621 18.106C138.906 17.409 139.049 16.602 139.049 15.685C139.049 14.767 138.906 13.96 138.621 13.263C138.333 12.567 137.939 11.985 137.436 11.517ZM135.599 17.953C135.097 18.497 134.343 18.769 133.34 18.769H128.619V12.626H133.34C134.26 12.626 134.992 12.89 135.536 13.416C136.08 13.943 136.352 14.699 136.352 15.685C136.352 16.653 136.101 17.41 135.599 17.953Z" fill="#7B0000"/>
<path d="M150.874 16.169C150.345 15.574 149.72 15.111 148.997 14.78C148.275 14.449 147.494 14.283 146.655 14.283C145.815 14.283 145.038 14.44 144.325 14.754C143.611 15.069 142.99 15.527 142.461 16.131C141.932 16.734 141.517 17.469 141.215 18.336C140.912 19.203 140.761 20.18 140.761 21.267C140.761 22.321 140.908 23.272 141.203 24.122C141.496 24.972 141.904 25.702 142.424 26.314C142.945 26.926 143.558 27.397 144.264 27.729C144.968 28.06 145.741 28.226 146.581 28.226C147.438 28.226 148.226 28.069 148.948 27.755C149.67 27.44 150.3 26.982 150.837 26.378C151.375 25.775 151.795 25.036 152.097 24.16C152.4 23.285 152.551 22.295 152.551 21.191C152.551 20.155 152.404 19.207 152.109 18.349C151.814 17.491 151.404 16.764 150.874 16.169ZM149.703 23C149.552 23.544 149.333 24.015 149.048 24.415C148.762 24.814 148.418 25.133 148.015 25.371C147.613 25.609 147.167 25.728 146.68 25.728C145.69 25.728 144.892 25.341 144.287 24.568C143.682 23.795 143.38 22.669 143.38 21.191C143.38 19.866 143.661 18.799 144.224 17.992C144.786 17.185 145.563 16.781 146.554 16.781C147.613 16.781 148.439 17.185 149.036 17.992C149.632 18.799 149.93 19.891 149.93 21.267C149.929 21.879 149.853 22.457 149.703 23Z" fill="#7B0000"/>
<path d="M163.531 15.828C163.162 15.416 162.683 15.055 162.096 14.746C161.508 14.437 160.878 14.282 160.207 14.282C159.518 14.282 158.859 14.418 158.229 14.69C157.6 14.962 157.045 15.378 156.567 15.939C156.089 16.5 155.706 17.205 155.421 18.055C155.135 18.905 154.993 19.899 154.993 21.037C154.993 22.312 155.122 23.404 155.383 24.313C155.643 25.222 156.004 25.966 156.466 26.543C156.929 27.121 157.47 27.546 158.091 27.818C158.713 28.09 159.376 28.226 160.081 28.226C160.786 28.226 161.415 28.076 161.97 27.775C162.524 27.475 163.045 27.101 163.531 26.654V27.945H166.101V9.36401L163.531 10.718V15.828ZM163.556 24.08C163.222 24.519 162.795 24.912 162.277 25.259C161.759 25.605 161.19 25.778 160.572 25.778C159.619 25.778 158.888 25.398 158.378 24.637C157.868 23.877 157.613 22.652 157.613 20.962C157.613 19.543 157.856 18.482 158.34 17.781C158.825 17.08 159.536 16.729 160.473 16.729C160.791 16.729 161.104 16.784 161.413 16.894C161.723 17.004 162.011 17.143 162.279 17.312C162.547 17.481 162.789 17.667 163.007 17.87C163.224 18.073 163.409 18.276 163.559 18.478V24.08H163.556Z" fill="#7B0000"/>
<path d="M15.2622 10.153C17.2604 10.153 18.8801 8.51399 18.8801 6.49199C18.8801 4.46999 17.2604 2.83099 15.2622 2.83099C13.264 2.83099 11.6443 4.46999 11.6443 6.49199C11.6443 8.51499 13.264 10.153 15.2622 10.153Z" fill="#7B0000"/>
<path d="M28.0362 6.98997C27.9167 6.86897 27.7249 6.86997 27.6044 6.98997C27.3138 7.28997 23.3688 12.461 15.2099 11.784C10.3952 11.384 4.47572 8.22897 2.89751 6.97197C2.77793 6.87097 2.60005 6.87597 2.48739 6.98997C2.36781 7.11097 2.36781 7.30597 2.48739 7.42697C2.49134 7.43097 8.80419 13.406 8.80419 19.682C8.80419 26.412 3.58729 31.029 2.47553 32.422C2.36979 32.543 2.37275 32.728 2.48739 32.844C2.58423 32.942 2.72951 32.959 2.84513 32.897C15.2574 26.429 21.6819 19.91 28.0886 7.35197C28.1499 7.23497 28.1331 7.08797 28.0362 6.98997Z" fill="#7B0000"/>
<path d="M28.1162 32.546C27.0509 28.888 24.5962 23.857 21.4397 20.362C19.6293 22.536 17.6904 24.502 15.5459 26.336C19.5917 26.61 24.6159 28.375 27.5658 32.792C27.5767 32.809 27.5895 32.825 27.6053 32.84C27.7249 32.961 27.9176 32.961 28.0372 32.84C28.1162 32.76 28.1419 32.648 28.1162 32.546Z" fill="#7B0000"/>
</g>
</svg>
