<svg viewBox="24 -24 72 72" xmlns="http://www.w3.org/2000/svg">
    <style type="text/css">
        .st0{fill:#FFFFFF;}
    </style>
    <g id="XMLID_1_">
        <path id="XMLID_75_" class="st0" d="M92.2 38.8c-.1-.2-.9-1.7-1.8-4-.8-2.3-1.6-5.3-1.6-8.5 0-3 .7-6.1 2.8-8.9.2-.1.4-.2.5-.4.2-.3.3-.7.2-1L81.7-20.5c-.6-2-2.4-3.4-4.5-3.4H45c-2.1 0-4 1.4-4.5 3.4L28.6 22.3v.4c-.6 1.5-1 3.2-1 5.3 0 2.9.6 5.2 1.6 7 1.4 2.7 3.6 4.1 5.4 4.8 1.8.7 3.2.8 3.3.8h35.9l3.7 6.1c.1.2.3.3.5.5 0 0 .4.2 1 .4s1.4.4 2.3.4c.5 0 1-.1 1.5-.2.7-.2 1.5-.8 2-1.6s.7-1.8.7-3.1v-.6c0-.2-.1-.4-.2-.5l-.8-1.4h6.7c.4 0 .8-.2 1-.6.2-.5.2-1 0-1.2zM42.8-19.9c.3-1 1.2-1.7 2.3-1.7h32.2c1 0 2 .7 2.2 1.7l10.2 35H81.9c.7-2.1 1-4.3 1-6.6 0-3.9-1-7.8-3.2-11.4C75.6-9.6 68.4-13.3 61-13.3c-3.9 0-7.8 1-11.4 3.2C42.8-6.1 39 1.2 39 8.5c0 2.2.3 4.4 1 6.5h-.9c-.1 0-2.9.2-5.7 1.9-.4.2-.7.5-1.1.7l10.5-37.5zM80.5 8.5c0 2.2-.4 4.5-1.1 6.6-.3.8-.6 1.6-1 2.4-1.6 3.1-4 5.8-7.3 7.8-3.2 1.9-6.7 2.8-10.1 2.8-6.6 0-13-3.3-16.7-9.4-.2-.4-.5-.8-.7-1.2-.4-.8-.7-1.6-1-2.4-.8-2.1-1.1-4.3-1.1-6.5 0-6.6 3.3-13 9.4-16.7 3.2-1.9 6.7-2.8 10.1-2.8 6.6 0 13 3.3 16.7 9.4 1.9 3.2 2.8 6.6 2.8 10zM38 38.2c-.3 0-2.2-.2-4-1.4-1-.6-1.9-1.6-2.7-3-.8-1.4-1.3-3.3-1.3-5.8s.6-4.4 1.5-5.9c1.3-2.1 3.2-3.3 4.9-3.9.8-.3 1.6-.5 2.1-.6.3 0 .5-.1.6-.1H41c.4.8.8 1.7 1.3 2.5 4.1 6.8 11.3 10.5 18.7 10.5 2.1 0 4.2-.3 6.2-.9l5.2 8.5H38v.1zm45 6.3c-.2.5-.4.7-.6.8-.2.1-.6.2-1 .2-.5 0-1.1-.1-1.6-.3-.2-.2-.3-.2-.4-.2l-2.8-4.6-1.4-2.4-5.7-9.4c1-.4 1.9-.9 2.8-1.5.4-.2.7-.4 1-.7l7 11.5 1.4 2.4 1.4 2.3v.2c.1.8 0 1.3-.1 1.7zm5.2-6.3H83l-7.9-12.9c2.5-2.2 4.4-4.8 5.7-7.7h7.9c-1.7 2.8-2.3 5.9-2.3 8.8 0 3.7.9 7 1.9 9.5.3.9.7 1.7 1 2.3h-1.1z"></path>
        <path id="XMLID_90_" class="st0" d="M68.3 2.2l-5.5.4L66-1.2c.3-.3.4-.8.2-1.3-.2-.4-.6-.7-1.1-.7h-5.3L61-4.4c.4-.5.4-1.2-.1-1.7s-1.2-.4-1.7.1l-5.4 6c-.4.5-.4 1.2.1 1.7.5.4 1.2.4 1.7-.1l2.1-2.3h4.8l-3.1 3.5-6.6.5c-.3 0-.7.2-.9.5s-.3.6-.2 1l1.9 7.5c.1.5.6.9 1.2.9l11.4-.1c.5 0 1-.4 1.1-.9l2.2-8.5c.1-.4 0-.8-.2-1.1-.2-.3-.6-.4-1-.4zM54.8 6.8l-.3-1.3 4.5-.2v1.4l-4.2.1zm1 3.9l-.4-1.6 3.7-.2.1 1.8h-3.4zm9.5 0h-3.8l-.1-1.8 4.4-.2-.5 2zm1.1-4.4l-5.1.2-.1-1.5 5.6-.4-.4 1.7z"></path>
        <path id="XMLID_94_" class="st0" d="M50.7 17.8c-.4.5-.3 1.3.2 1.7s1.3.3 1.7-.2l1.4-1.7.7-.9c.3-.4.3-1 0-1.4-.1-.1-.1-.2-.2-.2-.5-.4-1.3-.3-1.7.2l-1.9 2.4-.2.1z"></path>
        <path id="XMLID_95_" class="st0" d="M56.9 16.5l.8.9L59 19c.4.5 1.2.6 1.7.2.5-.4.6-1.2.2-1.7l-.1-.1-2-2.4-.1-.1c-.4-.5-1.2-.6-1.7-.2 0 .2 0 .3-.1.4-.3.4-.3 1.1 0 1.4z"></path>
        <path id="XMLID_96_" class="st0" d="M61.2 16.3l1.1 1.2 1.4 1.6c.4.5 1.2.5 1.7.1s.5-1.2.1-1.7L63.4 15l-.4-.3c-.4-.5-1.2-.5-1.7-.1-.2.1-.3.3-.3.5-.1.3 0 .8.2 1.2z"></path>
        <path id="XMLID_97_" class="st0" d="M66.1 16.4l1.4 1.2 2.2 1.8c.5.4 1.2.3 1.7-.2.4-.5.3-1.2-.1-1.6l-2.8-2.3-.7-.6c-.5-.4-1.2-.3-1.7.2-.1.1-.2.3-.2.5-.3.1-.2.6.2 1z"></path>
    </g>
</svg>