<svg viewBox="24 -24 72 72" xmlns="http://www.w3.org/2000/svg">
    <style type="text/css">
        .st0{fill:#FFFFFF;}
    </style>
    <path class="st0" d="M91.3 23.3h-.4c1.5-3.7 2.3-7.8 2.3-12.1 0-9.1-3.7-17.4-9.7-23.3-6-6-14.3-9.7-23.5-9.7s-17.5 3.7-23.5 9.7-9.8 14.2-9.7 23.3c0 4.3.8 8.3 2.3 12.1h-.3c-1.6 0-2.9 1.3-2.9 2.9v10.5c0 1.6 1.3 2.9 2.9 2.9h6.5c2.3 3.4 6 5.7 10.3 6.2h.3c1.3 0 2.4-1.1 2.4-2.5V19.5c0-1.4-1.1-2.4-2.4-2.5h-.3c-4.3.5-8 2.8-10.3 6.2h-3.6c-1.6-3.7-2.5-7.8-2.5-12.1 0-8.4 3.4-16.1 9-21.6s13.3-8.9 21.8-8.9 16.1 3.4 21.7 8.9c5.6 5.5 9 13.2 9 21.6 0 4.3-.9 8.4-2.5 12.1h-3.5c-2.3-3.4-6-5.7-10.3-6.2h-.3c-1.3 0-2.4 1.1-2.4 2.5v23.8c0 1.4 1.1 2.4 2.4 2.5h.3c4.3-.5 8-2.8 10.3-6.2h6.5c1.6 0 2.9-1.3 2.9-2.9V26.2c0-1.6-1.3-2.9-2.8-2.9zm-45.6 20c-6-.7-10.6-5.7-10.6-11.9s4.6-11.2 10.6-11.9v23.8zM32.6 31.4c0 2 .4 3.9 1.2 5.7h-5.2c-.2 0-.4-.2-.4-.4V26.2c0-.2.2-.4.4-.4h5.2c-.8 1.7-1.2 3.6-1.2 5.6zm59 5.2c0 .2-.2.4-.4.4H86c.7-1.7 1.2-3.6 1.2-5.7 0-2-.4-3.9-1.2-5.7h5.2c.2 0 .4.2.4.4v10.6zm-17.5 6.7V19.5c6 .7 10.6 5.7 10.6 11.9.1 6.2-4.6 11.2-10.6 11.9z"></path>
</svg>