<svg viewBox="24 -24 72 72" xmlns="http://www.w3.org/2000/svg">
    <style type="text/css">
        .st0{fill:#FFFFFF;}
    </style>
    <g id="XMLID_1_">
        <path id="XMLID_68_" class="st0" d="M48.1 24.1h-8.6c-.3 0-.6.1-.9.4-.2.2-.4.5-.4.9v8.1c0 .3.1.6.4.9.2.2.5.4.9.4h8.6c.3 0 .6-.1.9-.4.2-.2.4-.5.4-.9v-8.1c0-.3-.1-.6-.4-.9-.2-.2-.5-.4-.9-.4zm-1.2 8.2h-6.2v-5.7h6.2v5.7z"></path>
        <path id="XMLID_69_" class="st0" d="M68.8 28H55.5c-.7 0-1.2.5-1.2 1.2s.5 1.2 1.2 1.2h13.3c.7 0 1.2-.5 1.2-1.2s-.5-1.2-1.2-1.2z"></path>
        <path id="XMLID_72_" class="st0" d="M48.1 7.9h-8.6c-.3 0-.6.1-.9.4-.2.2-.4.5-.4.9v8.1c0 .3.1.6.4.9.2.2.5.4.9.4h8.6c.3 0 .6-.1.9-.4.2-.2.4-.5.4-.9V9.2c0-.3-.1-.6-.4-.9-.2-.2-.5-.4-.9-.4zm-1.2 8.2h-6.2v-5.7h6.2v5.7z"></path>
        <path id="XMLID_73_" class="st0" d="M68.8 11.8H55.5c-.7 0-1.2.5-1.2 1.2s.5 1.2 1.2 1.2h13.3c.7 0 1.2-.5 1.2-1.2s-.5-1.2-1.2-1.2z"></path>
        <path id="XMLID_74_" class="st0" d="M68.8-4.4H55.5c-.7 0-1.2.5-1.2 1.2S54.8-2 55.5-2h13.3c.7 0 1.2-.5 1.2-1.2s-.5-1.2-1.2-1.2z"></path>
        <path id="XMLID_75_" class="st0" d="M49.6-8.6L41.3.7l-2.4-3c-.4-.5-1.2-.6-1.7-.2s-.6 1.2-.2 1.7l3.3 4.1c.2.3.6.4.9.4.4 0 .7-.1.9-.4L51.3-7c.4-.5.4-1.3-.1-1.7-.3-.4-1.1-.4-1.6.1z"></path>
        <path id="XMLID_78_" class="st0" d="M89.8 11.8c-.7-.4-1.6-.6-2.4-.6-1 0-2.1.3-2.9.9-.2.1-.3.2-.4.4l-3.4 6.1v-35.4c0-1.9-1.6-3.5-3.5-3.5H66.8l-1.7-3c-.2-.4-.6-.6-1.1-.6H45c-.4 0-.9.2-1.1.6l-1.7 3H31c-1.9 0-3.5 1.6-3.5 3.5v61.3c0 1.9 1.6 3.5 3.5 3.5h46.3c1.9 0 3.5-1.6 3.5-3.5v-6.7c3.9-6.9 7.7-13.8 11.6-20.7.1-.2.1-.3.2-.5v-.3c-.1-1.9-1.1-3.7-2.8-4.5zM45.1-20.3l.7-1.2h17.5l.7 1.2 1 1.9H44l1.1-1.9zm33.2 64.8c0 .6-.5 1-1 1H31c-.6 0-1-.5-1-1v-61.3c0-.6.5-1 1-1h10v.1c-.2.4-.2.8 0 1.2s.6.6 1 .6h25.1c.4 0 .8-.2 1-.6.2-.4.2-.8 0-1.2l-.1-.1h9.1c.6 0 1 .5 1 1V23l-6.7 12c-.1.2-.2.5-.1.8l.7 5.3c.1.4.3.7.6.9.3.2.7.2 1 .1l4.5-1.6v4h.2zm2.4-11.7c-.8 1.4-1.6 2.9-2.4 4.3-.1.3-.3.5-.4.8l-3.5 1.3-.5-3.4 4.4-7.8 2.4-4.3 5.4-9.6c.4-.2.9-.4 1.3-.4s.8.1 1.2.3c.8.4 1.4 1.3 1.4 2.3-3.1 5.4-6.2 11-9.3 16.5z"></path>
    </g>
</svg>