<svg id="Layer_1" data-name="Layer 1" xmlns="http://www.w3.org/2000/svg" viewBox="0 0 157 116.48"><title>Chinesepod_Corporate_Icon</title><path d="M148,68.84,131.68,64V60.11a17.72,17.72,0,0,0,7.59-14.53V38.26a18,18,0,0,0-17.77-18,17.65,17.65,0,0,0-12.61,5.34V23.2a13.62,13.62,0,0,0-7-11.88s-3.69-2.84-4.88-3.83A30.34,30.34,0,0,0,77.5,0c-7.26,0-14.21,2.33-19,7.05C50.67,14.66,49,20.34,48.35,25.86a17.7,17.7,0,0,0-13.22-5.6,17.9,17.9,0,0,0-17.4,18v7.32a17.72,17.72,0,0,0,7.59,14.53V64L9,68.84A12.6,12.6,0,0,0,0,81V98.75a5.07,5.07,0,0,0,5.07,5.07H30.39a2.54,2.54,0,0,1,2.53,2.53v5.07H21.27a2.53,2.53,0,1,0,0,5.06H135.73a2.53,2.53,0,1,0,0-5.06H124.08v-5.07a2.54,2.54,0,0,1,2.53-2.53h25.32A5.07,5.07,0,0,0,157,98.75V81A12.6,12.6,0,0,0,148,68.84ZM121.55,25.32A12.68,12.68,0,0,1,134.21,38H122.6a6.17,6.17,0,0,1-4.33-1.79l-1.79-1.79-1.79,1.79A6.12,6.12,0,0,1,110.37,38h-1.48A12.68,12.68,0,0,1,121.55,25.32ZM108.89,43.05h1.48a11,11,0,0,0,6.11-1.82,11,11,0,0,0,6.12,1.82h11.61v2.53a12.66,12.66,0,0,1-25.32,0Zm17.72,19.51v2.58c-.63,1-2.37,3.23-5.06,3.23s-4.45-2.27-5.07-3.23V62.56a17.48,17.48,0,0,0,10.13,0ZM105.06,52a17.77,17.77,0,0,0,6.36,8.07V64l-16.3,4.89a13,13,0,0,0-1.57.6l-2.39-.55v-5a20.32,20.32,0,0,0,6.15-8.3A12.63,12.63,0,0,0,105.06,52ZM74,78.27l-6.35,3.81-1.61-8,1.78-.41ZM70.9,69.64V66.88a20.13,20.13,0,0,0,15.2,0v2.76l-7.6,5.69Zm7.6,11.81,4.69,2.82-1.45,4.36H75.26l-1.45-4.36ZM83,78.27l6.18-4.63,1.78.41-1.61,8Zm-4.53-15a15.21,15.21,0,0,1-15.19-15.2V35.45H71.9a32.58,32.58,0,0,0,15.69-4l2,4h4.09V48.11A15.21,15.21,0,0,1,78.5,63.31ZM98.65,50.2a20.44,20.44,0,0,0,.11-2.09V36a7.64,7.64,0,0,1,5,6.29,7.45,7.45,0,0,1-5.13,7.91ZM53.18,29.39A24.32,24.32,0,0,1,94.7,12.19l2.69,2.68.57.19a8.57,8.57,0,0,1,5.86,8.14v9.93a13.33,13.33,0,0,0-8-2.74H92.73l-3.12-6.23-2.38,1.59A27.62,27.62,0,0,1,71.9,30.39H61.21a13.33,13.33,0,0,0-8,2.74ZM58.35,50.2A7.48,7.48,0,0,1,58.24,36V48.11A20.44,20.44,0,0,0,58.35,50.2ZM51.94,52a12.63,12.63,0,0,0,7.75,3.56,20.32,20.32,0,0,0,6.15,8.3v5l-2.39.55a15.81,15.81,0,0,0-1.57-.6L45.58,64V60.11A17.83,17.83,0,0,0,51.94,52ZM35.45,25.32A12.68,12.68,0,0,1,48.11,38H46.63a6.12,6.12,0,0,1-4.32-1.79L40.52,34.4l-1.79,1.79A6.17,6.17,0,0,1,34.4,38H22.79A12.68,12.68,0,0,1,35.45,25.32ZM22.79,45.58V43.05H34.4a11,11,0,0,0,6.12-1.82,11,11,0,0,0,6.11,1.82h1.48v2.53a12.66,12.66,0,1,1-25.32,0Zm17.73,17v2.58c-.63,1-2.38,3.23-5.07,3.23S31,66.11,30.39,65.14V62.56a17.48,17.48,0,0,0,10.13,0Zm15.19,48.86V93.69a2.53,2.53,0,0,0-5.06,0v17.73H38v-5.07a7.59,7.59,0,0,0-7.59-7.59H20.26V83.56a2.54,2.54,0,0,0-5.07,0v15.2H5.06V81a7.55,7.55,0,0,1,5.42-7.27l16.3-4.9a11,11,0,0,0,8.67,4.64,11,11,0,0,0,8.67-4.64l9.6,2.89-7.06,1.62A17.66,17.66,0,0,0,32.92,90.59v18.3a2.53,2.53,0,1,0,5.06,0V90.59A12.61,12.61,0,0,1,47.8,78.25l13.27-3.06,3,14.93,5.3-3.18,1.5,4.49-2.22,20Zm18,0,2-17.73h5.6l2,17.73Zm78.21-12.66H141.81V83.56a2.54,2.54,0,0,0-5.07,0v15.2H126.61a7.59,7.59,0,0,0-7.59,7.59v5.07H106.35V93.69a2.53,2.53,0,0,0-5.06,0v17.73H88.36l-2.22-20,1.5-4.49,5.3,3.18,3-14.93,13.28,3.06A12.61,12.61,0,0,1,119,90.59v18.3a2.53,2.53,0,0,0,5.06,0V90.59a17.66,17.66,0,0,0-13.74-17.28l-7.06-1.62,9.6-2.89a10.42,10.42,0,0,0,17.34,0l16.3,4.9A7.55,7.55,0,0,1,151.94,81Z" fill="#e6e6e6"/></svg>