<svg id="Capa_1" data-name="Capa 1" xmlns="http://www.w3.org/2000/svg" viewBox="0 0 512 393.55"><title>Chinesepod_Academic_Icon</title><path d="M458.53,221.72l-33.38-8V202A62.54,62.54,0,0,0,456,148.15V103.9a62.62,62.62,0,0,0-62.54-62.54h-6.92A62.38,62.38,0,0,0,340.1,62.07a88,88,0,0,0-168.19,0,62.38,62.38,0,0,0-46.44-20.71h-6.92A62.62,62.62,0,0,0,56,103.9v44.25A62.55,62.55,0,0,0,86.84,202v11.73l-33.37,8A69.42,69.42,0,0,0,0,289.45v30.1a10,10,0,0,0,10,10H90.78a93.58,93.58,0,0,0-.77,12v32H30a10,10,0,1,0,0,20H482a10,10,0,0,0,0-20H422V341.62a94.48,94.48,0,0,0-.77-12.07H502a10,10,0,0,0,10-10v-30.1A69.41,69.41,0,0,0,458.53,221.72ZM344,103.9a42.58,42.58,0,0,1,42.54-42.54h6.91A42.59,42.59,0,0,1,436,103.9v2.57a75.51,75.51,0,0,1-40.52-12.35,10,10,0,0,0-11,0A75.51,75.51,0,0,1,344,106.47V103.9ZM344,140V126.47a95.47,95.47,0,0,0,46-12.29,95.39,95.39,0,0,0,46,12.29v21.68a42.58,42.58,0,0,1-42.54,42.54h-6.92A42.59,42.59,0,0,1,344,148.15V140Zm19.18,115.1a94.09,94.09,0,0,0-12.62-4l-31.78-7.59a49.38,49.38,0,0,1,7.3-2.37l31.58-7.57Zm-8.28-53v11.61l-33.48,8a69.24,69.24,0,0,0-20.36,8.47V215.55a88.68,88.68,0,0,0,32.57-34.14A62.81,62.81,0,0,0,354.89,202.06ZM324,140a68,68,0,1,1-136,0V110.7h11a128.76,128.76,0,0,0,76.8-25.23l2.29,3.43a49,49,0,0,0,40.81,21.8H324V140ZM188,88a68,68,0,0,1,136,0v2.7H318.9a29.07,29.07,0,0,1-24.19-12.92L291,72.25c3-3,5.87-6.24,8.59-9.6a10,10,0,0,0-15.56-12.57A108.89,108.89,0,0,1,199,90.7H188Zm-9.62,93.43A88.76,88.76,0,0,0,211,215.61v14.61a69.49,69.49,0,0,0-20.45-8.52l-33.49-8V202.06A62.9,62.9,0,0,0,178.38,181.42Zm14.74,62.05-31.73,7.6a94.5,94.5,0,0,0-12.55,4l5.51-21.46,31.58,7.57A49,49,0,0,1,193.12,243.47ZM76,103.9a42.59,42.59,0,0,1,42.54-42.54h6.92A42.6,42.6,0,0,1,168,103.9v2.57a75.55,75.55,0,0,1-40.53-12.35,10,10,0,0,0-11,0A75.49,75.49,0,0,1,76,106.47V103.9Zm0,44.25V126.47a95.5,95.5,0,0,0,46-12.29,95.32,95.32,0,0,0,46,12.29v21.68a42.58,42.58,0,0,1-42.54,42.54h-6.91A42.58,42.58,0,0,1,76,148.15ZM95.65,309.56H20v-20.1a49.48,49.48,0,0,1,38.11-48.28l31.48-7.52,14.88,58A92.48,92.48,0,0,0,95.65,309.56Zm11.19-100a62.82,62.82,0,0,0,11.71,1.12h6.92a62.16,62.16,0,0,0,11.64-1.11v10.71l-12.53,48.84c-1.47,1.18-2.91,2.39-4.29,3.65l-13.45-52.41Zm3.17,164v-32a72.82,72.82,0,0,1,30.53-59.46L232,373.55Zm49.22-101c2.22-.76,4.49-1.44,6.82-2l47.75-11.45,23.47,91.49ZM231,245.79V224.38a88.05,88.05,0,0,0,50,0v21.56l-25,97.4Zm67.25,13.39,47.61,11.37c2.4.58,4.73,1.27,7,2.06L274.8,350.73ZM402,373.55H280.27l91.3-91.31A72.83,72.83,0,0,1,402,341.62Zm3.17-153.17h0L391.7,272.82c-1.37-1.26-2.81-2.46-4.26-3.63L374.89,220.3V209.59a63,63,0,0,0,11.65,1.1h6.91a62,62,0,0,0,11.71-1.12v10.81ZM492,309.55H416.33a92.39,92.39,0,0,0-8.82-17.89l14.89-58,31.48,7.52A49.47,49.47,0,0,1,492,289.45v20.1Z" fill="#e6e6e6"/><path d="M10.07,196.78a9,9,0,0,1-9-9c0-19.82,5.59-38.87,15.73-53.64,11.43-16.64,27.49-26.63,46.45-28.88a9,9,0,0,1,10,7.8c.21,1.63,4.87,40.36-16.63,64.77C45.53,190.4,29.87,196.78,10.07,196.78Zm45.76-71.49c-11.76,4-19.49,12.2-24.19,19-6.47,9.43-10.62,21.17-12,33.78,9.9-1.51,17.64-5.53,23.49-12.18C53.05,154.63,55.62,137.19,55.83,125.29Z" fill="#e6e6e6"/></svg>