<svg xmlns="http://www.w3.org/2000/svg" xmlns:xlink="http://www.w3.org/1999/xlink" viewBox="0 0 1366 2013.93"><defs><linearGradient id="linear-gradient" x1="920.27" y1="1140.02" x2="1366" y2="1140.02" gradientUnits="userSpaceOnUse"><stop offset="0" stop-color="#477ee2"/><stop offset="0.99" stop-color="#243054"/></linearGradient><linearGradient id="linear-gradient-2" x1="1131.89" y1="937.88" x2="1131.89" y2="1265.64" gradientUnits="userSpaceOnUse"><stop offset="0.01" stop-color="#384b83"/><stop offset="1" stop-color="#477ee2"/></linearGradient><linearGradient id="linear-gradient-3" x1="1143.13" y1="1261.67" x2="1143.13" y2="1303.68" gradientUnits="userSpaceOnUse"><stop offset="0" stop-color="#4da6e0"/><stop offset="1" stop-color="#daf0f8"/></linearGradient><linearGradient id="linear-gradient-4" x1="1131.89" y1="1261.67" x2="1131.89" y2="1303.68" gradientUnits="userSpaceOnUse"><stop offset="0" stop-color="#7dccff"/><stop offset="1" stop-color="#daf0f8"/></linearGradient><linearGradient id="linear-gradient-5" x1="1001.16" y1="1033.01" x2="1001.16" y2="1127.4" gradientUnits="userSpaceOnUse"><stop offset="0" stop-color="#477ee2"/><stop offset="1" stop-color="#3fa3fc"/></linearGradient><linearGradient id="linear-gradient-6" x1="1184.88" y1="1303.56" x2="1184.88" y2="1411.36" xlink:href="#linear-gradient-3"/><linearGradient id="linear-gradient-7" x1="1093.52" y1="1395.1" x2="1093.52" y2="1411.19" xlink:href="#linear-gradient-3"/><linearGradient id="linear-gradient-8" x1="1127.99" y1="1536.53" x2="1201.05" y2="1536.53" gradientUnits="userSpaceOnUse"><stop offset="0" stop-color="#e27f22"/><stop offset="1" stop-color="#c1392b"/></linearGradient><linearGradient id="linear-gradient-9" x1="1169.97" y1="1373.48" x2="1218.66" y2="1420.55" gradientUnits="userSpaceOnUse"><stop offset="0" stop-color="#98abd5"/><stop offset="1" stop-color="#384c81"/></linearGradient><linearGradient id="linear-gradient-10" x1="1210.05" y1="1567.83" x2="1257.79" y2="1567.83" xlink:href="#linear-gradient-8"/><linearGradient id="linear-gradient-11" x1="1245.58" y1="1398.83" x2="1280.18" y2="1446.95" xlink:href="#linear-gradient-9"/><linearGradient id="linear-gradient-12" x1="1294.39" y1="1248.1" x2="1343.61" y2="1403.29" gradientUnits="userSpaceOnUse"><stop offset="0" stop-color="#5dcf8c"/><stop offset="0.27" stop-color="#5dcd90"/><stop offset="0.51" stop-color="#5bc79a"/><stop offset="0.74" stop-color="#59bcad"/><stop offset="0.96" stop-color="#57aec6"/><stop offset="1" stop-color="#56abcb"/></linearGradient><linearGradient id="linear-gradient-13" x1="5159.15" y1="1233.73" x2="5219.68" y2="1233.73" gradientTransform="matrix(-1, -0.02, -0.02, 1, 6531.08, 52.4)" gradientUnits="userSpaceOnUse"><stop offset="0" stop-color="#6a5687"/><stop offset="1" stop-color="#9274bd"/></linearGradient><linearGradient id="linear-gradient-14" x1="1329.6" y1="1236.69" x2="1351.56" y2="1238.16" gradientUnits="userSpaceOnUse"><stop offset="0" stop-color="#f6f6ff"/><stop offset="0.99" stop-color="#e2e2e2"/></linearGradient><linearGradient id="linear-gradient-15" x1="1172.16" y1="1386.97" x2="1265.13" y2="1386.97" gradientUnits="userSpaceOnUse"><stop offset="0" stop-color="#c2f6ff"/><stop offset="1" stop-color="#85cad6"/></linearGradient><linearGradient id="linear-gradient-16" x1="1150.87" y1="1302.73" x2="1262.5" y2="1390.27" gradientUnits="userSpaceOnUse"><stop offset="0" stop-color="#fff"/><stop offset="1" stop-color="#85cad6"/></linearGradient><linearGradient id="linear-gradient-17" x1="-55.59" y1="93.19" x2="-27.76" y2="117.88" gradientTransform="translate(68.84 559.22) rotate(-10.24)" gradientUnits="userSpaceOnUse"><stop offset="0" stop-color="#ffba6a"/><stop offset="0.98" stop-color="#ff503f"/><stop offset="1" stop-color="#ff4e3e"/></linearGradient><linearGradient id="linear-gradient-18" x1="66.9" y1="203.66" x2="49.28" y2="332.26" gradientTransform="translate(13.42 154.35) rotate(-2.7)" gradientUnits="userSpaceOnUse"><stop offset="0" stop-color="#68b7c1"/><stop offset="1" stop-color="#8ecfb9"/></linearGradient><linearGradient id="linear-gradient-19" x1="62.04" y1="290.38" x2="140.09" y2="290.38" gradientTransform="translate(13.42 154.35) rotate(-2.7)" gradientUnits="userSpaceOnUse"><stop offset="0" stop-color="#202d57"/><stop offset="1" stop-color="#3e5ca8"/></linearGradient><linearGradient id="linear-gradient-20" x1="69.95" y1="534.73" x2="187.79" y2="543.26" gradientTransform="translate(3.86 9.48) rotate(-0.06)" gradientUnits="userSpaceOnUse"><stop offset="0" stop-color="#172140"/><stop offset="1" stop-color="#3e5ca8"/></linearGradient><linearGradient id="linear-gradient-21" x1="54.29" y1="405.88" x2="86.6" y2="434.54" gradientTransform="translate(13.42 154.35) rotate(-2.7)" xlink:href="#linear-gradient-17"/><linearGradient id="linear-gradient-22" x1="112.99" y1="493.7" x2="234.27" y2="477.63" gradientUnits="userSpaceOnUse"><stop offset="0" stop-color="#122d5c"/><stop offset="0.14" stop-color="#183361"/><stop offset="0.33" stop-color="#294270"/><stop offset="0.54" stop-color="#445c89"/><stop offset="0.77" stop-color="#6a80ac"/><stop offset="1" stop-color="#98abd5"/></linearGradient><linearGradient id="linear-gradient-23" x1="71.42" y1="96.46" x2="68.73" y2="116.05" gradientTransform="translate(13.42 154.35) rotate(-2.7)" gradientUnits="userSpaceOnUse"><stop offset="0" stop-color="#ff4e3e"/><stop offset="0.02" stop-color="#ff503f"/><stop offset="1" stop-color="#ffba6a"/></linearGradient><linearGradient id="linear-gradient-24" x1="85.45" y1="-488.53" x2="77.31" y2="-429.2" gradientTransform="translate(97.54 743.83) rotate(-13.39)" xlink:href="#linear-gradient-23"/><linearGradient id="linear-gradient-25" x1="-2873.76" y1="491.88" x2="-2793.44" y2="405.14" gradientTransform="matrix(0.41, 0.01, 0.01, 0.56, 1373.49, 84.42)" gradientUnits="userSpaceOnUse"><stop offset="0" stop-color="#fff"/><stop offset="1" stop-color="#b8dcff"/></linearGradient><linearGradient id="linear-gradient-26" x1="869.76" y1="57.4" x2="1205.48" y2="283.89" gradientUnits="userSpaceOnUse"><stop offset="0" stop-color="#477ee2"/><stop offset="1" stop-color="#fff"/></linearGradient><linearGradient id="linear-gradient-27" x1="910.52" y1="47.79" x2="1172.45" y2="298.39" gradientUnits="userSpaceOnUse"><stop offset="0.01" stop-color="#203882"/><stop offset="1" stop-color="#1671da"/></linearGradient><linearGradient id="linear-gradient-28" x1="871.72" y1="280.72" x2="1231.59" y2="523.5" gradientUnits="userSpaceOnUse"><stop offset="0" stop-color="#3fa3fc"/><stop offset="1" stop-color="#477ee2"/></linearGradient><linearGradient id="linear-gradient-29" x1="1069.1" y1="646.29" x2="1110.83" y2="683.3" gradientTransform="matrix(1, 0, 0, 1, 0, 0)" xlink:href="#linear-gradient-17"/><linearGradient id="linear-gradient-30" x1="1130.43" y1="509.42" x2="1211.71" y2="518.86" gradientUnits="userSpaceOnUse"><stop offset="0" stop-color="#9279c8"/><stop offset="1" stop-color="#6a5588"/></linearGradient><linearGradient id="linear-gradient-31" x1="1225.91" y1="622.87" x2="1217.1" y2="687.11" gradientTransform="matrix(1, 0, 0, 1, 0, 0)" xlink:href="#linear-gradient-23"/><linearGradient id="linear-gradient-32" x1="1468.68" y1="1089.04" x2="1580.43" y2="1023.95" gradientTransform="translate(124.49 -1071.81) rotate(18.57)" gradientUnits="userSpaceOnUse"><stop offset="0" stop-color="#fa902f"/><stop offset="0.17" stop-color="#f7a030"/><stop offset="0.45" stop-color="#f3b530"/><stop offset="0.73" stop-color="#f1c231"/><stop offset="1" stop-color="#f0c631"/></linearGradient><linearGradient id="linear-gradient-33" x1="5942.28" y1="1491.09" x2="5931.63" y2="1568.79" gradientTransform="matrix(-0.82, -0.57, -0.57, 0.82, 7028.55, 2457.89)" xlink:href="#linear-gradient-23"/><linearGradient id="linear-gradient-34" x1="45.87" y1="1495.13" x2="146" y2="1436.81" gradientTransform="matrix(1, 0, 0, 1, 0, 0)" xlink:href="#linear-gradient-32"/><linearGradient id="linear-gradient-35" x1="-44.76" y1="1140.58" x2="22.62" y2="1140.58" gradientTransform="matrix(1, -0.07, 0.07, 1, 24.91, 205.15)" gradientUnits="userSpaceOnUse"><stop offset="0" stop-color="#d15400"/><stop offset="1" stop-color="#e97e20"/></linearGradient><linearGradient id="linear-gradient-36" x1="164.48" y1="1482.56" x2="254.43" y2="1388.59" gradientUnits="userSpaceOnUse"><stop offset="0" stop-color="#fff"/><stop offset="1" stop-color="#c2f6ff"/></linearGradient><linearGradient id="linear-gradient-37" x1="226.36" y1="1458.25" x2="225.55" y2="1546.6" xlink:href="#linear-gradient-30"/><linearGradient id="linear-gradient-38" x1="407.65" y1="1520.76" x2="427.76" y2="1477.89" gradientUnits="userSpaceOnUse"><stop offset="0" stop-color="#c1392b"/><stop offset="1" stop-color="#e27f22"/></linearGradient><linearGradient id="linear-gradient-39" x1="72.67" y1="1367.15" x2="81.85" y2="1367.15" gradientUnits="userSpaceOnUse"><stop offset="0" stop-color="#fefeff"/><stop offset="1" stop-color="#f5f5ff"/></linearGradient></defs><title>CP_Background</title><g id="text"><rect width="1366" height="2013.93" fill="#2487c1"/><path d="M1366,1359.51c-2.49,11.67-6,25.52-10.87,41-20,63.35-52.71,123.41-97.32,178.52C1111.85,1759.38,845.65,1872,488,1904.59A126.13,126.13,0,0,0,374.4,2013.93h712.41q20.36-9.33,40-19.21c90.92-45.78,170.91-100.51,239.15-163.47Z" fill="#e1001e"/><polygon points="1254.83 811.35 1314.52 872.03 1232.12 893.39 1254.83 811.35" fill="#2487c1"/><path d="M1366,204.64a120.31,120.31,0,0,0-98.88-52C974.85,152.07,874.51,81.79,792.26,0H0V255.3a591.13,591.13,0,0,1,45.4-67.79C127.1,82.39,230.6,27.84,353,25.4c126.66-2.52,162.74,35.06,234.69,110,52.18,54.33,117.13,122,225,173.8,117.38,56.44,265.88,84.06,454,84.42h.24a120.34,120.34,0,0,0,99.1-52Z" fill="#e1001e"/><path d="M614.47,848.11A416.18,416.18,0,0,0,0,663.89v692.5a416.46,416.46,0,0,0,614.47-184.22,417.2,417.2,0,0,0,0-324.06ZM383.9,1163a216.18,216.18,0,1,1,63.32-152.86A214.75,214.75,0,0,1,383.9,1163Z" fill="#35c567"/><path d="M1366,714.48v-278a575.24,575.24,0,0,0,0,1147.24v-278a298.87,298.87,0,0,1,0-591.31Z" fill="#f7b500"/><circle cx="539.4" cy="1631.81" r="107.82" fill="#003041"/><path d="M1366,0V646.21c-54.22,29.53-96.06,35.3-135.74,28.06h0c-1-.18-2-.37-3-.58l-1.58-.32c-29.65-6.18-58.29-19.45-90.26-35.27l-3.75-1.86-16.71-8.33-.83-.41-2.9-1.45c-50.19-24.92-110-53-193.49-69.54-58.1-11.5-120.74-2.37-180.66,9.78l-7.78,1.6-4.21.88-6.21,1.31c-109,23.13-206.29,50.43-246.93-27.34-8-15.35-10.89-29.42-9.67-42.59a64.8,64.8,0,0,1,1.16-7.51,68.05,68.05,0,0,1,3.93-12.34,79.83,79.83,0,0,1,4.31-8.7,103.52,103.52,0,0,1,8.22-12.24s0,0,0,0a.86.86,0,0,1,.07-.1c7.94-10.23,18.14-20.08,29.91-29.8l.09-.07h0c6.12-5.06,12.66-10.07,19.52-15.09q8.16-6,16.88-12h0c10.41-7.19,21.32-14.44,32.43-21.85l3.76-2.52c17.07-11.41,34.55-23.23,51.38-35.85.9-.66,1.8-1.34,2.69-2q9-6.81,17.71-14c.86-.71,1.72-1.42,2.57-2.14,18.08-15.13,34.73-31.49,48.46-49.6,1.89-2.5,3.74-5,5.51-7.61h0l.43-.62a1.36,1.36,0,0,1,.12-.17c1.11-1.63,2.21-3.28,3.28-4.94l1.14-1.79c.33-.52.65-1,1-1.56,1.37-2.22,2.7-4.47,4-6.74A172.9,172.9,0,0,0,735.15,218h0q1.85-5.86,3.26-12c.33-1.39.63-2.79.91-4.2s.63-3.12.9-4.7.56-3.35.8-5c.15-1,.29-2.08.41-3.12q.45-3.6.74-7.28c.15-1.84.25-3.69.31-5.54q.19-5.74-.14-11.58c0-.66-.08-1.31-.13-2q-.3-4.34-.9-8.7c-.08-.59-.16-1.18-.26-1.78q-.72-4.92-1.82-9.89c-.39-1.8-.82-3.59-1.28-5.39-.15-.58-.3-1.15-.46-1.72-.06-.25-.13-.5-.2-.74q-.43-1.63-.93-3.27c-.07-.24-.14-.49-.22-.74q-.58-1.95-1.23-3.9c-.51-1.55-1-3.11-1.61-4.66C718,79.28,684.2,36.51,636,0Z" fill="#003041"/><polygon points="272.34 2000.22 212.65 1939.53 295.05 1918.18 272.34 2000.22" fill="#35c567"/><path d="M936.34,976.43H1366V1303.6H936.34a16.07,16.07,0,0,1-16.07-16.07v-295A16.07,16.07,0,0,1,936.34,976.43Z" fill="url(#linear-gradient)"/><path d="M1366,976.43V1303.6H913.85a16.06,16.06,0,0,1-16.06-16.07v-295a16.06,16.06,0,0,1,16.06-16.06Z" fill="url(#linear-gradient-2)"/><path d="M1366,1261.67v41.93H936.34a16.07,16.07,0,0,1-16.07-16.07v-25.86Z" fill="url(#linear-gradient-3)"/><path d="M1366,1261.67v41.93H913.85a16.06,16.06,0,0,1-16.06-16.07v-25.86Z" fill="url(#linear-gradient-4)"/><rect x="949.56" y="1026.98" width="103.2" height="103.2" rx="8.03" fill="url(#linear-gradient-5)"/><rect x="1112.95" y="1026.93" width="234.82" height="17.91" fill="#3fa3fc"/><rect x="1112.95" y="1055.38" width="234.82" height="17.91" fill="#3fa3fc"/><rect x="1112.95" y="1083.82" width="234.82" height="17.91" fill="#3fa3fc"/><rect x="1112.95" y="1112.27" width="234.82" height="17.91" fill="#3fa3fc"/><path d="M1195.26,1411.17H1036.62V1395.1h44.85a8,8,0,0,0,8-8v-83.51h129.85v83.51A24.12,24.12,0,0,1,1195.26,1411.17Z" fill="#3eb5f1"/><path d="M1195.26,1411.17h-44.85V1395.1h44.85a8,8,0,0,0,8-8v-83.51h16.06v83.51A24.12,24.12,0,0,1,1195.26,1411.17Z" fill="url(#linear-gradient-6)"/><rect x="1036.62" y="1395.1" width="113.79" height="16.06" fill="url(#linear-gradient-7)"/><path d="M1089.5,1303.94v21.82h53a23.56,23.56,0,0,1,23.55,23.56v.47a23.55,23.55,0,0,0,23.55,23.56h13.66v-69.41Z" fill="#28a3e0"/><rect x="1307.56" y="1147.23" width="40.38" height="40.38" rx="4.82" fill="#3fa3fc"/><circle cx="1140.23" cy="1283.1" r="10.18" fill="#3eb5f1"/><path d="M1258.6,1242.23c-4.59-20.13-25.6-84.76-51.9-84.66s-41.76,68.16-66.47,68.67-30.33-46.59-58.88-46.59c-25,0-41.32,28.44-56,26.75s-15.41-24.85-44.72-24.85c-20.66,0-43.34,49.29-47.39,60.68Z" fill="#3fa3fc"/><path d="M1366,1407.82V1547H1217.91a8,8,0,0,1-8-8V1415.85a8,8,0,0,1,8-8Z" fill="#e2e2e2"/><path d="M1226.75,1424.68H1366v-1.6H1225.14v108.66H1366v-1.61H1226.75Z" fill="#cfcfcf"/><path d="M1275.15,1352.61a14.26,14.26,0,0,1-4.82-.83,14.46,14.46,0,0,1-8.81-18.45l26.24-74.19a14.46,14.46,0,0,1,27.26,9.64L1288.78,1343A14.46,14.46,0,0,1,1275.15,1352.61Z" fill="#e79d80"/><path d="M1302.72,1281.37c-9.51-2-18.5-.36-24.11,3.62l-5.11,14.47c2.45,7.18,11,13.7,22.2,16,.89.18,1.77.33,2.65.45l11.45-32.38A40.57,40.57,0,0,0,1302.72,1281.37Z" fill="#ce623f"/><path d="M1273.81,1295.93l12.46-37.71a16.06,16.06,0,0,1,30.5,10.08l-11.86,40.25C1303.56,1312.82,1271,1304.36,1273.81,1295.93Z" fill="#00c191"/><path d="M1300.25,1310.9a41.93,41.93,0,0,1-11.37-1.88c-13-3.75-17.64-11.91-17.83-12.25l2.81-1.55-1.41.77,1.41-.78c0,.08,4.24,7.36,15.91,10.72,10.47,3,14.37,1.21,14.41,1.19l1.5,2.84C1305.41,1310.11,1303.8,1310.9,1300.25,1310.9Z" fill="#80e1ab"/><path d="M1280.35,1345.9l-52.9,14.53a9.18,9.18,0,0,1-6.28-17.18l49.82-23a13.7,13.7,0,1,1,11.48,24.88A14.2,14.2,0,0,1,1280.35,1345.9Z" fill="#e79d80"/><path d="M1347,1195.68s1.53.38,1.67,3-2.32,5.17-2.23,7.78c.08,1.92,1.38,2.67,1.56,4.6.35,3.68-3.15,6.25-1.09,7.23,2.83,1.34,4.44-2.58,6.44-.28,3,3.42-7.55,22.16-22,9S1347,1195.68,1347,1195.68Z" fill="#76598f"/><path d="M1299.13,1177.57s-6.63,6.88-2.08,14,10.66,3.5,10.66,3.5l-3.73-17.68Z" fill="#77588f"/><path d="M1194.7,1522.4c2.37,3.58,9.28,20.18,5,24-4.63,4.06-12.54,1.73-17.27,2s-19.65,4.63-26.13,5.13c-8.48.66-21.54-.2-26.82-3.25-2-1.15-1.88-5.22,0-5.89,3.51-1.22,17.36-2.22,25.86-5.36,7.09-2.63,16.94-13.34,22-17.25C1180.38,1519.4,1191.42,1517.43,1194.7,1522.4Z" fill="url(#linear-gradient-8)"/><path d="M1180.33,1402.28l13.41,122.45c.81,7.19-15.39,9.47-17,2.34l-20.32-121.49a12.05,12.05,0,0,1,23.78-4C1180.27,1401.82,1180.3,1402.07,1180.33,1402.28Z" fill="#e79d80"/><path d="M1175.8,1521.17a26.36,26.36,0,0,0,5.64,1.91,24.89,24.89,0,0,0,12.09-.28l-3.09-28.22c-.86-.28-1.73-.54-2.64-.74a23.27,23.27,0,0,0-16.24,2Z" fill="#ce623f"/><path d="M1306.89,1367a26.52,26.52,0,0,0-32.89-18l-110.93,32.34a22.1,22.1,0,0,0-15.39,25.64c0,.27.14.53.21.8l20.51,106.55c1.53,10.41,34,4.65,32.67-7.7-.69-6.46-6.52-57.58-9.79-86.26l95.56-19.94c.65-.14,1.36-.32,2-.51A26.52,26.52,0,0,0,1306.89,1367Z" fill="url(#linear-gradient-9)"/><path d="M1255.39,1549.05c2.2,4.45,3.22,16.47,1.61,19s-7.45,5.24-7.86,6.14-.72,6-3.09,8.67c-4.39,5-19.57,8.26-25.72,8.46s-15.51-3.13-6.65-9.17,15.82-14,18.64-19.44,3.2-16.88,12.31-18.09C1251.5,1543.7,1253.46,1545.17,1255.39,1549.05Z" fill="url(#linear-gradient-10)"/><path d="M1250.43,1429.35s4.11,117.14,4.17,124.68-16.44,8.29-17.09,1-11.13-124.25-11.13-124.25a12.05,12.05,0,1,1,24-2.15C1250.41,1428.89,1250.42,1429.14,1250.43,1429.35Z" fill="#e79d80"/><path d="M1234.65,1523.15c1,10.84,1.8,20.09,2.32,25.87a26.47,26.47,0,0,0,6.08,2.13,25.19,25.19,0,0,0,11.48-.1c-.13-5-.46-15.29-.88-27.83a26.84,26.84,0,0,0-4.24-1.31A24,24,0,0,0,1234.65,1523.15Z" fill="#ce623f"/><path d="M1344.74,1373.52a26.52,26.52,0,0,0-36.23-9.78l-78.22,45a22.07,22.07,0,0,0-6.17,5.33,20.83,20.83,0,0,0-6.54,17.56l11.68,106.18c1.92,14.4,33.6,10.25,33.59-2.42l-3.11-91.7,72.86-32.7a24.92,24.92,0,0,0,2.36-1.2A26.53,26.53,0,0,0,1344.74,1373.52Z" fill="url(#linear-gradient-11)"/><path d="M1366,1250.24v83.15c-.42,1.93-.86,3.87-1.3,5.8-1.2,5.16-2.47,10.29-3.8,15.28-1,3.93-2.12,7.78-3.23,11.49-3.68,12.36-7.62,23.26-11.44,31l0,.06h0l0,.07c-.85,1.7-1.7,3.25-2.54,4.63l-.06.1a21.52,21.52,0,0,1-4.9,6s0-.21-.05-.6a34.12,34.12,0,0,0-1.86-7.73c-.35-1-.77-2-1.26-3a30.49,30.49,0,0,0-18.47-16.33h0a39.15,39.15,0,0,0-5.81-1.45c-1.13-.19-2.31-.35-3.54-.46s-2.7-.21-4.14-.23q-3.06,0-5.86-.23h0a93.42,93.42,0,0,1-11.27-1.33c-.79-.15-1.57-.31-2.32-.47a60.8,60.8,0,0,1-5.88-1.57l-.32-.11h0a44.37,44.37,0,0,1-5.42-2.14l-.2-.09c-1-.47-1.89-1-2.75-1.45l-.18-.11-.49-.29a30.12,30.12,0,0,1-3.36-2.38,24.78,24.78,0,0,1-3.2-3.07,22.14,22.14,0,0,1-2.11-2.87,18.12,18.12,0,0,1-2.62-7.46,1.27,1.27,0,0,1,.23-.75,9.89,9.89,0,0,1,1.76-2.07c1.19-1.14,2.84-2.5,4.73-4,8.36-6.43,21.54-14.75,21.54-14.75s-.24-4.36-.55-11c-.15-3.08-.31-6.64-.47-10.48,0-1.29-.1-2.61-.16-4l-.06-1.7c0-.62,0-1.24-.08-1.87,0-.11,0-.23,0-.34-.25-7.08-.46-14.55-.55-21.31-.05-4.58,0-8.83,0-12.41v0c0-1.16.07-2.25.12-3.25a23.51,23.51,0,0,1,.27-2.57v0a21.73,21.73,0,0,1,.52-2.35,21,21,0,0,1,1.73-4.35l0-.06h0a25.55,25.55,0,0,1,6-7.36l0,0a40.72,40.72,0,0,1,11.77-6.87,54.76,54.76,0,0,1,5.81-1.91h0c1-.27,2-.51,3-.72,0,0,0,0,0,0,1.2-.26,2.39-.48,3.55-.65l1.37-.18h0c1.37-.18,2.7-.3,4-.36s2.88-.1,4.48-.09h.79l2.77.09c1.37.07,2.79.16,4.24.3.58,0,1.16.1,1.75.17,2.43.27,4.93.63,7.42,1.13l.89.17c1.47.31,2.94.65,4.39,1l.21.06q1.25.33,2.46.72h0A42.34,42.34,0,0,1,1366,1250.24Z" fill="url(#linear-gradient-12)"/><path d="M1325.18,1261.11c-.5,0-1,0-1.48,0a15.43,15.43,0,0,1-13.32-8.9c-1.66-3.65-1.56-7.38.27-9.73,2.27-2.91,12.17-3.34,17.87-3.34s24.63.47,24.94,6.55c.08,1.65-.76,3.41-2.52,5.26C1346.28,1255.82,1335.1,1261.11,1325.18,1261.11Z" fill="#80e1ab"/><path d="M1311.92,1243c3.38-4.34,39.64-3.44,39.94,2.31.27,5.34-15.5,14.43-28.08,13.73C1313,1258.41,1308.54,1247.3,1311.92,1243Z" fill="#e79d80"/><path d="M1318.29,1226.33c3.33,3.9,2.22,10.31-2.46,14.3s-11.19,4.06-14.52.16-2.22-10.31,2.47-14.31S1315,1222.42,1318.29,1226.33Z" fill="#4a699d"/><path d="M1309.89,1241.11a5.36,5.36,0,0,1-4.19-1.75c-2.18-2.55-1.23-6.94,2.1-9.77a9.15,9.15,0,0,1,5.79-2.28,5.33,5.33,0,0,1,4.19,1.76c2.18,2.55,1.23,6.93-2.1,9.77A9.12,9.12,0,0,1,1309.89,1241.11Z" fill="#405a87"/><path d="M1339.4,1208.53l-25.64,2.87s8.77,20.72,1.84,42.33l30.57-1.56C1338.31,1219.7,1339.4,1208.53,1339.4,1208.53Z" fill="#e79d80"/><path d="M1313.76,1211.4a69.62,69.62,0,0,1,4.23,30.52c6.49,4.1,19.79-1.75,23.75-10.6-3-16.58-2.34-22.79-2.34-22.79Z" fill="#ce623f"/><path d="M1320.47,1171c39.47-3.52,24.52,65-2.84,66.14C1295.22,1238,1285.23,1174.12,1320.47,1171Z" fill="#e79d80"/><path d="M1350,1188a17.61,17.61,0,0,0-3.07-7.53c2.67-9-4.83-12.21-11.07-12.22-9.37,0-13.57-.65-19.57-2.29s-12.69-6.86-18.6-6.25c-9,.93-9.62,12.06-4.82,19,2.93,4.24,9.32,13,24.6,7.53,11.29-4,17.37-2.73,17.76-1.54a2.89,2.89,0,0,1-1.49,3.35c-4.5,2.59-4.43,8.75-.92,10.91,2.16,1.34,4.09,4.75,7.07,2.48l.08,17.61c2-.75,4.5-6.08,5.94-12.46a50.62,50.62,0,0,0,1.14-10.9C1347.06,1194.21,1350.53,1191.67,1350,1188Z" fill="url(#linear-gradient-13)"/><path d="M1342.16,1197.65c6.15,5-2.88,16.94-8.93,13C1326.45,1206.19,1336,1192.66,1342.16,1197.65Z" fill="#e79d80"/><path d="M1246.1,1567.74a21.62,21.62,0,0,0-13.46-4.87l-.06-1.6a23.07,23.07,0,0,1,14.56,5.24Z" fill="#f9f9ff"/><path d="M1153.46,1553.81l-1.6-.18c.85-7.82-6.87-11.07-7.2-11.2l.61-1.49C1145.36,1541,1154.44,1544.76,1153.46,1553.81Z" fill="#fb7b13"/><path d="M1176.85,1536.48a11.54,11.54,0,0,0-9-5.44l0-1.6a13,13,0,0,1,10.38,6.22Z" fill="#f9f9ff"/><path d="M1172.86,1539.08a11.64,11.64,0,0,0-9-5.44l0-1.6a13,13,0,0,1,10.38,6.22Z" fill="#f9f9ff"/><path d="M1168.86,1541.68a11.55,11.55,0,0,0-9-5.43l0-1.61a13.06,13.06,0,0,1,10.38,6.23Z" fill="#f9f9ff"/><path d="M1324.11,1408.41c-4.28-4.05-6.49-8.33-6.56-12.7a14.42,14.42,0,0,1,3.75-9.73l1.14,1.13a13.06,13.06,0,0,0-3.28,8.59c.07,3.93,2.11,7.81,6,11.54Z" fill="#87a3ce"/><rect x="1256.08" y="1438.32" width="1.61" height="6.87" transform="translate(-638.98 1695.01) rotate(-56.53)" fill="#294a82"/><rect x="1253.7" y="1443.24" width="9.2" height="1.61" transform="translate(-438.67 555.85) rotate(-21.3)" fill="#294a82"/><rect x="1182.34" y="1419.68" width="15.73" height="1.61" transform="translate(-254.57 259.89) rotate(-11.27)" fill="#294a82"/><rect x="1186.9" y="1414.6" width="1.61" height="8.08" transform="translate(-616.3 1829.46) rotate(-62.89)" fill="#294a82"/><path d="M1309.18,1218.94c-4-.34-4.06-13.85-4-16.55h1.09c0,6.3.87,15.26,3,15.45Z" fill="#df696e"/><rect x="1226.49" y="1438.96" width="9.68" height="0.8" transform="translate(-657.11 1291.99) rotate(-44.99)" fill="#87a3ce"/><rect x="1224.15" y="1444.01" width="12.42" height="0.8" transform="translate(-660.97 1292.78) rotate(-44.99)" fill="#87a3ce"/><rect x="1230.68" y="1436.44" width="0.8" height="11.66" transform="translate(-659.27 1292.93) rotate(-45)" fill="#87a3ce"/><rect x="1152.2" y="1397.98" width="9.68" height="0.8" transform="translate(-649.91 1227.69) rotate(-45)" fill="#93b2e0"/><rect x="1149.86" y="1403.03" width="12.42" height="0.8" transform="translate(-653.77 1228.49) rotate(-45)" fill="#93b2e0"/><rect x="1156.39" y="1395.46" width="0.8" height="11.66" transform="translate(-652.04 1228.39) rotate(-45)" fill="#93b2e0"/><path d="M1321.9,1203.13c-5.44-3-7.86-.3-8-.19l-1.27-1.08c.13-.16,3.33-3.83,10-.2Z" fill="#76598f"/><path d="M1304,1203a3.84,3.84,0,0,0-2.89-1.31,3.45,3.45,0,0,0-2.18,1.21l-1.33-1A5.1,5.1,0,0,1,1301,1200a5.41,5.41,0,0,1,4.18,1.77Z" fill="#76598f"/><path d="M1316.77,1206.82a3.66,3.66,0,0,1-3.38-1.62l.74-.39c0,.09,1.25,2.15,5.46.59l.29.79A9,9,0,0,1,1316.77,1206.82Z" fill="#76598f"/><path d="M1302,1207.52a3.66,3.66,0,0,1-3.38-1.62l.74-.39c.05.08,1.25,2.15,5.46.59l.29.78A9,9,0,0,1,1302,1207.52Z" fill="#76598f"/><path d="M1334.05,1203.75l-1-.48c.09-.2,2.4-4.81,5.74-5.11l.09,1.09C1336.18,1199.49,1334.07,1203.71,1334.05,1203.75Z" fill="#df696e"/><path d="M1314.05,1232.1l-.57-.94a6.23,6.23,0,0,1,4.78-.55l-.34,1A5.11,5.11,0,0,0,1314.05,1232.1Z" fill="#df696e"/><path d="M1335.91,1400l-1.45-2.86s5.36-2.77,7.79-7.33l2.83,1.51C1342.17,1396.76,1336.16,1399.84,1335.91,1400Z" fill="#80e1ab"/><path d="M1344.2,1195.9a5.15,5.15,0,0,0-4.18-2.32c-1.17-.18-2.28-.34-2.83-1.49s.42-2.23,1.47-3.3c1.23-1.27,2.63-2.71,2.11-4.84-.69-2.8-4.09-2.36-6.82-2a14.77,14.77,0,0,1-2.46.19,6.5,6.5,0,0,1-2.92-1.17,9.36,9.36,0,0,0-6.65-1.64,13.6,13.6,0,0,0-5,2c-3,1.7-6.41,3.62-13.09,2.55-12.26-2-12-16.33-12-16.47l.8,0c0,.56-.25,13.8,11.3,15.66,6.41,1,9.68-.83,12.58-2.46a14.1,14.1,0,0,1,5.27-2.1,10.22,10.22,0,0,1,7.16,1.75,5.86,5.86,0,0,0,2.56,1.06,14.36,14.36,0,0,0,2.3-.19c2.89-.37,6.84-.89,7.71,2.61.63,2.56-1,4.24-2.32,5.59-1,1.05-1.63,1.72-1.31,2.39s1,.87,2.22,1a5.91,5.91,0,0,1,4.74,2.68Z" fill="#af82d4"/><path d="M1332.13,1180.05l-.66,0c-1.52-.16-2.9-1.32-4.35-2.55-1.93-1.62-4.12-3.47-7.18-3.52h-.11c-2.52,0-5.3,1.51-8,3-3.09,1.68-6.28,3.42-9.29,3-5.77-.74-6.54-8.75-6.57-9.09l.8-.07c0,.08.74,7.71,5.88,8.36,2.75.35,5.82-1.33,8.8-3,2.82-1.54,5.74-3.15,8.49-3.08,3.35.06,5.65,2,7.69,3.72,1.41,1.19,2.64,2.23,3.92,2.36a7.09,7.09,0,0,0,3.73-.79,7.77,7.77,0,0,1,4.84-.76l-.15.79a6.94,6.94,0,0,0-4.39.72A8.73,8.73,0,0,1,1332.13,1180.05Z" fill="#af82d4"/><path d="M1305.47,1307.26a15.24,15.24,0,0,1-.31-3c0-7.87,5.91-14.25,13.19-14.25a12.36,12.36,0,0,1,3.81.61l13.52-13.52a28.88,28.88,0,0,0-17.33-5.83c-16.87,0-30.55,14.77-30.55,33a34.76,34.76,0,0,0,4.16,16.56Z" fill="#f8f8ff" opacity="0.2"/><path d="M1331.24,1301.17a15.22,15.22,0,0,1,.31,3c0,7.88-5.91,14.26-13.2,14.26a12.34,12.34,0,0,1-3.8-.61L1301,1331.38a28.87,28.87,0,0,0,17.32,5.83c16.88,0,30.55-14.77,30.55-33a34.74,34.74,0,0,0-4.15-16.55Z" fill="#f8f8ff" opacity="0.2"/><rect x="1285.79" y="1332.1" width="6.48" height="1.61" fill="#579974"/><path d="M1366,1267v91a12.11,12.11,0,0,1-7.9-9.32l-1.15-6.85-3-18.1-.33-1.94-.24-1.41-.31-1.84-2.5-14.87-1.85-11-1.45-8.6a15.07,15.07,0,0,1,18.78-17Z" fill="#e79d80"/><path d="M1366,1290v34.56c-1,.08-2,.12-3,.12a40,40,0,0,1-9.06-1l-.33-1.94-.23-1.41h0l-.3-1.84h0l-2.5-14.87-1.85-11a37.63,37.63,0,0,1,14.29-2.71C1364,1289.9,1365,1289.94,1366,1290Z" fill="#ce623f"/><path d="M1366,1255.25v63c-5,1.55-10,2.46-12.66,2h0c-1.2-.18-1.94-.63-2-1.41l-.09-.54-.56-3.28-1.74-10.17h0l-.22-1.3-1.83-10.75-.17-1-3.43-20.11a16.05,16.05,0,0,1,22.75-16.52Z" fill="#00ce8c"/><path d="M1366,1316.44v3.4a43.31,43.31,0,0,1-12.18,1.88h-.25a20.32,20.32,0,0,1-3.12-.21l.52-3.17.23,0a16.12,16.12,0,0,0,1.82.11h0A40.86,40.86,0,0,0,1366,1316.44Z" fill="#80e1ab"/><path d="M1340.12,1249.22c-4.34,1.18-8.64,0-11.22-3a10.1,10.1,0,0,1-2.13-8.43,13.85,13.85,0,0,1,4.78-8.13,14.44,14.44,0,0,1,5.56-3c4.34-1.18,8.64,0,11.21,3a10.07,10.07,0,0,1,2.14,8.43,14,14,0,0,1-4.78,8.14A14.55,14.55,0,0,1,1340.12,1249.22Z" fill="#4a699d"/><path d="M1312.53,1225.34a9.94,9.94,0,0,1-3.53-.59l.41-1a10.3,10.3,0,0,0,10-2.06l.69.84A11.67,11.67,0,0,1,1312.53,1225.34Z" fill="#df696e"/><path d="M1349.07,1230.19c3.33,3.91,2.23,10.31-2.46,14.31s-11.19,4.06-14.51.16-2.23-10.31,2.46-14.31S1345.74,1226.29,1349.07,1230.19Z" fill="url(#linear-gradient-14)"/><path d="M1341.55,1242.49c-1.91.52-3.69.15-4.63-1a3.93,3.93,0,0,1-.7-3.18,7.57,7.57,0,0,1,2.62-4.33,8.06,8.06,0,0,1,3.08-1.66c1.91-.52,3.69-.15,4.63,1a3.89,3.89,0,0,1,.7,3.18,7.55,7.55,0,0,1-2.61,4.33A8.1,8.1,0,0,1,1341.55,1242.49Z" fill="#3a5a91"/><path d="M1342.83,1239.54a2.4,2.4,0,0,1-1.8-4c.06-.07,5.32-6.06,4.89-11.47a6.84,6.84,0,0,0-2.71-4.91,2.41,2.41,0,0,1,3.06-3.73,11.56,11.56,0,0,1,4.46,8.28c.58,7.47-5.83,14.73-6.1,15A2.42,2.42,0,0,1,1342.83,1239.54Z" fill="#3a5a91"/><path d="M1280.07,1373.8a.81.81,0,0,1-.76-.54.8.8,0,0,1,.5-1c.17-.06,16.69-5.78,20.5-14,1.86-4,.1-9.32-1.77-14.94-1.72-5.19-3.5-10.55-2.71-15.6,1.05-6.68,4-10.82,7.34-15.62,4.22-6,9-12.76,12-26.73,1.45-6.77,2.68-16.7,3.8-26.43a18.12,18.12,0,0,1,10.29-14.67.81.81,0,0,1,.61,1.49,16.48,16.48,0,0,0-9.3,13.36c-1.13,9.77-2.37,19.75-3.83,26.59-3,14.28-8.13,21.51-12.22,27.32-3.27,4.63-6.08,8.63-7.07,14.94-.73,4.66,1,9.84,2.65,14.85,2,5.93,3.83,11.53,1.69,16.12-4.09,8.81-20.72,14.57-21.43,14.81A.75.75,0,0,1,1280.07,1373.8Z" fill="#4a699d"/><rect x="1348.02" y="1292.68" width="1.61" height="22.55" transform="translate(-191.99 233.67) rotate(-9.25)" fill="#4ab87a"/><polygon points="1265.13 1395.94 1324.97 1377.73 1324.97 1374.52 1242.9 1361.76 1172.16 1378 1172.16 1381.56 1265.13 1395.94" fill="#308bad"/><polygon points="1265.13 1392.72 1324.97 1374.52 1242.9 1358.55 1172.16 1378 1265.13 1392.72" fill="#56abcb"/><polygon points="1194.95 1376.73 1243.09 1363.49 1305.03 1375.55 1264.79 1387.79 1194.95 1376.73" fill="#fafaff"/><polygon points="1172.16 1378 1172.16 1381.56 1265.13 1395.94 1265.13 1392.72 1172.16 1378" fill="url(#linear-gradient-15)"/><path d="M1316,1372.28s-1.73,3-4.14,3.83a35.39,35.39,0,0,1-15.08.92c-6.67-1-8.42-1.34-8.42-1.34l-4,.14s-8.39,4.39-10.17,5.22-3.55-.94-1.27-2.66,9.83-7.39,9.83-7.39-11.72,8-14.06,9.39-4.33-.73-2.83-2.39a3.73,3.73,0,0,1-1.69,1c-1.05.27-2.67-1.31-.53-3.31s5.28-4.72,5.28-4.72a2.9,2.9,0,0,1,.41-2.35c.79-1.17,3.92-6.21,5-6.83s6.54-1.71,8.5-2.21,3.29-1.58,5.21-1.58,9.41,2.33,14.75,3.16,20.83-3.83,20.83-3.83l5.08,12.42Z" fill="#e79d80"/><polygon points="1282.75 1371.1 1282.72 1370.9 1290.47 1369.76 1290.5 1369.96 1282.75 1371.1" fill="#df696e"/><path d="M1265.53,1378.43l-.14-.14c2.07-2.11,11.92-10.81,13-11.19s7.9-1.38,8.19-1.42l0,.2c-.07,0-7.09,1-8.15,1.41S1267.55,1376.38,1265.53,1378.43Z" fill="#df696e"/><path d="M1269,1371.07l-.13-.15c.05,0,4.62-4.12,7.16-5.23a82.31,82.31,0,0,1,8.34-2.68l.05.2a80,80,0,0,0-8.31,2.66C1273.57,1367,1269,1371,1269,1371.07Z" fill="#df696e"/><path d="M1275.36,1364.12a2.41,2.41,0,0,1-1.31-2.21h.2a2.16,2.16,0,0,0,1.2,2Z" fill="#df696e"/><path d="M1280,1369.94a4.57,4.57,0,0,1-1.84-2.64l.2,0a4.41,4.41,0,0,0,1.76,2.52Z" fill="#df696e"/><path d="M1284.26,1374.24a3.6,3.6,0,0,0-1.69-3.06l.09-.18a3.78,3.78,0,0,1,1.8,3.23Z" fill="#df696e"/><path d="M1273.82,1380.33l-.11-.17c.43-.3,1.54-1.22,1.58-1.81a.37.37,0,0,0-.12-.31c-.34-.31-1,0-1.4.35a8.18,8.18,0,0,0-1,.84l-.14-.13a6.58,6.58,0,0,1,1-.87c.75-.55,1.31-.66,1.66-.33a.56.56,0,0,1,.18.46C1275.44,1379.17,1273.89,1380.28,1273.82,1380.33Z" fill="#df696e"/><path d="M1296.73,1372.07h-.2c0-.38-.64-1.15-4-2.66-1.35-.61-1.7-2.07-2-3.48l-.15-.62a6.39,6.39,0,0,1-.16-1.26,2.94,2.94,0,0,0-1.82-2.9,2.3,2.3,0,0,1-1.34-1.59,2,2,0,0,1,.55-1.58l.14.14a1.83,1.83,0,0,0-.49,1.41,2.15,2.15,0,0,0,1.24,1.45,3.1,3.1,0,0,1,1.91,3.06,6.82,6.82,0,0,0,.16,1.22c.06.21.11.42.16.62.34,1.43.66,2.77,1.93,3.35C1295.48,1370.51,1296.77,1371.41,1296.73,1372.07Z" fill="#df696e"/><path d="M1314,1374.82l-.14-.14a18.13,18.13,0,0,0,3.17-4.86l.18.08A18.13,18.13,0,0,1,1314,1374.82Z" fill="#df696e"/><path d="M1267.18,1379.82l-.14-.17s1.5-1.26,1.54-2.07a.43.43,0,0,0-.12-.35.42.42,0,0,0-.33-.14h0c-.8,0-2.06,1.45-2.08,1.47l-.16-.14c.06-.07,1.35-1.53,2.24-1.54a.64.64,0,0,1,.51.2.67.67,0,0,1,.18.51C1268.75,1378.49,1267.25,1379.76,1267.18,1379.82Z" fill="#df696e"/><path d="M1264.35,1378.25l-.16-.16s1.39-1.37,1.4-2.27a.58.58,0,0,0-.17-.44.41.41,0,0,0-.33-.12c-.84.06-2.16,1.83-2.18,1.85l-.17-.13c.06-.08,1.4-1.87,2.33-1.93a.62.62,0,0,1,.51.18.8.8,0,0,1,.22.6C1265.8,1376.81,1264.4,1378.19,1264.35,1378.25Z" fill="#df696e"/><polygon points="1268.01 1391.85 1265.13 1392.72 1174.69 1376.11 1148.27 1300.31 1150.81 1298.41 1243.79 1313.14 1268.01 1391.85" fill="#308bad"/><polygon points="1265.13 1392.72 1172.16 1378 1148.27 1300.31 1241.25 1315.03 1265.13 1392.72" fill="url(#linear-gradient-16)"/><path d="M1366,1338.84v24.9c-2.53.8-5.32,1.53-8.33,2.22-4.85,1.1-10.29,2.08-16.2,3-7.83,1.25-16.48,2.42-25.67,3.75h-.15l-.24,0-.81.12-.64.09,0-.2-.12-.45-2.53-10-.47-1.85,0-.13c6.39-2.35,18.18-7.22,27.51-11.05,6.82-2.8,13.11-5.5,18.68-7.57,2.77-1,5.36-1.91,7.75-2.57Z" fill="#e79d80"/><path d="M1244.07,1571.89a21.51,21.51,0,0,0-13.46-4.86l-.06-1.61a23,23,0,0,1,14.56,5.25Z" fill="#f9f9ff"/><path d="M1241.13,1576a21.61,21.61,0,0,0-13.45-4.86l-.06-1.61a23,23,0,0,1,14.55,5.25Z" fill="#f9f9ff"/><path d="M1235.81,1588.72c-11.79-10.46-18-8.6-18.11-8.59l-.52-1.51c.29-.11,7.08-2.29,19.7,8.89Z" fill="#fb7b13"/><path d="M65.05,639.13c-3.41,3.42-4.87,3.1-13.59,2.5-7.26-.49-13.68,3-12.31,12.45s4.17,16.34.8,21.63-3.49,13.34-2.51,18.68c1.27,7,3.12,18.52,8.08,16.87S54,695,55,691.38s11.29-26,12.55-29l9.46-12.64Z" fill="url(#linear-gradient-17)"/><path d="M120.32,614.64s-42.26,37.71-50.7,44.22-19.85-6.25-13.42-13.51L100.77,595a13.9,13.9,0,1,1,20.82,18.41A15.22,15.22,0,0,1,120.32,614.64Z" fill="#d98074"/><path d="M149.32,397.94a14.59,14.59,0,0,1-10.48-4.41L91.42,345a14.64,14.64,0,0,1,20.94-20.46l47.43,48.58a14.63,14.63,0,0,1-10.47,24.86Z" fill="#e79d80"/><path d="M123.55,379.63c3.5,3.28,25.75-19.38,21.22-24l-31.31-32.17A16.18,16.18,0,0,0,90.31,346S120.05,376.34,123.55,379.63Z" fill="#0da5ad"/><path d="M144.48,396.55c-9.28-7.27-.72-23.57,5.74-28.17s37.87-27.76,43.43-33.81l11.58,8.25S162.85,411,144.48,396.55Z" fill="#e79d80"/><path d="M75.31,448.93,71,419.51l-12.15-21S20.75,356.79,23.1,341.9c2.73-17.3,57.15-28.22,77.5-24.86s20.92,30.9,20.92,30.9l23.27,71.7L148,463.06Z" fill="url(#linear-gradient-18)"/><path d="M216.93,335.05c-1.07.05-5.48-.22-5.67-.23l0-.37c.05,0,4.58.28,5.63.23Z" fill="#df696e"/><path d="M215.08,336.27c-.91,0-1.15-1.18-1.15-1.23l.36-.07s.18.92.79.93Z" fill="#df696e"/><path d="M54.27,386c0-6.24.11-39.5.11-39.5a16.18,16.18,0,1,0-32.35.17s-.91,33.31-.51,39.78S54.31,392.22,54.27,386Z" fill="#0eb9c2"/><path d="M72.21,429.33c-.43-9,68.3-22.74,73.18-8.5,3.76,11,6.87,29.78,6.07,39.82s-76.58-4-76.58-4S72.42,433.7,72.21,429.33Z" fill="url(#linear-gradient-19)"/><path d="M157.08,572.17,136.29,453.56a25.24,25.24,0,0,0-.58-2.51,24.17,24.17,0,0,0-46.46,13.37L119,567.8s-52.59,59.42-59.54,68.47S68,664.06,78.31,654.84l72.12-64.57a22.74,22.74,0,0,0,1.69-1.71,19.33,19.33,0,0,0,3.23-5.2A17.67,17.67,0,0,0,157.08,572.17Z" fill="url(#linear-gradient-20)"/><path d="M114.84,544.61c-4.3.74-11.27-1.5-16.38.77-6.36,2.83-5.29,10.17-4.56,18.07s.18,15.15-2.84,20-2.78,13.67-2.47,20.31c.23,4.8,3.39,14.45,7.37,14.62s7.54-12.08,8.65-16.58,1.88-11.15,4.81-15.26,11-19.09,14.41-27.19,10.12-18.51,6.75-21.23S114.84,544.61,114.84,544.61Z" fill="url(#linear-gradient-21)"/><path d="M186.44,519.07s-57,39-66.57,44.31-20.12-10.2-12.08-16.06l61.05-51.65a14.66,14.66,0,1,1,18.95,22.38A15.93,15.93,0,0,1,186.44,519.07Z" fill="#d98074"/><path d="M210.66,486.81c-.06-.19-.11-.37-.17-.55s-.19-.53-.29-.8-.32-.8-.5-1.19l-.1-.21a18.75,18.75,0,0,0-7.49-8.19l-.42-.24-.39-.24-89.75-46.88a27.38,27.38,0,0,0-3-1.34A25.48,25.48,0,1,0,91,475l65.57,24-44.21,40.74c-10.28,7.49,6.32,28.89,16.59,20.59l74.36-52.13a20.24,20.24,0,0,0,2-1.62A19.27,19.27,0,0,0,210.66,486.81Z" fill="url(#linear-gradient-22)"/><path d="M54.12,386c0,.46-.36.93-1,1.36-2.31,1.44-8.2,2.56-15.11,2.77-6,.17-11.34-.42-14.17-1.46-1.38-.51-2.17-1.1-2.18-1.77s.77-1.33,2.16-1.9c2.78-1.17,8-2.05,14-2.21,7-.19,12.94.63,15.28,2C53.73,385.11,54.11,385.53,54.12,386Z" fill="#0b8d94"/><path d="M53.05,384.72l0,2.62.15,28.41a14.66,14.66,0,0,1-13.94,14.7c-.2,0-.42,0-.62,0A14.65,14.65,0,0,1,23.93,415.9l-.14-27.25,0-3.67c2.78-1.17,8-2.05,14-2.21C44.73,382.58,50.71,383.4,53.05,384.72Z" fill="#e79d80"/><rect x="41.2" y="372.18" width="26.05" height="1.54" transform="translate(-319.16 424.14) rotate(-89.53)" fill="#0da5ad"/><path d="M93.29,455.9l-.74-1.36c14.54-7.89,8-20.65,7.72-21.19l1.36-.72C101.71,432.77,109.15,447.28,93.29,455.9Z" fill="#214d91"/><path d="M88.36,247.26s8.11,5.42,5.12,13.48-9.86,5.82-9.86,5.82l-.14-18.44Z" fill="url(#linear-gradient-23)"/><path d="M55,286.91l26.19-2.72s-4.23,22.57,7.39,42.61L61.8,331.22s-4-3-4-4.77C58.09,296.63,55,286.91,55,286.91Z" fill="#e79d80"/><path d="M81.14,284.19a71.05,71.05,0,0,0,2.43,31.36c-5.58,5.5-20.11,2.56-26-5.4C56.91,293,55,286.91,55,286.91Z" fill="#ce623f"/><path d="M65.65,245.33c-40.13,5.09-9.79,71.8,20.56,63.41C100.22,304.86,101.47,240.79,65.65,245.33Z" fill="#e79d80"/><path d="M39.94,268.75a17.88,17.88,0,0,1,1.42-8.18c-4.62-8.36,2.15-13.23,8.38-14.59,9.34-2,13.39-3.61,19-6.55s11.16-9.61,17.18-10.29c9.22-1,12.22,9.93,8.95,17.88-2,4.86-6.47,15-22.89,12.87-12.13-1.54-17.92,1.06-18,2.33a3,3,0,0,0,2.21,3c5.05,1.6,6.32,7.76,3.29,10.68-1.86,1.8-1.37,5.38-4.84,3.77l2.09,17.82c-7.58-5.9-10.91-15.9-12.15-21.76C44.24,274.28,40.18,272.52,39.94,268.75Z" fill="url(#linear-gradient-24)"/><path d="M49.83,276.66c-5,6.32,6.56,16.26,11.73,11C67.35,281.75,54.88,270.34,49.83,276.66Z" fill="#e79d80"/><path d="M59.25,281l.87-.7c-.14-.17-3.45-4.27-6.84-3.85l.14,1.11C56.19,277.19,59.22,280.94,59.25,281Z" fill="#df696e"/><path d="M71.94,274.19,71,273c.2-.14,4.84-3.57,10.3-2.85l-.2,1.53C76.28,271,72,274.15,71.94,274.19Z" fill="#ff4e3b"/><path d="M89,270.24l-1.17-1c.08-.09,1.82-2.06,5.6-1L93,269.75C90.18,268.94,89,270.18,89,270.24Z" fill="#ff4d3b"/><path d="M89.62,286.79l-.73-.25c.54-1.52-1.87-10.25-3.63-15.74l.74-.24C86.45,272,90.41,284.54,89.62,286.79Z" fill="#df696e"/><path d="M85.53,294.23a13.9,13.9,0,0,1-5.61-1.31l.35-.69c.07,0,6.92,3.47,11-1.31l.58.5A7.88,7.88,0,0,1,85.53,294.23Z" fill="#df696e"/><path d="M53.68,267.88a4.58,4.58,0,0,0-.88-1.19c-1.14-1.3-2.86-3.27-1.78-5.89,1.2-2.94,6.56-3.1,13.36-3.3,5.68-.17,12.13-.36,18-2.12,12.47-3.74,8.8-21.4,8.76-21.57l.76-.17c0,.19,3.85,18.54-9.3,22.48-6,1.78-12.47,2-18.2,2.15-6.51.19-11.66.35-12.67,2.82-.9,2.18.52,3.8,1.65,5.09a4.87,4.87,0,0,1,1,1.46Z" fill="#ff8351"/><path d="M48.67,257.36l-.73-.26c1.16-3.23,7.08-3.21,14.54-3.22,5.83,0,12.45,0,17.75-1.61,8.5-2.61,7.13-14.66,7.12-14.78l.76-.1c0,.13,1.46,12.82-7.65,15.61-5.42,1.66-12.1,1.65-18,1.65C55.59,254.64,49.64,254.64,48.67,257.36Z" fill="#ff8351"/><path d="M31.42,428.12c-8.81-7.83.73-23.57,7.46-27.77S78.39,375,84.31,369.28l11,9S48.87,443.63,31.42,428.12Z" fill="#e79d80"/><path d="M80.41,275.14a1.52,1.52,0,1,1-1.59-1.44A1.52,1.52,0,0,1,80.41,275.14Z" fill="#76598f"/><path d="M92.52,273.73a1.52,1.52,0,1,1-1.59-1.45A1.52,1.52,0,0,1,92.52,273.73Z" fill="#76598f"/><rect x="199.1" y="490.22" width="6.51" height="0.54" transform="translate(-296.62 310.06) rotate(-47.7)" fill="#87a3ce"/><rect x="197.68" y="493.65" width="8.35" height="0.54" transform="translate(-299.31 310.81) rotate(-47.7)" fill="#87a3ce"/><rect x="202.01" y="488.53" width="0.54" height="7.84" transform="translate(-298.1 310.66) rotate(-47.7)" fill="#87a3ce"/><polygon points="156.98 499.69 156.11 498.42 162.23 494.23 163.1 495.5 156.98 499.69" fill="#163366"/><rect x="156.91" y="492.86" width="1.54" height="5.33" transform="translate(-23.16 7.97) rotate(-2.7)" fill="#163366"/><path d="M53.07,387.34l0-2.62c-2.34-1.32-8.32-2.14-15.28-2-6,.16-11.22,1-14,2.21v2.36a45.1,45.1,0,0,0,13.66,3.91,43.91,43.91,0,0,0,15.65-.64Z" fill="#ce623f"/><path d="M74.47,379.36s8.38-8.4,9.47-10.12,6.09-18.1,7.3-19.59,18.61-11.9,20.8-13.15,2,1.47-1.28,4.36-9.31,7.05-9.31,7.05,6.18-1.35,8-1.81,11.73-.91,13.3-1.13.2,2.44-4.08,3.31a31.24,31.24,0,0,1,5,1.06c.55.24.55,2.38-5.09,2.57a25.41,25.41,0,0,0-5.14,1.15l-9.34,4.88s13.38-2.77,15.11-3,1.68,2.68-4.42,4.48-10.53,4.13-11.18,5.69-3.52,10-5.77,12-9.42,5-11,7.15-6.49,7.21-6.49,7.21Z" fill="#e79d80"/><path d="M100.69,353.48l-.22-.52c.31-.13,7.5-3.13,9-3.49s8.8-1.42,9.11-1.46l.08.55c-.08,0-7.6,1.09-9.06,1.45S100.76,353.45,100.69,353.48Z" fill="#df696e"/><path d="M111.38,338.26a1.07,1.07,0,0,1-.32-.05.62.62,0,0,1-.36-.33c-.3-.71,1-1.48,1.51-1.78l.27.49c-.77.42-1.32.94-1.27,1.07a2.79,2.79,0,0,0,1.55-.42l.26.5A4.42,4.42,0,0,1,111.38,338.26Z" fill="#df696e"/><path d="M121.37,346.52a1.38,1.38,0,0,1-.82-.21.63.63,0,0,1-.26-.51c0-.79,1.38-1,1.67-1l.07.56c-.59.07-1.19.31-1.18.47a.08.08,0,0,0,0,.08,2.15,2.15,0,0,0,1.26,0l.13.54A3.94,3.94,0,0,1,121.37,346.52Z" fill="#df696e"/><path d="M122.67,350.72c-.55-.12-1.82-.49-1.74-1.19s1.41-.71,2.2-.66l0,.55a3.14,3.14,0,0,0-1.62.2,2.89,2.89,0,0,0,1.31.56Z" fill="#df696e"/><path d="M118.17,356.61a1.31,1.31,0,0,1-.71-.16.6.6,0,0,1-.28-.41.86.86,0,0,1,.16-.66,2.48,2.48,0,0,1,1.53-.7l.07.55a2,2,0,0,0-1.15.48.29.29,0,0,0-.06.24,2.47,2.47,0,0,0,1.46-.06l.15.54A4.73,4.73,0,0,1,118.17,356.61Z" fill="#df696e"/><path d="M111.28,351.79l-.56,0a3.46,3.46,0,0,0-.46-2.05l.46-.31A4,4,0,0,1,111.28,351.79Z" fill="#df696e"/><path d="M100.66,362.6l-.56-.06a7.06,7.06,0,0,0-1.54-5.6c-.11-.14-.3-.33-.52-.56-.92-1-2.45-2.56-2.85-4.27A1.57,1.57,0,0,0,94.4,351a2.75,2.75,0,0,0-2,.09l-.22-.51a3.23,3.23,0,0,1,2.42-.08A2.14,2.14,0,0,1,95.74,352c.36,1.56,1.83,3.1,2.7,4,.24.25.44.46.55.6A7.57,7.57,0,0,1,100.66,362.6Z" fill="#df696e"/><path d="M206.58,351.77l-24.1,1.14c-2.16.1-3.87-2.57-3.48-5.41l6.06-43.41c.28-2,1.54-3.45,3.05-3.52l24.1-1.14c2.16-.1,3.88,2.57,3.48,5.41l-6.06,43.41C209.35,350.25,208.09,351.7,206.58,351.77Z" fill="url(#linear-gradient-25)"/><path d="M221.08,315.38c-1.24-2.44-3.94-1.12-5.74-.15a32.74,32.74,0,0,0-4.48,2.87c-1.22,1.06-.75,3.65,2.37,2.89S222.35,317.9,221.08,315.38Z" fill="#e79d80"/><path d="M216.08,320.35a58,58,0,0,0-8.91,4.39c-2,1.24-.78,4,.67,3.62s8.85-3.19,8.85-3.19,1.2.91,1.65.69,1.44-4.64.29-5.36A3.13,3.13,0,0,0,216.08,320.35Z" fill="#e79d80"/><path d="M210.54,340.81s8.8-5.3,8.81-7.41-.74-2.62-.74-2.62a3.89,3.89,0,0,0,.67-2.94c-.38-1.54-.8-2.93-2.77-2.39s-10.79,3.59-11.28,3.84c-1.35.68-.83,3.58,1.76,3.15a1.52,1.52,0,0,0,1.21,1.9,19.3,19.3,0,0,0,3.48.3Z" fill="#e79d80"/><path d="M207.05,332.62l-.11-.36c.3-.09,7.37-2.22,9.36-2.47l0,.37C214.38,330.4,207.12,332.59,207.05,332.62Z" fill="#df696e"/><path d="M212.28,320.53l-.2-.31s1.53-1,1.14-1.67a.6.6,0,0,0-.4-.28,2.81,2.81,0,0,0-1.69.62l-.22-.29a3.13,3.13,0,0,1,2-.7.94.94,0,0,1,.65.47C214.12,319.35,212.35,320.48,212.28,320.53Z" fill="#df696e"/><path d="M207.72,327.49l-.16-.32c.5-.26,1.74-1.06,1.47-1.73a.3.3,0,0,0-.22-.2c-.52-.16-1.64.48-2,.74l-.21-.3c.16-.11,1.56-1,2.34-.8a.7.7,0,0,1,.45.42C209.82,326.43,207.81,327.45,207.72,327.49Z" fill="#df696e"/><path d="M206.45,331.83l-.15-.34c.47-.21,1.66-.92,1.51-1.67a.2.2,0,0,0-.11-.14c-.41-.2-1.58.27-2.23.61l-.17-.32c.19-.1,1.86-1,2.55-.63a.56.56,0,0,1,.32.4C208.42,330.94,206.53,331.79,206.45,331.83Z" fill="#df696e"/><path d="M208.77,334.19l0-.36A2.44,2.44,0,0,0,210,333a.49.49,0,0,0,0-.47c-.11-.24-1.16-.07-2,.23l-.12-.35c.5-.17,2.17-.69,2.48,0a.88.88,0,0,1,0,.86A2.78,2.78,0,0,1,208.77,334.19Z" fill="#df696e"/><rect x="36.26" y="394.46" width="21.17" height="1.54" transform="translate(-207.39 89.01) rotate(-32.94)" fill="#cf7d5d"/><polygon points="117.38 575.95 105.96 571.94 106.47 570.49 117.89 574.5 117.38 575.95" fill="#f9fdff"/><rect x="109.65" y="570.7" width="1.54" height="11.14" transform="translate(-471.46 500.87) rotate(-71.77)" fill="#f9fdff"/><rect x="108.36" y="574.15" width="1.54" height="10.71" transform="translate(-475.42 501.83) rotate(-71.77)" fill="#f9fdff"/><path d="M103.58,603.92c-4.4-5.39-14.89-3.52-15-3.5l-.28-1.51c.47-.09,11.49-2.07,16.48,4Z" fill="#ffc382"/><rect x="57.59" y="664.69" width="1.54" height="11.94" transform="translate(-601.59 537.78) rotate(-73.64)" fill="#f9fdff"/><rect x="56.43" y="668.11" width="1.54" height="11.94" transform="translate(-605.7 539.12) rotate(-73.64)" fill="#f9fdff"/><rect x="55.26" y="671.52" width="1.54" height="11.94" transform="translate(-609.84 540.57) rotate(-73.65)" fill="#f9fdff"/><path d="M52.86,697c-3.74-6.49-15.55-4.23-15.67-4.2l-.3-1.51c.53-.11,13-2.51,17.31,4.94Z" fill="#ffa645"/><path d="M40.37,659.51l-.81-1.32c.13-.07,12.42-7.68,14-16.49l1.52.27C53.37,651.47,40.9,659.19,40.37,659.51Z" fill="#ffc382"/><rect x="141.87" y="429.73" width="1.54" height="30.04" transform="translate(-317.61 365.23) rotate(-62.42)" fill="#163366"/><polygon points="57.73 314.7 79.59 328.28 68.65 344.28 53.09 325.04 57.73 314.7" fill="#24d8e0"/><polygon points="79.59 328.28 92.16 336.88 91.28 322.54 83.98 316.75 79.59 328.28" fill="#24d8e0"/><path d="M21.57,387.62l-1.22-2.83c.68-.3,16.9-7.13,34.42-1.11l-1,2.92C37.36,381,21.72,387.55,21.57,387.62Z" fill="#24d8e0"/><path d="M30.69,384.26l-3-.88c1.37-4.59-.62-10.21-.64-10.27l2.9-1C30.08,372.33,32.35,378.71,30.69,384.26Z" fill="#24d8e0"/><path d="M71.25,433.15,70,428.42c.5-.62,10.27-13.66,45.13-15.46,23.11-1.2,29.58,2.46,29.92,2.7l.75,5.38s-7.68-4.88-30.38-3.47C82.81,419.59,71.36,433,71.25,433.15Z" fill="#d69152"/><path d="M117.4,419.77l-2.26-8.88a114.54,114.54,0,0,1,11.59-.24l1.27,8.9A101,101,0,0,0,117.4,419.77Z" fill="#ccebff"/><path d="M82.22,336.74a1.1,1.1,0,1,1-1.09-1.11A1.11,1.11,0,0,1,82.22,336.74Z" fill="#24d8e0"/><rect x="97.69" y="414.09" width="1.54" height="7.87" transform="translate(-113.16 44.32) rotate(-16.27)" fill="#163366"/><rect x="135.46" y="413.3" width="1.54" height="6.79" transform="translate(-63.43 26.4) rotate(-8.99)" fill="#163366"/><rect x="130.08" y="423.27" width="1.54" height="16.51" transform="translate(-67.69 26.66) rotate(-9.25)" fill="#163366"/><path d="M1211.89,56.75H872.23a14,14,0,0,0-14,14V276.5A14,14,0,0,0,870,290.34a14.19,14.19,0,0,0,2.27.18h339.66c.39,0,.78,0,1.16,0h0a14,14,0,0,0,12.58-11.21q.08-.36.12-.72a13.8,13.8,0,0,0,.15-2V70.78A14,14,0,0,0,1211.89,56.75Z" fill="url(#linear-gradient-26)"/><path d="M1211.89,56.75H872.23a14,14,0,0,0-14,14V74a14,14,0,0,1,14-14h339.66a14,14,0,0,1,14,14V70.78A14,14,0,0,0,1211.89,56.75Z" fill="#37b2f9" opacity="0.5"/><rect x="874.27" y="72.82" width="335.57" height="201.64" opacity="0.5" fill="url(#linear-gradient-27)"/><path d="M1292.6,452.2H791.52c-10.71,0-16.18-5.75-12.31-12.66l76.47-136.8c1.9-3.39,9.29-6.08,16.55-6.08h339.66c7.26,0,14.65,2.69,16.54,6.08l76.48,136.8C1308.77,446.45,1303.31,452.2,1292.6,452.2Z" fill="#0b8bfa" opacity="0.5"/><path d="M1305.68,433.86l-25-44.65-21.53-38.5-.88-1.58-1.37-2.46-.82-1.46-5.84-10.44-21.08-37.71c-.91-1.62-2.89-3.09-5.49-4.22a26.3,26.3,0,0,0-3.18-1.12,31.61,31.61,0,0,0-7.56-1.18h0l-1.07,0H872.23c-7.66,0-15.26,2.87-17.31,6.54l-17.32,31L833,336.21l-1.44,2.58-9.3,16.63-6.55,11.72-24.65,44.1-5.24,9.37h0l-7,12.54-.09.17-.3.54c-1.66,3-1.79,6-.35,8.42l0,.05c1.65,2.76,5,4.59,9.59,5.23a24.24,24.24,0,0,0,3.27.25H1292.6c6.43,0,11.31-2,13.39-5.49l0-.05C1307.46,439.82,1307.34,436.83,1305.68,433.86Z" opacity="0.5" fill="url(#linear-gradient-28)"/><path d="M855.31,296.35l-76.48,136.8c-3.86,6.91,1.6,12.66,12.31,12.66h69.32l333.17-155.54H871.85C864.59,290.27,857.2,293,855.31,296.35Z" fill="#37b2f9" opacity="0.5"/><g opacity="0.5"><path d="M884.12,314l-4.06,9c-.21.48.39.87,1.36.87l32.69,0c1,0,1.89-.39,2.06-.87l3.16-9c.16-.45-.47-.82-1.41-.82H886.19A2.46,2.46,0,0,0,884.12,314Z" fill="#0096eb"/><path d="M940.35,323.91H920.64c-1,0-1.61-.39-1.45-.88l3.08-9c.15-.46,1-.83,2-.83h19.12c.94,0,1.59.37,1.47.83l-2.5,9C942.21,323.52,941.32,323.91,940.35,323.91Z" fill="#0096eb"/><path d="M966.59,323.91H946.88c-1,0-1.64-.39-1.51-.88l2.42-9c.12-.46,1-.83,1.92-.83h19.12c.93,0,1.62.37,1.53.83l-1.85,9C968.42,323.52,967.55,323.91,966.59,323.91Z" fill="#0096eb"/><path d="M992.82,323.91h-19.7c-1,0-1.68-.39-1.58-.88l1.76-9c.09-.46.93-.83,1.86-.83h19.12c.94,0,1.65.37,1.59.83l-1.18,9C994.62,323.52,993.79,323.91,992.82,323.91Z" fill="#0096eb"/><path d="M1019.06,323.91H999.35c-1,0-1.7-.39-1.64-.88l1.11-9c.06-.46.86-.83,1.8-.83h19.12c.94,0,1.68.37,1.65.83l-.53,9C1020.83,323.52,1020,323.91,1019.06,323.91Z" fill="#0096eb"/><path d="M1045.3,323.91h-19.71c-1,0-1.73-.39-1.71-.88l.46-9c0-.46.8-.83,1.74-.83h19.12c.94,0,1.7.37,1.71.83l.12,9C1047,323.52,1046.26,323.91,1045.3,323.91Z" fill="#0096eb"/><path d="M1071.53,323.91h-19.7c-1,0-1.76-.39-1.77-.88l-.2-9c0-.46.74-.83,1.68-.83h19.12c.93,0,1.73.37,1.77.83l.77,9C1073.25,323.52,1072.5,323.91,1071.53,323.91Z" fill="#0096eb"/><path d="M1097.77,323.91h-19.71c-1,0-1.78-.39-1.83-.88l-.86-9c0-.46.69-.83,1.62-.83h19.12c.94,0,1.76.37,1.83.83l1.44,9C1099.45,323.52,1098.73,323.91,1097.77,323.91Z" fill="#0096eb"/><path d="M1124,323.91h-19.7c-1,0-1.82-.39-1.9-.88l-1.51-9c-.08-.46.62-.83,1.56-.83h19.12c.94,0,1.78.37,1.89.83l2.09,9C1125.66,323.52,1125,323.91,1124,323.91Z" fill="#0096eb"/><path d="M1150.24,323.91h-19.71c-1,0-1.84-.39-2-.88l-2.16-9c-.11-.46.56-.83,1.5-.83H1147c.94,0,1.81.37,2,.83l2.74,9C1151.87,323.52,1151.21,323.91,1150.24,323.91Z" fill="#0096eb"/><path d="M1176.48,323.91h-19.71c-1,0-1.87-.39-2-.88l-2.82-9c-.15-.46.5-.83,1.43-.83h19.13c.93,0,1.83.37,2,.83l3.41,9C1178.08,323.52,1177.44,323.91,1176.48,323.91Z" fill="#0096eb"/><path d="M1202.71,323.91H1183c-1,0-1.9-.39-2.09-.88l-3.48-9c-.17-.46.44-.83,1.38-.83h19.12c.94,0,1.87.37,2.07.83l4.06,9C1204.29,323.52,1203.68,323.91,1202.71,323.91Z" fill="#0096eb"/><path d="M1222.44,368h-22.13a2.64,2.64,0,0,1-2.38-1.1l-4.37-11.27c-.22-.57.45-1,1.5-1h21.39a2.73,2.73,0,0,1,2.36,1l5.1,11.27C1224.18,367.55,1223.52,368,1222.44,368Z" fill="#0096eb"/><path d="M1193,368h-22.12c-1.09,0-2.12-.49-2.31-1.1L1165,355.67c-.18-.57.53-1,1.58-1H1188a2.55,2.55,0,0,1,2.29,1l4.27,11.27C1194.76,367.55,1194.07,368,1193,368Z" fill="#0096eb"/><path d="M1163.52,368H1141.4c-1.09,0-2.08-.49-2.23-1.1l-2.72-11.27c-.14-.57.6-1,1.65-1h21.39c1,0,2,.46,2.21,1l3.45,11.27C1165.34,367.55,1164.61,368,1163.52,368Z" fill="#0096eb"/><path d="M895.78,337.49H875.33c-1,0-1.62-.42-1.39-.93l4.36-9.66a2.56,2.56,0,0,1,2.16-.89h19.83c1,0,1.6.4,1.41.89L898,336.56C897.76,337.07,896.79,337.49,895.78,337.49Z" fill="#0096eb"/><path d="M923,337.49H902.56c-1,0-1.66-.42-1.46-.93l3.66-9.66c.18-.49,1.12-.89,2.09-.89h19.83c1,0,1.63.4,1.48.89l-3,9.66C925,337.07,924,337.49,923,337.49Z" fill="#0096eb"/><path d="M950.24,337.49H929.79c-1,0-1.69-.42-1.53-.93l3-9.66c.15-.49,1.06-.89,2-.89h19.83c1,0,1.66.4,1.54.89l-2.33,9.66C952.16,337.07,951.24,337.49,950.24,337.49Z" fill="#0096eb"/><path d="M883.8,368H861.68c-1.09,0-1.74-.49-1.47-1.1l5.1-11.27a2.73,2.73,0,0,1,2.36-1h21.39c1.05,0,1.72.46,1.5,1l-4.37,11.27A2.65,2.65,0,0,1,883.8,368Z" fill="#0096eb"/><path d="M913.26,368H891.14c-1.09,0-1.78-.49-1.55-1.1l4.27-11.27a2.55,2.55,0,0,1,2.29-1h21.39c1.05,0,1.75.46,1.58,1l-3.55,11.27C915.38,367.55,914.35,368,913.26,368Z" fill="#0096eb"/><path d="M942.72,368H920.59c-1.08,0-1.81-.49-1.62-1.1l3.44-11.27c.18-.57,1.17-1,2.22-1H946c1.05,0,1.79.46,1.65,1L945,366.94C944.8,367.55,943.81,368,942.72,368Z" fill="#0096eb"/><path d="M977.47,337.49H957c-1,0-1.72-.42-1.6-.93l2.25-9.66c.11-.49,1-.89,2-.89h19.83c1,0,1.69.4,1.61.89l-1.63,9.66C979.35,337.07,978.47,337.49,977.47,337.49Z" fill="#0096eb"/><path d="M1004.58,337.49H984.12c-1,0-1.74-.42-1.66-.93L984,326.9c.07-.49.93-.89,1.9-.89h19.82c1,0,1.72.4,1.67.89l-.92,9.66C1006.43,337.07,1005.58,337.49,1004.58,337.49Z" fill="#0096eb"/><path d="M1031.8,337.49h-20.45c-1,0-1.78-.42-1.73-.93l.84-9.66c0-.49.87-.89,1.84-.89h19.82c1,0,1.75.4,1.74.89l-.22,9.66C1033.63,337.07,1032.81,337.49,1031.8,337.49Z" fill="#0096eb"/><path d="M1059.15,337.49H1038.7c-1,0-1.81-.42-1.8-.93l.13-9.66c0-.49.8-.89,1.77-.89h19.83c1,0,1.78.4,1.8.89l.49,9.66C1061,337.07,1060.16,337.49,1059.15,337.49Z" fill="#0096eb"/><path d="M1086.38,337.49h-20.45c-1,0-1.84-.42-1.87-.93l-.57-9.66c0-.49.73-.89,1.7-.89H1085c1,0,1.8.4,1.87.89l1.19,9.66C1088.14,337.07,1087.38,337.49,1086.38,337.49Z" fill="#0096eb"/><path d="M1113.61,337.49h-20.45c-1,0-1.87-.42-1.94-.93l-1.28-9.66c-.06-.49.67-.89,1.64-.89h19.83c1,0,1.83.4,1.93.89l1.9,9.66C1115.34,337.07,1114.61,337.49,1113.61,337.49Z" fill="#0096eb"/><path d="M1140.84,337.49h-20.45c-1,0-1.91-.42-2-.93l-2-9.66c-.1-.49.6-.89,1.57-.89h19.83c1,0,1.86.4,2,.89l2.61,9.66C1142.54,337.07,1141.84,337.49,1140.84,337.49Z" fill="#0096eb"/><path d="M1168.07,337.49h-20.46c-1,0-1.93-.42-2.07-.93l-2.69-9.66c-.13-.49.54-.89,1.52-.89h19.82c1,0,1.89.4,2.06.89l3.31,9.66C1169.74,337.07,1169.07,337.49,1168.07,337.49Z" fill="#0096eb"/><path d="M1169.31,326.9l3.39,9.66c.18.51,1.14.93,2.14.93h9.86c1,0,2,.42,2.18.95l4.92,12.7a2.58,2.58,0,0,0,2.28,1h21.26c1,0,1.68-.46,1.43-1l-6.17-13.65-2.07-4.58-2.72-6a2.53,2.53,0,0,0-2.16-.89h-32.89C1169.78,326,1169.13,326.41,1169.31,326.9Z" fill="#0096eb"/><path d="M904.06,352.15H868.78c-1,0-1.68-.46-1.43-1l4.71-10.42a2.64,2.64,0,0,1,2.26-1h34.15c1,0,1.67.43,1.49,1l-3.66,10.42C906.11,351.69,905.1,352.15,904.06,352.15Z" fill="#0096eb"/><path d="M932.36,352.15H911.1c-1,0-1.73-.46-1.54-1l3.57-10.42c.18-.53,1.15-1,2.16-1h20.57c1,0,1.71.43,1.56,1l-2.89,10.42C934.37,351.69,933.4,352.15,932.36,352.15Z" fill="#0096eb"/><path d="M960.66,352.15H939.4c-1,0-1.76-.46-1.61-1l2.81-10.42c.14-.53,1.07-1,2.08-1h20.58c1,0,1.73.43,1.63,1l-2.14,10.42C962.64,351.69,961.7,352.15,960.66,352.15Z" fill="#0096eb"/><path d="M989,352.15H967.7c-1,0-1.8-.46-1.69-1l2-10.42c.1-.53,1-1,2-1h20.58c1,0,1.77.43,1.7,1L991,351.14C990.9,351.69,990,352.15,989,352.15Z" fill="#0096eb"/><path d="M1017.25,352.15H996c-1,0-1.83-.46-1.76-1l1.28-10.42c.07-.53.94-1,2-1H1018c1,0,1.8.43,1.77,1l-.61,10.42C1019.16,351.69,1018.29,352.15,1017.25,352.15Z" fill="#0096eb"/><path d="M1045.55,352.15h-21.26c-1,0-1.86-.46-1.83-1l.53-10.42c0-.53.86-1,1.87-1h20.58c1,0,1.83.43,1.84,1l.14,10.42C1047.43,351.69,1046.59,352.15,1045.55,352.15Z" fill="#0096eb"/><path d="M1073.85,352.15h-21.26c-1,0-1.89-.46-1.91-1l-.23-10.42c0-.53.8-1,1.81-1h20.57c1,0,1.86.43,1.91,1l.91,10.42C1075.69,351.69,1074.89,352.15,1073.85,352.15Z" fill="#0096eb"/><path d="M1102.15,352.15h-21.26c-1,0-1.93-.46-2-1l-1-10.42c-.05-.53.73-1,1.74-1h20.58c1,0,1.89.43,2,1l1.67,10.42C1104,351.69,1103.19,352.15,1102.15,352.15Z" fill="#0096eb"/><path d="M1130.44,352.15h-21.25c-1,0-2-.46-2.06-1l-1.75-10.42c-.09-.53.65-1,1.66-1h20.58c1,0,1.93.43,2.05,1l2.42,10.42C1132.22,351.69,1131.49,352.15,1130.44,352.15Z" fill="#0096eb"/><path d="M1158.74,352.15h-21.25c-1,0-2-.46-2.13-1l-2.52-10.42c-.13-.53.59-1,1.6-1H1155c1,0,2,.43,2.12,1l3.19,10.42C1160.49,351.69,1159.78,352.15,1158.74,352.15Z" fill="#0096eb"/><path d="M1187,352.15h-21.26c-1,0-2-.46-2.2-1l-3.28-10.42c-.16-.53.52-1,1.53-1h20.58c1,0,2,.43,2.19,1l3.94,10.42C1188.75,351.69,1188.08,352.15,1187,352.15Z" fill="#0096eb"/><path d="M1134.2,368H949.92c-1.08,0-1.85-.49-1.71-1.1l2.63-11.27c.14-.57,1.09-1,2.14-1h178.16c1,0,2,.46,2.14,1l2.63,11.27C1136.05,367.55,1135.28,368,1134.2,368Z" fill="#0096eb"/></g><g opacity="0.5"><path d="M884.12,310.53l-4.06,9c-.21.48.39.87,1.36.87l32.69,0c1,0,1.89-.39,2.06-.87l3.16-9c.16-.46-.47-.83-1.41-.83H886.19C885.25,309.7,884.32,310.07,884.12,310.53Z" fill="#75bbff"/><path d="M940.35,320.4H920.64c-1,0-1.61-.39-1.45-.87l3.08-9c.15-.45,1-.82,2-.82h19.12c.94,0,1.59.37,1.47.82l-2.5,9C942.21,320,941.32,320.4,940.35,320.4Z" fill="#75bbff"/><path d="M966.59,320.4H946.88c-1,0-1.64-.39-1.51-.87l2.42-9c.12-.45,1-.82,1.92-.82h19.12c.93,0,1.62.37,1.53.82l-1.85,9C968.42,320,967.55,320.4,966.59,320.4Z" fill="#75bbff"/><path d="M992.82,320.4h-19.7c-1,0-1.68-.39-1.58-.87l1.76-9c.09-.45.93-.82,1.86-.82h19.12c.94,0,1.65.37,1.59.82l-1.18,9C994.62,320,993.79,320.4,992.82,320.4Z" fill="#75bbff"/><path d="M1019.06,320.4H999.35c-1,0-1.7-.39-1.64-.87l1.11-9c.06-.45.86-.82,1.8-.82h19.12c.94,0,1.68.37,1.65.82l-.53,9C1020.83,320,1020,320.4,1019.06,320.4Z" fill="#75bbff"/><path d="M1045.3,320.4h-19.71c-1,0-1.73-.39-1.71-.87l.46-9c0-.45.8-.82,1.74-.82h19.12c.94,0,1.7.37,1.71.82l.12,9C1047,320,1046.26,320.4,1045.3,320.4Z" fill="#75bbff"/><path d="M1071.53,320.4h-19.7c-1,0-1.76-.39-1.77-.87l-.2-9c0-.45.74-.82,1.68-.82h19.12c.93,0,1.73.37,1.77.82l.77,9C1073.25,320,1072.5,320.4,1071.53,320.4Z" fill="#75bbff"/><path d="M1097.77,320.4h-19.71c-1,0-1.78-.39-1.83-.87l-.86-9c0-.45.69-.82,1.62-.82h19.12c.94,0,1.76.37,1.83.82l1.44,9C1099.45,320,1098.73,320.4,1097.77,320.4Z" fill="#75bbff"/><path d="M1124,320.4h-19.7c-1,0-1.82-.39-1.9-.87l-1.51-9c-.08-.45.62-.82,1.56-.82h19.12c.94,0,1.78.37,1.89.82l2.09,9C1125.66,320,1125,320.4,1124,320.4Z" fill="#75bbff"/><path d="M1150.24,320.4h-19.71c-1,0-1.84-.39-2-.87l-2.16-9c-.11-.45.56-.82,1.5-.82H1147c.94,0,1.81.37,2,.82l2.74,9C1151.87,320,1151.21,320.4,1150.24,320.4Z" fill="#75bbff"/><path d="M1176.48,320.4h-19.71c-1,0-1.87-.39-2-.87l-2.82-9c-.15-.45.5-.82,1.43-.82h19.13c.93,0,1.83.37,2,.82l3.41,9C1178.08,320,1177.44,320.4,1176.48,320.4Z" fill="#75bbff"/><path d="M1202.71,320.4H1183c-1,0-1.9-.39-2.09-.87l-3.48-9c-.17-.45.44-.82,1.38-.82h19.12a2.46,2.46,0,0,1,2.07.82l4.06,9C1204.29,320,1203.68,320.4,1202.71,320.4Z" fill="#75bbff"/><path d="M1222.44,364.54h-22.13a2.66,2.66,0,0,1-2.38-1.1l-4.37-11.28c-.22-.57.45-1,1.5-1h21.39a2.73,2.73,0,0,1,2.36,1l5.1,11.28C1224.18,364,1223.52,364.54,1222.44,364.54Z" fill="#75bbff"/><path d="M1193,364.54h-22.12c-1.09,0-2.12-.5-2.31-1.1L1165,352.16c-.18-.57.53-1,1.58-1H1188a2.55,2.55,0,0,1,2.29,1l4.27,11.28C1194.76,364,1194.07,364.54,1193,364.54Z" fill="#75bbff"/><path d="M1163.52,364.54H1141.4c-1.09,0-2.08-.5-2.23-1.1l-2.72-11.28c-.14-.57.6-1,1.65-1h21.39c1,0,2,.46,2.21,1l3.45,11.28C1165.34,364,1164.61,364.54,1163.52,364.54Z" fill="#75bbff"/><path d="M895.78,334H875.33c-1,0-1.62-.42-1.39-.94l4.36-9.66a2.55,2.55,0,0,1,2.16-.88h19.83c1,0,1.6.39,1.41.88L898,333.05C897.76,333.57,896.79,334,895.78,334Z" fill="#75bbff"/><path d="M923,334H902.56c-1,0-1.66-.42-1.46-.94l3.66-9.66c.18-.49,1.12-.88,2.09-.88h19.83c1,0,1.63.39,1.48.88l-3,9.66C925,333.57,924,334,923,334Z" fill="#75bbff"/><path d="M950.24,334H929.79c-1,0-1.69-.42-1.53-.94l3-9.66c.15-.49,1.06-.88,2-.88h19.83c1,0,1.66.39,1.54.88l-2.33,9.66C952.16,333.57,951.24,334,950.24,334Z" fill="#75bbff"/><path d="M883.8,364.54H861.68c-1.09,0-1.74-.5-1.47-1.1l5.1-11.28a2.73,2.73,0,0,1,2.36-1h21.39c1.05,0,1.72.46,1.5,1l-4.37,11.28A2.67,2.67,0,0,1,883.8,364.54Z" fill="#75bbff"/><path d="M913.26,364.54H891.14c-1.09,0-1.78-.5-1.55-1.1l4.27-11.28a2.55,2.55,0,0,1,2.29-1h21.39c1.05,0,1.75.46,1.58,1l-3.55,11.28C915.38,364,914.35,364.54,913.26,364.54Z" fill="#75bbff"/><path d="M942.72,364.54H920.59c-1.08,0-1.81-.5-1.62-1.1l3.44-11.28c.18-.57,1.17-1,2.22-1H946c1.05,0,1.79.46,1.65,1L945,363.44C944.8,364,943.81,364.54,942.72,364.54Z" fill="#75bbff"/><path d="M977.47,334H957c-1,0-1.72-.42-1.6-.94l2.25-9.66c.11-.49,1-.88,2-.88h19.83c1,0,1.69.39,1.61.88l-1.63,9.66C979.35,333.57,978.47,334,977.47,334Z" fill="#75bbff"/><path d="M1004.58,334H984.12c-1,0-1.74-.42-1.66-.94l1.55-9.66c.07-.49.93-.88,1.9-.88h19.82c1,0,1.72.39,1.67.88l-.92,9.66C1006.43,333.57,1005.58,334,1004.58,334Z" fill="#75bbff"/><path d="M1031.8,334h-20.45c-1,0-1.78-.42-1.73-.94l.84-9.66c0-.49.87-.88,1.84-.88h19.82c1,0,1.75.39,1.74.88l-.22,9.66C1033.63,333.57,1032.81,334,1031.8,334Z" fill="#75bbff"/><path d="M1059.15,334H1038.7c-1,0-1.81-.42-1.8-.94l.13-9.66c0-.49.8-.88,1.77-.88h19.83c1,0,1.78.39,1.8.88l.49,9.66C1061,333.57,1060.16,334,1059.15,334Z" fill="#75bbff"/><path d="M1086.38,334h-20.45c-1,0-1.84-.42-1.87-.94l-.57-9.66c0-.49.73-.88,1.7-.88H1085c1,0,1.8.39,1.87.88l1.19,9.66C1088.14,333.57,1087.38,334,1086.38,334Z" fill="#75bbff"/><path d="M1113.61,334h-20.45c-1,0-1.87-.42-1.94-.94l-1.28-9.66c-.06-.49.67-.88,1.64-.88h19.83c1,0,1.83.39,1.93.88l1.9,9.66C1115.34,333.57,1114.61,334,1113.61,334Z" fill="#75bbff"/><path d="M1140.84,334h-20.45c-1,0-1.91-.42-2-.94l-2-9.66c-.1-.49.6-.88,1.57-.88h19.83c1,0,1.86.39,2,.88l2.61,9.66C1142.54,333.57,1141.84,334,1140.84,334Z" fill="#75bbff"/><path d="M1168.07,334h-20.46c-1,0-1.93-.42-2.07-.94l-2.69-9.66c-.13-.49.54-.88,1.52-.88h19.82c1,0,1.89.39,2.06.88l3.31,9.66C1169.74,333.57,1169.07,334,1168.07,334Z" fill="#75bbff"/><path d="M1169.31,323.39l3.39,9.66c.18.52,1.14.94,2.14.94h9.86c1,0,2,.42,2.18.94l4.92,12.7a2.56,2.56,0,0,0,2.28,1h21.26c1,0,1.68-.45,1.43-1L1210.6,334l-2.07-4.58-2.72-6a2.53,2.53,0,0,0-2.16-.88h-32.89C1169.78,322.51,1169.13,322.9,1169.31,323.39Z" fill="#75bbff"/><path d="M904.06,348.64H868.78c-1,0-1.68-.45-1.43-1l4.71-10.42a2.67,2.67,0,0,1,2.26-.95h34.15c1,0,1.67.43,1.49.95l-3.66,10.42C906.11,348.19,905.1,348.64,904.06,348.64Z" fill="#75bbff"/><path d="M932.36,348.64H911.1c-1,0-1.73-.45-1.54-1l3.57-10.42c.18-.52,1.15-.95,2.16-.95h20.57c1,0,1.71.43,1.56.95l-2.89,10.42C934.37,348.19,933.4,348.64,932.36,348.64Z" fill="#75bbff"/><path d="M960.66,348.64H939.4c-1,0-1.76-.45-1.61-1l2.81-10.42c.14-.52,1.07-.95,2.08-.95h20.58c1,0,1.73.43,1.63.95l-2.14,10.42C962.64,348.19,961.7,348.64,960.66,348.64Z" fill="#75bbff"/><path d="M989,348.64H967.7c-1,0-1.8-.45-1.69-1l2-10.42c.1-.52,1-.95,2-.95h20.58c1,0,1.77.43,1.7.95L991,347.63C990.9,348.19,990,348.64,989,348.64Z" fill="#75bbff"/><path d="M1017.25,348.64H996c-1,0-1.83-.45-1.76-1l1.28-10.42c.07-.52.94-.95,2-.95H1018c1,0,1.8.43,1.77.95l-.61,10.42C1019.16,348.19,1018.29,348.64,1017.25,348.64Z" fill="#75bbff"/><path d="M1045.55,348.64h-21.26c-1,0-1.86-.45-1.83-1l.53-10.42c0-.52.86-.95,1.87-.95h20.58c1,0,1.83.43,1.84.95l.14,10.42C1047.43,348.19,1046.59,348.64,1045.55,348.64Z" fill="#75bbff"/><path d="M1073.85,348.64h-21.26c-1,0-1.89-.45-1.91-1l-.23-10.42c0-.52.8-.95,1.81-.95h20.57c1,0,1.86.43,1.91.95l.91,10.42C1075.69,348.19,1074.89,348.64,1073.85,348.64Z" fill="#75bbff"/><path d="M1102.15,348.64h-21.26c-1,0-1.93-.45-2-1l-1-10.42c-.05-.52.73-.95,1.74-.95h20.58c1,0,1.89.43,2,.95l1.67,10.42C1104,348.19,1103.19,348.64,1102.15,348.64Z" fill="#75bbff"/><path d="M1130.44,348.64h-21.25c-1,0-2-.45-2.06-1l-1.75-10.42c-.09-.52.65-.95,1.66-.95h20.58c1,0,1.93.43,2.05.95l2.42,10.42C1132.22,348.19,1131.49,348.64,1130.44,348.64Z" fill="#75bbff"/><path d="M1158.74,348.64h-21.25c-1,0-2-.45-2.13-1l-2.52-10.42c-.13-.52.59-.95,1.6-.95H1155c1,0,2,.43,2.12.95l3.19,10.42C1160.49,348.19,1159.78,348.64,1158.74,348.64Z" fill="#75bbff"/><path d="M1187,348.64h-21.26c-1,0-2-.45-2.2-1l-3.28-10.42c-.16-.52.52-.95,1.53-.95h20.58c1,0,2,.43,2.19.95l3.94,10.42C1188.75,348.19,1188.08,348.64,1187,348.64Z" fill="#75bbff"/><path d="M1134.2,364.54H949.92c-1.08,0-1.85-.5-1.71-1.1l2.63-11.28c.14-.57,1.09-1,2.14-1h178.16c1,0,2,.46,2.14,1l2.63,11.28C1136.05,364,1135.28,364.54,1134.2,364.54Z" fill="#75bbff"/></g><path d="M1117.68,436.53H966.44a3.28,3.28,0,0,1-3.24-3.83l7.59-45.14a3.3,3.3,0,0,1,3.25-2.75h136a3.28,3.28,0,0,1,3.24,2.75l7.6,45.14A3.28,3.28,0,0,1,1117.68,436.53Z" fill="#0096eb" opacity="0.5"/><path d="M970.79,389.31a3.3,3.3,0,0,1,3.25-2.74h136a3.28,3.28,0,0,1,3.24,2.74l7.54,44.76a3.31,3.31,0,0,0,.06-1.37l-7.6-45.14a3.28,3.28,0,0,0-3.24-2.75H974a3.3,3.3,0,0,0-3.25,2.75L963.2,432.7a3.31,3.31,0,0,0,.06,1.37Z" fill="#007abf" opacity="0.5"/><g opacity="0.5"><path d="M1304,438a7.2,7.2,0,0,0-.93-2.66l-23.93-42.81-24.47-43.77-.67-1.2-1.34-2.39-.85-1.52-3.42-6.12-21.8-39a6.81,6.81,0,0,0-2.64-2.25,19.72,19.72,0,0,0-3.8-1.55,28.27,28.27,0,0,0-7.79-1.21H872.23c-7,0-13.41,2.64-14.74,5l-17.28,30.91L823.1,360l-4.56,8.14-26.31,47.07-3.08,5.52L781,435.3a7.27,7.27,0,0,0-.92,2.64,4.37,4.37,0,0,0,.55,2.84c1.5,2.56,5.57,4.09,10.88,4.09H1292.6c5.31,0,9.38-1.53,10.88-4.09A4.39,4.39,0,0,0,1304,438Zm-2.25,1.83c-1.11,1.89-4.71,3.11-9.18,3.11H791.52c-4.47,0-8.08-1.22-9.19-3.11-.66-1.14-.15-2.55.4-3.53l3.74-6.68,3.8-6.8.36-.64h0l.68-1.23,1.69-3,1.2-2.14,26.22-46.9,3.22-5.76L842,330.32l17.1-30.58.15-.28c.79-1.42,6.34-4,13-4h339.88a25.93,25.93,0,0,1,7.34,1.1,15.26,15.26,0,0,1,4.78,2.19s0,0,0,0a2.67,2.67,0,0,1,.67.71l.15.27,22.08,39.49,1.86,3.32.92,1.66,1.27,2.26.52.94,26.41,47.23,23.27,41.62C1301.93,437.24,1302.45,438.65,1301.78,439.79Z" fill="#78d8ff"/></g><circle cx="1042.06" cy="65.98" r="2.81" fill="#005fbb"/><path d="M1200.4,346.83h-59.57a8,8,0,0,1-7.45-5.05l-28.41-71a8,8,0,0,1,7.46-11H1172a8,8,0,0,1,7.45,5l28.41,71A8,8,0,0,1,1200.4,346.83Z" fill="#75bbff"/><path d="M1140.83,342a3.19,3.19,0,0,1-3-2l-28.4-71a3.22,3.22,0,0,1,3-4.41H1172a3.2,3.2,0,0,1,3,2l28.4,71a3.21,3.21,0,0,1-3,4.41Z" fill="#5b56f8"/><path d="M1140.83,342a3.19,3.19,0,0,1-3-2l-28.4-71a3.22,3.22,0,0,1,3-4.41H1172a3.2,3.2,0,0,1,3,2l28.4,71a3.21,3.21,0,0,1-3,4.41Z" fill="#003d8f"/><path d="M1134.61,343.87l18.81-84.12h-41a8,8,0,0,0-7.46,11l28.41,71A7.67,7.67,0,0,0,1134.61,343.87Z" fill="#fff" opacity="0.2"/><path d="M1202.56,275.14s-1.93,4-2.42,5.16a34,34,0,0,0-1.75,4.5,1.15,1.15,0,0,0,1,.41s-.73,1.45-.92,2,1.13,1,1.84.82a8.65,8.65,0,0,0-.45,2c.09.29.77.62,1.85.21s1.58-.66,1.94-1.51.79-2.06.79-2.06a8.1,8.1,0,0,1,1,1.06c.11.25.48,2.25,1.18,2.7a25.63,25.63,0,0,0,3.6,12c.87,1.37,2.25,3.19,2.25,3.19l0,.39s7.08-7.51,7.85-12.08-1-17-5-18.06S1202.56,275.14,1202.56,275.14Z" fill="#d97a51"/><path d="M1207.58,277.16c-.44-.29-.77-.5-.91-.57a2.28,2.28,0,0,0-1.9.34A17.1,17.1,0,0,0,1207.58,277.16Z" fill="#e79d80"/><path d="M1225.22,311.53c-1,1.51-5.18,3-10.24,3.65-.45.06-.89.1-1.33.12l-.78-6.31-.33-3.36a17.79,17.79,0,0,0-.44-5.12c-.66-3.05.61-8.08.47-8.6a7.71,7.71,0,0,0-.37-.75l5.26-4.22a2.86,2.86,0,0,0,.21.31l1,.76s-.2-.66-.53-1.61c-.77-2.26-2.2-6.18-3.09-6.86a9.81,9.81,0,0,1-2.22-3s-1.08.2-2.9.48a15.78,15.78,0,0,1-2.33.14c-.44-.29-.77-.5-.9-.57a2.27,2.27,0,0,0-1.91.35c-.23,0-.48-.07-.7-.12-1.75-.39-2.2-.78-2.1-1.6s3.8-2,6.71-2.66,4.16-1.19,5.56-1.23,2.91,2.14,5,4.88,4.08,4.39,4.67,5.54-.26,6.41-.27,8.93a99.29,99.29,0,0,0,.88,10.32,36.58,36.58,0,0,1,0,6.59l.42,2.21Z" fill="#e79d80"/><path d="M1215.44,280.3l.13-.37c2.53.86,3.87-.32,3.93-.37l.26.3C1219.7,279.91,1218.2,281.25,1215.44,280.3Z" fill="#df681a"/><path d="M1212.85,276.74l-.07-.39a4.5,4.5,0,0,0,2.66-1.56l.32.23A4.79,4.79,0,0,1,1212.85,276.74Z" fill="#df681a"/><path d="M1199.08,281.2a4.76,4.76,0,0,0,.75-1.81.33.33,0,0,0-.1-.29.76.76,0,0,0-.55-.09l-.08-.39a1.18,1.18,0,0,1,.89.17.76.76,0,0,1,.24.61,5.19,5.19,0,0,1-.82,2Z" fill="#df681a"/><path d="M1199.24,285.42l0-.4a4.34,4.34,0,0,0,2.71-1.43,26.48,26.48,0,0,0,1.79-3.26l.36.17a25.52,25.52,0,0,1-1.83,3.33A4.69,4.69,0,0,1,1199.24,285.42Z" fill="#df681a"/><path d="M1200,288.27l0-.4a3.26,3.26,0,0,0,2-.9,45.82,45.82,0,0,0,2.39-4.88l.37.17a54.34,54.34,0,0,1-2.45,5A3.63,3.63,0,0,1,1200,288.27Z" fill="#df681a"/><path d="M1198.16,285.12l.13-.37a.58.58,0,0,0,.49,0,8,8,0,0,0,.53-1.85l.39,0a6,6,0,0,1-.65,2.19A.94.94,0,0,1,1198.16,285.12Z" fill="#df681a"/><path d="M1200.25,289.8l0-.39a1.31,1.31,0,0,0,.66-.3,4.38,4.38,0,0,0,.53-1.56l.39.08a4.37,4.37,0,0,1-.65,1.77A1.62,1.62,0,0,1,1200.25,289.8Z" fill="#df681a"/><path d="M1206.57,290.52l0-.39a4.25,4.25,0,0,0,3.46-.89l.29.28A4.61,4.61,0,0,1,1206.57,290.52Z" fill="#df681a"/><path d="M1213.65,281.68a64.29,64.29,0,0,0-6.07-4.52,17.1,17.1,0,0,1-2.81-.23c-.81.55-1.32,1.72-.22,4a23.92,23.92,0,0,0,5.85,7.18s1.18,1.95,1.8,3.09l5.26-4.22A58.86,58.86,0,0,0,1213.65,281.68Z" fill="#e79d80"/><path d="M1204.24,279.76l.26-.29c.62.56,2.46,2,3.46,1.86a.65.65,0,0,0,.5-.29c.71-1-1.22-3.05-2-3.74l.26-.3c.13.11,3.14,2.73,2.08,4.27a1,1,0,0,1-.77.46C1206.62,281.89,1204.33,279.85,1204.24,279.76Z" fill="#df681a"/><path d="M1238.3,382.3c10.56-1.73,10.94-18.46,7.75-24.92-2.76-5.58-18.68-39.69-21.5-49.43-1.23-4.24-11.46.56-10.87,8.21S1217.39,385.74,1238.3,382.3Z" fill="#e79d80"/><path d="M1246.37,357.22c-1.72-3.49-13.45-29.05-15.63-34.93s-16.6-1.68-17.06,3.18,10.28,54.67,20.8,57.09a10.1,10.1,0,0,0,3.88.1,10.38,10.38,0,0,0,7.63-5.9C1249.05,370.81,1248.66,361.85,1246.37,357.22Z" fill="#ffaf1f"/><path d="M1214.65,325.88l-2.2-1.9c.08-.09,8-9,19-4.47l-1.11,2.68C1221.23,318.42,1214.72,325.8,1214.65,325.88Z" fill="#fece40"/><path d="M1115.75,670.4s-2.6,16.16-8.31,23.3c-3.71,4.62-9.19,2.86-13.15-4.19s-4.79-12.9-9.49-15a40.7,40.7,0,0,1-14.43-11.21c-3.8-4.94-6.06-10.2-4.46-12s5.84,3.1,11.11,6,15.44,6.72,24.41,4.54S1117.31,663.4,1115.75,670.4Z" fill="url(#linear-gradient-29)"/><path d="M1170.94,551.66l-55,118.36a8.64,8.64,0,0,1-15.88-6.8l47.74-121.48a12.59,12.59,0,1,1,23.44,9.22C1171.16,551.18,1171,551.44,1170.94,551.66Z" fill="#e79d80"/><path d="M1116.93,667.89l17.75-38.18a29.8,29.8,0,0,0-3.14-1.26,28.4,28.4,0,0,0-17.73-.21l-11,28A27.75,27.75,0,0,0,1116.93,667.89Z" fill="#ce623f"/><path d="M1251.32,450.47a28.1,28.1,0,0,0-39.5,4.26L1145.6,537a16.29,16.29,0,0,0-1.94,3c-.1.19-.2.39-.29.59l-.15.32c-.15.34-.31.66-.44,1L1102.36,649.6c-2.79,6.75,19.16,17.39,22,11.41l49.54-103.24s72.87-58.11,80.22-66.57C1264.33,479.48,1263.4,460.19,1251.32,450.47Z" fill="#6b5287"/><path d="M1233.89,428.59a28.1,28.1,0,0,0-38.3,10.56l-51.78,91.21a17,17,0,0,0-2.2,7.45c0,.12,0,.23,0,.35,0,.34,0,.69,0,1l0,.83,0,.35a17.42,17.42,0,0,0,4.35,10.24l54.67,61.49c4,4.48,21.85-11.93,18.09-17.4l-37.85-54.94,60.18-68.14a29.47,29.47,0,0,0,3.37-4.73A28.1,28.1,0,0,0,1233.89,428.59Z" fill="url(#linear-gradient-30)"/><path d="M1218.74,598h0c-.7,2.47-2.83,5.72-5.92,8.72a24.41,24.41,0,0,1-7.61,5.21c-2,.83-3.75.89-4.63,0s-.77-2.79.25-5a25.09,25.09,0,0,1,5.29-7.11c3.44-3.34,7.16-5.47,9.71-5.79a2.86,2.86,0,0,1,2.53.6C1219,595.32,1219.14,596.51,1218.74,598Z" fill="#533375"/><path d="M1224.4,621.21a9.15,9.15,0,0,1-12.25-1.36l-6.94-7.93-4.38-5a25.09,25.09,0,0,1,5.29-7.11c3.44-3.34,7.16-5.47,9.71-5.79l2.91,4h0l7.65,10.47A9.13,9.13,0,0,1,1224.4,621.21Z" fill="#e79d80"/><path d="M1214.16,607c4.89-7.19,10.67-2.1,14.55-2.37s8.36-.62,11.74,2.65,1.19,9.62-1.09,15.31-5.46,19.56-3.32,25.26-3.27,27.85-7.47,27.18-11.36-12.3-10.63-18.87,2.36-13.05,1-15.7S1208.58,615.24,1214.16,607Z" fill="url(#linear-gradient-31)"/><path d="M1241.48,616.54c.3-2.74.45-3.84-.57-6-2.62-5.6-10.47-4-12.38,1.91-1,3.26-1,13.79-1.7,19.57s-4.29,12.21-5.87,17.6c-2.31,7.89,1.36,24.15,8.84,25.08,3.94-3,8.72-17.13,6.24-26.78-1.51-5.9,1-19.57,3.32-25.26A56.49,56.49,0,0,0,1241.48,616.54Z" fill="#c73122"/><rect x="1170.84" y="514.15" width="71.65" height="1.45" transform="translate(-19.4 981.67) rotate(-43.95)" fill="#563d73"/><rect x="1176.86" y="535.04" width="1.45" height="8.65" transform="matrix(0.09, -1, 1, 0.09, 533.47, 1663.09)" fill="#563d73"/><path d="M1284.14,313l-22.35-8.44s-3.74,24.15-18.56,39.06l26.67,11.79C1277.1,325.34,1284.14,313,1284.14,313Z" fill="#e79d80"/><path d="M1284.14,313s-3.31,5.17-8.1,21.18c-3.35,1.41-14.12,1.74-23.33-3.15a69.78,69.78,0,0,0,9.08-26.47Z" fill="#ce623f"/><path d="M1285.34,271.16c22.28,9,11.14,31.67-4,45.93-7.65,7.21-25,10.87-31.45,5C1240.11,313.21,1255,258.91,1285.34,271.16Z" fill="#e79d80"/><path d="M1205.57,424s3.65-21.53,3.57-25.4c0,0-6.68-22.16-6.51-26.57.36-8.74,21.55-30.16,30.26-31.28s52.07,14.2,54.51,26.35-28.08,60.23-28.68,64.95,5.1,29.78,1.62,50.61c-1.62,9.7-79.44-17.58-69.36-37.13C1194.85,438,1205.57,424,1205.57,424Z" fill="url(#linear-gradient-32)"/><path d="M1180.54,384.21c8.28-6.79.22-21.46-5.77-25.45-5.19-3.45-33.67-24-41-31-3.18-3.05-12,5.25-7.67,11.58S1164.16,397.65,1180.54,384.21Z" fill="#e79d80"/><path d="M1174,386.71a13.79,13.79,0,0,1-4.33-26.88l59.06-19.55a13.79,13.79,0,0,1,8.66,26.18L1178.35,386A14,14,0,0,1,1174,386.71Z" fill="#ffbf1c"/><path d="M1126.11,339.25l-20.74-31.47c-1.21-1.86.43-3.76,1.58-2.87,1.79,1.36,4,3.39,4,3.39s-5-4.84-5.87-7a1.58,1.58,0,0,1,1.74-2.08,5,5,0,0,1-1.27-2.11c-.09-.76,1.07-2.1,2.83-.58,2.19,1.91,6.65,6.57,7.64,6.34s-9.47-9.09-10.45-10.91.75-3.21,7.68,2.52c5.55,4.59,11.09,11.23,13.11,12.56s2.84-1.18,3.07-2.81,2.93-7.25,4.89-5.76-.55,3.67-.22,5.49a18.13,18.13,0,0,1,.1,9.7,55.87,55.87,0,0,1-3.19,9l5.84,7.79Z" fill="#e79d80"/><path d="M1118.9,304.64l-.08.24a4.32,4.32,0,0,0-3.25,1,5,5,0,0,0-.34.53,8.13,8.13,0,0,1-2,2.46,3.94,3.94,0,0,0-1.32,3.07l-.26,0a4.14,4.14,0,0,1,1.41-3.28,8,8,0,0,0,2-2.4,4.26,4.26,0,0,1,.36-.56A4.42,4.42,0,0,1,1118.9,304.64Z" fill="#df696e"/><path d="M1133.72,299.21l.2.17s-1.07,1.21-1,1.95a.5.5,0,0,0,.27.4.55.55,0,0,0,.52.06c.44-.19.7-1.05.76-1.36l.25.05s-.26,1.26-.9,1.55a.84.84,0,0,1-.76-.08.81.81,0,0,1-.4-.58C1132.58,300.51,1133.68,299.26,1133.72,299.21Z" fill="#df696e"/><path d="M1184.06,375.44c-.33-6.69-5.16-14.24-9.45-17.11s-16.63-12.49-22.46-16.63-17.4,12.13-15,16.11,13.28,14,16.44,17c9.57,9.24,16.12,11.83,20.44,11.83a9.86,9.86,0,0,0,6.42-2.29A10.38,10.38,0,0,0,1184.06,375.44Z" fill="#ffbf1c"/><path d="M1257.54,284.35s-7.56,6.81-8.53,8.82,3.82,4.91,3.82,4.91Z" fill="#e79d80"/><path d="M1138,357.07l-2.82-.66c3.77-16.1,14.69-16.79,15.15-16.81l.14,2.9-.07-1.45.08,1.45C1150.06,342.52,1141.21,343.21,1138,357.07Z" fill="#fece40"/><rect x="1201.54" y="373.39" width="23.55" height="1.45" transform="translate(-56.22 393.33) rotate(-18)" fill="#ffa620"/><rect x="1258.65" y="327.71" width="2.9" height="41.07" transform="translate(492.34 1406.39) rotate(-69.49)" fill="#fece40"/><path d="M1260.64,330.94c-.51-16,11.33-43.24,2-51.7-7.88-7.12-5.42-20.13,2.76-20.34,5.33-.14,10.85,8.68,16.91,9.51,10.65,1.45,15.9,5.09,19.6,12.55,3.85,7.76,3.4,16.87-1.61,25.37-3.65,6.19-1.38,15.57,4.21,19.61s21.36,2.42,21.65,13.83C1326.9,369.36,1262.1,375.93,1260.64,330.94Z" fill="url(#linear-gradient-33)"/><path d="M1271.62,297.17c3,6.71-9.51,12.76-12.83,6.94C1255.06,297.59,1268.65,290.46,1271.62,297.17Z" fill="#e79d80"/><path d="M1263.05,298.36l-.46-.56c.15-.12,3.68-2.93,7.56-.93l-.33.64C1266.36,295.73,1263.08,298.34,1263.05,298.36Z" fill="#df696e"/><path d="M1263.83,305.36a2.71,2.71,0,0,0-1.28-2.14,2.31,2.31,0,0,0-1.16-.3,4.2,4.2,0,0,0-2.63,1.15,7.38,7.38,0,0,0-1.52,1.89c-1.37,2.43-1.19,5.05.41,6a2.25,2.25,0,0,0,1.16.3,3.22,3.22,0,0,0,1.32-.31,2.09,2.09,0,0,0,.36-.19,6.55,6.55,0,0,0,2.46-2.54,6.8,6.8,0,0,0,.9-2.75c0-.24,0-.48,0-.71Zm-1.51,3.46a6.27,6.27,0,0,1-1.6,1.89,3.53,3.53,0,0,1-.34.24,3,3,0,0,1-1.57.53,1.61,1.61,0,0,1-.8-.2c-1.21-.68-1.27-2.95-.13-5a6.45,6.45,0,0,1,1.29-1.63,3.47,3.47,0,0,1,2.22-1,1.67,1.67,0,0,1,.8.2,1.88,1.88,0,0,1,.85,1.21,3.5,3.5,0,0,1,.09.68,5.72,5.72,0,0,1,0,.71A6.2,6.2,0,0,1,1262.32,308.82Z" fill="#f9fdff"/><rect x="1253.61" y="426.19" width="1.45" height="9.13" transform="translate(498.22 1520.34) rotate(-74.19)" fill="#ffa620"/><path d="M1269.63,284.63c-.66-2.89-2.62-4.49-4.69-6.18s-4.17-3.39-5.18-6.49c-2-6.23,2.75-11.32,2.8-11.37l.52.51s-4.54,4.82-2.63,10.64c.94,2.89,3,4.55,5,6.15s4.22,3.44,4.94,6.58Z" fill="#ff963d"/><path d="M1296.19,359.58c-20.34,0-28-13.33-28.08-13.47l.63-.35c.08.14,8,13.81,29.17,13.06,19.36-.71,23.85-16.09,23.89-16.25l.7.2c0,.16-4.66,16-24.57,16.77C1297.35,359.56,1296.76,359.58,1296.19,359.58Z" fill="#ff963d"/><path d="M1309.07,353.7l-.33-.65c8.24-4.21,9.23-14.48,9.24-14.58l.72.06C1318.69,338.64,1317.67,349.3,1309.07,353.7Z" fill="#ff963d"/><path d="M1194.4,484.22c-13.28-10.61-4.77-27.06-4.69-27.23l1.29.68c-.34.63-8,15.56,4.3,25.41Z" fill="#9170b9"/><path d="M1217.45,596.23l-1.62-2.21c-2.55.32-6.27,2.45-9.71,5.79a25.09,25.09,0,0,0-5.29,7.11l4.38,5,.34.4C1207.38,604.69,1214.33,598.63,1217.45,596.23Z" fill="#ce623f"/><path d="M1210.33,440.37c-4.78-4-5.46-15.88-5.48-16.38l1.45-.08c0,.12.66,11.73,5,15.35Z" fill="#e3941c"/><path d="M867.34,168.16a5.62,5.62,0,1,0,5.62,5.62A5.63,5.63,0,0,0,867.34,168.16Zm0,9.64a4,4,0,1,1,4-4A4,4,0,0,1,867.34,177.8Z" fill="#fff"/><path d="M678.82,1687.9v.36a17.92,17.92,0,0,1-17.92,17.92H4a18.25,18.25,0,0,1-4-.45v-35.3a18.25,18.25,0,0,1,4-.45H660.9A17.92,17.92,0,0,1,678.82,1687.9Z" fill="#2487c1"/><rect x="53.91" y="1683.04" width="299.24" height="10.08" rx="4.99" fill="#0f4bbd"/><path d="M270.41,1577.92H66.15V1391.56a40.16,40.16,0,0,1,40.16-40.16H230.25a40.16,40.16,0,0,1,40.16,40.16Z" fill="#cfcfcf"/><path d="M255.15,1562.66H81.41v-171.1a24.93,24.93,0,0,1,24.9-24.9H230.25a24.93,24.93,0,0,1,24.9,24.9ZM83,1561.06H253.54v-169.5a23.32,23.32,0,0,0-23.29-23.29H106.31A23.32,23.32,0,0,0,83,1391.56Z" fill="#e2e2e2"/><path d="M181.65,1485.7a13.58,13.58,0,0,1-8.31-2.83l-74.13-56.95a13.65,13.65,0,1,1,16.64-21.65l74.13,57a13.65,13.65,0,0,1-8.33,24.48Z" fill="#dc8d72"/><path d="M116.62,1429.66a33.63,33.63,0,0,0-4.05,6.53l23.89,18.34a34.41,34.41,0,0,0,5.09-5.2c5.22-6.63,7.44-14.27,6.5-20.32l-13.51-10.39C128.52,1419.23,121.75,1423.15,116.62,1429.66Z" fill="#ce623f"/><path d="M146,1425.42,116.83,1403a15.26,15.26,0,0,0-18.6,24.2s24.81,18,29.71,21.64S151.46,1429.6,146,1425.42Z" fill="#ffad1f"/><path d="M129.91,1450.37l-.78-1.4c15.1-8.37,17.06-22.35,17.08-22.49l1.59.2C147.72,1427.29,145.71,1441.61,129.91,1450.37Z" fill="#fbfbff"/><path d="M113.34,1338s4.25,3.58,4.76,8.88-6,9.48-6,9.48Z" fill="#fa902f"/><path d="M64.66,1364.55s5.17,7.85,1.71,13.28-9.79,3.45-12.49,6.7c-3.63,4.36,0,8.89-2.6,10.93s-9.66-3.47-15.42,5.06-.89,26.33,4.7,31.94c3.19,3.19,32.85-42.18,41.2-48.32S64.66,1364.55,64.66,1364.55Z" fill="#f35a00"/><path d="M85.49,1364.55s-5.17,7.85-1.7,13.28,9.78,3.45,12.48,6.7c3.63,4.36,0,8.89,2.6,10.93s9.66-3.47,15.42,5.06.89,26.33-4.7,31.94c-3.18,3.19-32.85-42.18-41.2-48.32S85.49,1364.55,85.49,1364.55Z" fill="#f35a00"/><path d="M98.69,1558.5l-18-66.26c-.12-.21-50.78-79.88-43.11-85.94,26-20.54,76.17-5.18,76.17-5.18,5.27,2.24,4.4,4.42,7.32,11.14,1.6,3.69,12.67,7.65,16,12.68,4.4,6.6.54,25.73-.62,28.83,2.4,3.34,21.14,35.23,33.69,48.68,4.41,4.72-40,12.77-57.26,27.22S98.69,1558.5,98.69,1558.5Z" fill="url(#linear-gradient-34)"/><path d="M62.63,1414.61l.53,67.19a12.85,12.85,0,0,1-25.69.52l-2.14-67.16a13.65,13.65,0,1,1,27.29-.88C62.63,1414.37,62.63,1414.53,62.63,1414.61Z" fill="#e79d80"/><path d="M62.74,1428.87a33.73,33.73,0,0,0-6.28-1.12c-8.41-.7-16,1.67-20.54,5.8l.6,18.88c4,3.71,10.2,6.37,17.31,7a33.16,33.16,0,0,0,9.15-.47Z" fill="#ce623f"/><path d="M64.93,1449.67c.24-5.51.64-34.2.64-34.2s0-.32,0-.45a15.26,15.26,0,0,0-30.52-.73s-1.4,31-.91,35.85S64.7,1455.18,64.93,1449.67Z" fill="#ffb11e"/><path d="M71.68,1359.93,99,1363s-9.32,22-1.93,45l-32.52-1.65C72.85,1371.81,71.68,1359.93,71.68,1359.93Z" fill="#e79d80"/><path d="M71.68,1359.93s.68,7-2.78,25.9c2.69,3.19,13.54,9.16,25.52,9A80.1,80.1,0,0,1,99,1363Z" fill="#ce623f"/><path d="M91.81,1320c-27.49-2.44-27.94,26.57-19.91,49.06,4.06,11.37,19.87,24.16,29.57,21.53C116.11,1386.6,129.29,1323.3,91.81,1320Z" fill="#e79d80"/><path d="M76,1360.78c2.42-1.75,6.47-1.47,9.76-7.35,2.16-3.86-2.88-9.45-.13-12.27,3.82-3.93,12.49,3.65,26.68.8,12-2.4,17.18-16.68,9.23-21.7-5.18-3.26-13.26,5.24-19.77,2.57-5.79-2.38-13.14-8.38-27.83-1.76-9.07,4.1-14.66,14.17-14.71,25.5a31.37,31.37,0,0,0,11.89,24.87C70.87,1371.25,74.86,1361.56,76,1360.78Z" fill="url(#linear-gradient-35)"/><path d="M72.2,1351c-6.55,5.31,3.06,18,9.5,13.8C88.91,1360.05,78.74,1345.66,72.2,1351Z" fill="#e79d80"/><path d="M55.21,1400.23c-2-4.88,39.52-5,45.5-.42s16.25,14.43,1.86,16.32C83.73,1418.61,57.24,1405.12,55.21,1400.23Z" fill="#e79d80"/><rect x="95.13" y="1483.87" width="68.79" height="3.36" fill="#308bad"/><path d="M103.18,1354.62c-2.44-2.69-8.57-1.2-10.73-.4l-.56-1.51c.35-.13,8.82-3.22,12.48.82Z" fill="#e84c3d"/><path d="M111,1355.26l-.8-1.4c.2-.11,4.78-2.67,7,.38l-1.3,1C114.52,1353.3,111,1355.24,111,1355.26Z" fill="#e84c3d"/><path d="M104.9,1373.77a5.79,5.79,0,0,1-1.61-.23l.32-1s2.28.67,3.18-.62.52-10.56.34-14c-.06-1.06-.1-1.86-.1-2.26h1.1c0,.39,0,1.18.09,2.21.33,6.28.58,13.1-.53,14.69A3.24,3.24,0,0,1,104.9,1373.77Z" fill="#df696e"/><path d="M102.23,1378.87a11.46,11.46,0,0,1-7.07-2.66l.74-.81a9.41,9.41,0,0,0,11.82.51l.63.9A10.5,10.5,0,0,1,102.23,1378.87Z" fill="#df696e"/><path d="M80.94,1358.42c-1.77-4.43-5-4.67-5.18-4.68l.06-1.1c.16,0,4.1.26,6.14,5.37Z" fill="#df696e"/><path d="M97.85,1376.91c.58-1,2.8,0,4.92-.1s3.15-.59,3.63.34c.61,1.17-1.46,3.34-4.31,3.38S97.27,1377.93,97.85,1376.91Z" fill="#df696e"/><path d="M112.37,1482.63s6.94-1.43,8-1.3,4.52,1.57,7.34.77,9.76-5.35,11.22-5.78,10.67,1.53,12.55,2,2.78-1.15,0-2.45-8.5-3.56-8.5-3.56a53.61,53.61,0,0,1,5.63.08c1.33.21,7.28,3.35,9.08,3.72s2.93-.7.78-2.31a33.5,33.5,0,0,0-3-2.1s3.84,2.91,6.22,1.82c1.5-.68-.35-2.6-2.58-3.78s-4.77-2.7-6.3-3.38-7.83-2.55-7.83-2.55,9.84-.1,13-1c2.25-.66,3.7-2.59-2.79-2.74s-16.18-.56-18.24,0-10.46,7.8-13.83,9-12.65,2.58-12.65,2.58Z" fill="#e79d80"/><path d="M157.75,1473.26c-.06,0-5.6-3.52-6.65-3.93-1.66-.66-9.29-2.66-9.37-2.68l.09-.34c.32.08,7.73,2,9.41,2.69,1.08.43,6.47,3.81,6.7,4Z" fill="#df696e"/><path d="M139.49,1473.9a2.83,2.83,0,0,1,.51-2.26l.35-.65a4.83,4.83,0,0,0,0-3.73,3.79,3.79,0,0,1-.14-1.76,12.77,12.77,0,0,0,0-1.87,3.44,3.44,0,0,0-2.07-2.64l.13-.32a3.7,3.7,0,0,1,2.29,2.94,12.11,12.11,0,0,1-.05,1.92,3.41,3.41,0,0,0,.12,1.62,5.17,5.17,0,0,1,0,4c-.13.25-.25.46-.36.65a2.55,2.55,0,0,0-.46,2Z" fill="#df696e"/><path d="M123.31,1482.23a23.84,23.84,0,0,1-5.28-2.3l.19-.3a23.23,23.23,0,0,0,5.18,2.26Z" fill="#df696e"/><path d="M158.84,1462c-.32,0-1.57,0-2-.45a.5.5,0,0,1-.14-.38c.07-.8,1.83-.75,2.18-.74v.35c-.73,0-1.79.09-1.82.42a.13.13,0,0,0,0,.11,3.48,3.48,0,0,0,1.76.34v.35Z" fill="#df696e"/><path d="M160.44,1473.23c-.28-.21-1.67-1.28-1.72-1.94a.43.43,0,0,1,.12-.35c.55-.56,2.36.51,2.72.73l-.18.3c-.92-.56-2.06-1-2.29-.78a.07.07,0,0,0,0,.07c0,.4,1,1.24,1.58,1.69Z" fill="#df696e"/><path d="M158.14,1476c-.25-.17-1.52-1-1.54-1.64a.42.42,0,0,1,.18-.38c.68-.55,2.1.55,2.26.67l-.22.28c-.52-.41-1.47-1-1.83-.68,0,0-.05.06,0,.09,0,.33.82,1,1.39,1.36Z" fill="#df696e"/><path d="M151.89,1478.12c-.2-.1-1.18-.65-1.32-1.15a.44.44,0,0,1,0-.34c.33-.55,1.56,0,1.93.14l-.15.32c-.61-.28-1.36-.46-1.48-.28a.11.11,0,0,0,0,.06c.07.27.71.71,1.14.94Z" fill="#df696e"/><path d="M152,1468.32l-.29-.21a3.9,3.9,0,0,0,.74-1.72l.35,0A4.22,4.22,0,0,1,152,1468.32Z" fill="#df696e"/><path d="M150.51,1471.23l-.29-.2a4.4,4.4,0,0,0,.77-1.88l.35,0A4.56,4.56,0,0,1,150.51,1471.23Z" fill="#df696e"/><path d="M148.24,1476.65l-.24-.25a2.54,2.54,0,0,0,.68-1.68H149A2.86,2.86,0,0,1,148.24,1476.65Z" fill="#df696e"/><path d="M151.68,1462.07l-.33-.12a2.16,2.16,0,0,0-.44-1.9l.27-.23A2.49,2.49,0,0,1,151.68,1462.07Z" fill="#df696e"/><path d="M38,1482.51c-.45-11.48,17.84-11.06,41.08-11.09,18.85,0,42.37-.61,42.37-.61s6.84,6.35.3,10.09C76.44,1492.15,38.89,1505.57,38,1482.51Z" fill="#e79d80"/><polygon points="229.72 1479.74 161.48 1483.87 158.67 1483.87 180.76 1391.86 252.26 1385.86 254.67 1387.52 229.72 1479.74" fill="#308bad"/><polygon points="232.13 1481.4 160.63 1487.4 183.17 1393.52 254.67 1387.52 232.13 1481.4" fill="url(#linear-gradient-36)"/><path d="M257.21,1402.52c-1.17-2.61-4-1.37-6-.45a34.86,34.86,0,0,0-4.8,2.77c-1.33,1-1,3.77,2.32,3.12S258.42,1405.2,257.21,1402.52Z" fill="#e79d80"/><path d="M251.76,1407.44a60.78,60.78,0,0,0-9.49,4.13c-2.12,1.2-1,4.09.52,3.81s9.38-2.89,9.38-2.89,1.2,1,1.68.8,1.72-4.76.56-5.57A3.25,3.25,0,0,0,251.76,1407.44Z" fill="#e79d80"/><path d="M245,1428.48s9.42-5.09,9.54-7.29-.64-2.77-.64-2.77a4,4,0,0,0,.84-3c-.32-1.63-.69-3.09-2.77-2.63s-11.41,3.21-11.93,3.45c-1.45.64-1.05,3.68,1.68,3.36a1.59,1.59,0,0,0,1.16,2.05,20.92,20.92,0,0,0,3.61.48Z" fill="#e79d80"/><path d="M241.75,1419.77l-.09-.37c.32-.08,7.78-2,9.87-2.12l0,.38C249.5,1417.82,241.83,1419.75,241.75,1419.77Z" fill="#df696e"/><path d="M251.92,1422.79c-1.11,0-5.69-.49-5.89-.52l0-.38c.05,0,4.76.52,5.85.52Z" fill="#df696e"/><path d="M249.94,1424c-.95-.07-1.14-1.29-1.14-1.34l.38-.06s.15,1,.78,1Z" fill="#df696e"/><path d="M162,1492.51c-28.22,2.23-64.52,26-72.69,31.63l8.32,30.63.88,2.58c-.27-3.68.1-15.74,14.34-27.68,8.13-6.82,22.3-12.2,34.55-16.49L164.72,1496C163.84,1494.9,162.94,1493.73,162,1492.51Z" fill="#755891"/><path d="M247.79,1407.44l-.19-.33s1.65-1,1.27-1.68a.61.61,0,0,0-.4-.32,2.92,2.92,0,0,0-1.79.57l-.21-.32a3.31,3.31,0,0,1,2.09-.62,1,1,0,0,1,.65.51C249.77,1406.3,247.87,1407.4,247.79,1407.44Z" fill="#df696e"/><path d="M242.71,1414.47l-.16-.35c.54-.24,1.87-1,1.62-1.73a.35.35,0,0,0-.21-.22c-.54-.18-1.74.43-2.15.68l-.2-.33c.17-.1,1.68-1,2.48-.71a.72.72,0,0,1,.44.46C245,1413.46,242.8,1414.43,242.71,1414.47Z" fill="#df696e"/><path d="M241.17,1418.92l-.14-.36c.5-.19,1.78-.88,1.65-1.67a.18.18,0,0,0-.1-.15c-.41-.22-1.66.21-2.35.53l-.17-.35c.21-.09,2-.89,2.7-.52a.59.59,0,0,1,.3.43C243.26,1418.09,241.25,1418.89,241.17,1418.92Z" fill="#df696e"/><path d="M243.47,1421.5v-.39a2.54,2.54,0,0,0,1.39-.81.51.51,0,0,0,0-.49c-.11-.26-1.21-.13-2.13.14l-.1-.37c.53-.16,2.29-.62,2.58.08a.87.87,0,0,1-.09.88A2.88,2.88,0,0,1,243.47,1421.5Z" fill="#df696e"/><path d="M370.3,1509.49l-128.43-17.42a14.07,14.07,0,1,1,3.78-27.89c.26,0,.55.08.8.13l127.22,24.76a10.35,10.35,0,0,1-3.37,20.42Z" fill="#e79d80"/><path d="M348.22,1510.8l-106.68-15a17.86,17.86,0,1,1,3.91-35.5c.43.05.91.12,1.33.2l106.45,22.72C360.36,1484.6,355,1511.53,348.22,1510.8Z" fill="#755891"/><path d="M355.52,1521.23c4.17,4.87,14.13,4.87,16.22,8.8s3,10.57,9,11.43,16.61-8,21.28-9.27,18.34-3.08,21.81-7.72,6-8.8,6.49-15-5.56-3.94-11.12-.93-9.27,3.91-16.45,4-20.85-6.63-36.14-7.07S351.35,1516.37,355.52,1521.23Z" fill="#dc8d72"/><path d="M419.23,1508.49c-.57.31-1.1.58-1.64.84h0c5.92,7.9-7.53,12.17-15.83,13.69s-9.37,4.64-17.4,6.84-13.48-.91-13.48-.91v0a4,4,0,0,1,.86,1c2.08,3.94,3,10.57,9,11.43s16.61-8,21.28-9.27,18.34-3.08,21.81-7.72,6-8.8,6.49-15S424.79,1505.48,419.23,1508.49Z" fill="#ed581f"/><path d="M361.82,1505.66s12.91-.08,17.84,2.06,9.8,13.16,17.45,12,10.07-8,19.11-8.65,11.47-1.08,18.07-5.4,17-16.49,13.55-20.48-7.12,1.56-11.64,3-26.41-1.39-34.23-1.22-35.62,2.61-35.62,2.61Z" fill="#e79d80"/><path d="M248.32,1464.75l123.58,42.72a9.78,9.78,0,0,1-5.78,18.67L240,1491.63a14.08,14.08,0,0,1,7.43-27.16C247.72,1464.55,248,1464.65,248.32,1464.75Z" fill="#dc8d72"/><path d="M353.48,1495.08,249.31,1457c-.73-.26-1.5-.5-2.27-.69a21.19,21.19,0,0,0-5.27-.62,22.52,22.52,0,0,0-10.89,2.24l-117.67,57.17a37.31,37.31,0,0,0-3.86,2.22A31.75,31.75,0,0,0,144.81,1570l102.79-69.2,95.8,25.06C350.72,1527.64,361.26,1498,353.48,1495.08Z" fill="url(#linear-gradient-37)"/><path d="M450,1483.75c-3.47-4-9.3,3-13.82,4.38,5.05,6.3-19.51,11.16-25.93,12.37s-9,4.82-13.26,7.82-12.82,3.18-12.82,3.18h0c3.6,3.9,7.58,9,12.92,8.21,7.64-1.17,10.07-8,19.11-8.65s12.94-1.28,19.55-5.6C445.2,1499.28,453.5,1487.75,450,1483.75Z" fill="url(#linear-gradient-38)"/><path d="M95,1358.69l-.49-.63c.11-.08,2.63-2,5.17-1.67a4.12,4.12,0,0,1,2.8,1.75l-.64.47a3.31,3.31,0,0,0-2.27-1.42C97.34,1356.88,95,1358.68,95,1358.69Z" fill="#76598f"/><path d="M110.83,1358.69l-.5-.63c1-.8,3.42-1.81,5.06,0l-.6.53C113.23,1356.88,110.92,1358.62,110.83,1358.69Z" fill="#76598f"/><rect x="55.19" y="1439.14" width="19.46" height="1.61" transform="translate(-1376.49 1442.88) rotate(-87.54)" fill="#ffad1f"/><rect x="246.92" y="1497.96" width="6.68" height="1.61" transform="translate(-855.67 456.72) rotate(-37.22)" fill="#755891"/><rect x="247.93" y="1494.55" width="1.61" height="5.38" fill="#755891"/><path d="M107.64,1340.67a47.09,47.09,0,0,1-11.27-1.86c-4.42-1.12-8.23-2.08-10.12-.54l-.51-.63c2.2-1.79,6.2-.78,10.82.39,6,1.51,13.53,3.4,19.43-.41,7.05-4.56,5.17-14,5.15-14.14l.79-.16c0,.1,2,10.12-5.5,15A15.76,15.76,0,0,1,107.64,1340.67Z" fill="#ff9033"/><path d="M67.1,1348.46l-.78-.19c.84-3.39,4.51-4.44,7.45-5.28a14.35,14.35,0,0,0,3.12-1.12c.79-.49,1-1.6,1.33-2.9.39-1.75.88-3.93,3-5.24,2.59-1.59,6.94-.54,12,.69,5.22,1.27,11.13,2.7,16.6,1.64a9.19,9.19,0,0,0,7.92-8.64h.8a10,10,0,0,1-8.57,9.43c-5.64,1.09-11.64-.37-16.94-1.65-4.85-1.18-9-2.2-11.36-.78-1.85,1.13-2.28,3-2.65,4.72-.32,1.42-.62,2.75-1.71,3.41a14.74,14.74,0,0,1-3.31,1.21C71.1,1344.59,67.83,1345.52,67.1,1348.46Z" fill="#ff9033"/><path d="M77.26,1373.62c-2.53,0-4.59-2.93-4.59-6.54a8.5,8.5,0,0,1,.86-3.81l.72.36a7.64,7.64,0,0,0-.77,3.45c0,3.16,1.69,5.73,3.78,5.73s3.79-2.57,3.79-5.73c0-2.73-1.29-5.09-3.06-5.62l.23-.77c2.1.63,3.63,3.32,3.63,6.39C81.85,1370.69,79.79,1373.62,77.26,1373.62Z" fill="url(#linear-gradient-39)"/><rect x="238.62" y="1461.35" width="9.68" height="0.8" transform="translate(-962.31 600.28) rotate(-45)" fill="#aa83d9"/><rect x="236.27" y="1466.4" width="12.42" height="0.8" transform="translate(-966.29 601.25) rotate(-45.01)" fill="#aa83d9"/><rect x="242.8" y="1458.83" width="0.8" height="11.66" transform="translate(-964.44 600.96) rotate(-45)" fill="#aa83d9"/><path d="M49.36,1454.15a39.88,39.88,0,0,1-16.45-3.29l.71-1.44a42.42,42.42,0,0,0,30.61.52l.53,1.51A45.65,45.65,0,0,1,49.36,1454.15Z" fill="#fbfbff"/><path d="M94.6,1563.57H55.84l-9.65-51.92a18.87,18.87,0,0,1,18.55-22.31h.39a18.86,18.86,0,0,1,18.54,15.41Z" fill="#e2e2e2"/><path d="M85.91,1556.35H61.85l-8.55-46a11.62,11.62,0,0,1,11.44-13.76h.39a11.64,11.64,0,0,1,11.44,9.5Zm-22.72-1.61H84l-9-48.37a10,10,0,0,0-9.86-8.2h-.39A10,10,0,0,0,54.88,1510Z" fill="#cfcfcf"/><path d="M246,1563.57H284.8l9.65-51.92a18.87,18.87,0,0,0-18.55-22.31h-.39A18.86,18.86,0,0,0,257,1504.75Z" fill="#e2e2e2"/><path d="M278.79,1556.35H254.74l9.34-50.28a11.62,11.62,0,0,1,11.44-9.5h.38a11.62,11.62,0,0,1,11.44,13.76Zm-22.12-1.61h20.78l8.31-44.71a10,10,0,0,0-9.86-11.86h-.38a10.05,10.05,0,0,0-9.87,8.2Z" fill="#cfcfcf"/><path d="M269.62,1641H71a15.38,15.38,0,0,1-15-12.13L45.87,1582.2h248.9l-10.12,46.69A15.38,15.38,0,0,1,269.62,1641Z" fill="#cfcfcf"/><rect x="45.87" y="1560.36" width="248.9" height="35.91" rx="17.78" fill="#ebebeb"/><path d="M65.76,1692.68h-.09a4.49,4.49,0,0,1-4.39-5.38L70.63,1641h15L70,1689.56A4.48,4.48,0,0,1,65.76,1692.68Z" fill="#cfcfcf"/><polygon points="68.96 1649.28 82.95 1649.28 85.6 1641.02 70.63 1641.02 68.96 1649.28" fill="#bdbdbd"/><path d="M275.15,1692.68h.09a4.49,4.49,0,0,0,4.4-5.38L270.28,1641h-15l15.57,48.54A4.49,4.49,0,0,0,275.15,1692.68Z" fill="#cfcfcf"/><polygon points="271.96 1649.28 257.96 1649.28 255.31 1641.02 270.29 1641.02 271.96 1649.28" fill="#bdbdbd"/><rect x="227.47" y="1340.78" width="21.25" height="21.25" transform="translate(-885.86 564.18) rotate(-45)" fill="#00ce8c"/><rect width="1366" height="2013.93" fill="#2487c1" opacity="0.7"/></g></svg>