<svg xmlns="http://www.w3.org/2000/svg" width="179.34" height="39.184" viewBox="0 0 179.34 39.184">
  <g id="Group_85" data-name="Group 85" transform="translate(-690.175 -1243.408)">
    <path id="Path_385" data-name="Path 385" d="M170.3,39.184H9.042A9.042,9.042,0,0,1,0,30.141V9.042A9.042,9.042,0,0,1,9.042,0H170.3a9.042,9.042,0,0,1,9.042,9.042v21.1A9.042,9.042,0,0,1,170.3,39.184Zm7.535-30.141A7.536,7.536,0,0,0,170.3,1.507H9.042A7.536,7.536,0,0,0,1.507,9.042v21.1a7.536,7.536,0,0,0,7.535,7.535H170.3a7.536,7.536,0,0,0,7.535-7.535Z" transform="translate(690.175 1243.408)" fill="#424770" fill-rule="evenodd" opacity="0.349"/>
    <path id="Path_386" data-name="Path 386" d="M87.133,23.442H85.166l1.522-3.759L83.659,12.04h2.078l1.9,5.2,1.918-5.2h2.078Zm-7.55-3.282a3.293,3.293,0,0,1-2.013-.746v.556h-2.03V8.566h2.03v4.013a3.375,3.375,0,0,1,2.013-.729c2.125,0,3.584,1.712,3.584,4.155S81.707,20.16,79.582,20.16Zm-.428-6.566a2.24,2.24,0,0,0-1.585.714V17.7a2.244,2.244,0,0,0,1.585.713c1.142,0,1.935-.983,1.935-2.41S80.3,13.594,79.154,13.594Zm-11.833,5.82a3.226,3.226,0,0,1-2.013.746c-2.11,0-3.584-1.714-3.584-4.155S63.2,11.85,65.307,11.85a3.3,3.3,0,0,1,2.013.729V8.566h2.047v11.4H67.321Zm0-5.106a2.179,2.179,0,0,0-1.569-.714c-1.159,0-1.952.984-1.952,2.411s.793,2.41,1.952,2.41a2.183,2.183,0,0,0,1.569-.713ZM55.236,16.559a2.266,2.266,0,0,0,2.41,2.03,4.862,4.862,0,0,0,2.363-.746v1.7a6.477,6.477,0,0,1-2.7.618,3.977,3.977,0,0,1-4.075-4.218,3.863,3.863,0,0,1,3.917-4.092c2.078,0,3.489,1.634,3.489,3.964a6.26,6.26,0,0,1-.032.746Zm1.84-3.141a1.857,1.857,0,0,0-1.84,1.825h3.457A1.72,1.72,0,0,0,57.076,13.419ZM49.89,14.673v5.3H47.86V12.04h2.03v.793a2.686,2.686,0,0,1,1.95-.983,2.39,2.39,0,0,1,.666.078v1.808a2.667,2.667,0,0,0-.713-.095A2.5,2.5,0,0,0,49.89,14.673Zm-9.056,1.887a2.265,2.265,0,0,0,2.41,2.03,4.866,4.866,0,0,0,2.363-.746v1.7a6.488,6.488,0,0,1-2.7.618,3.977,3.977,0,0,1-4.075-4.218,3.863,3.863,0,0,1,3.917-4.092c2.077,0,3.489,1.634,3.489,3.964a6.259,6.259,0,0,1-.032.746Zm1.839-3.141a1.857,1.857,0,0,0-1.839,1.825h3.457A1.721,1.721,0,0,0,42.673,13.419ZM33.743,19.97l-1.619-5.392-1.6,5.392H28.7l-2.728-7.93H28l1.6,5.392,1.6-5.392h1.839l1.6,5.392,1.6-5.392h2.03l-2.711,7.93Zm-12.4.19A3.964,3.964,0,0,1,17.247,16a3.955,3.955,0,0,1,4.092-4.155A3.943,3.943,0,0,1,25.415,16,3.952,3.952,0,0,1,21.339,20.16Zm0-6.613c-1.189,0-2.013,1-2.013,2.458s.824,2.458,2.013,2.458c1.174,0,2-1,2-2.458S22.513,13.547,21.339,13.547Zm-8.914,2.5H10.6V19.97H8.571V9.057h3.854a3.51,3.51,0,1,1,0,6.994Zm-.285-5.344H10.6v3.7H12.14a1.853,1.853,0,1,0,0-3.7Z" transform="translate(694.521 1247.752)" fill="#424770" fill-rule="evenodd" opacity="0.502"/>
    <path id="Path_387" data-name="Path 387" d="M132.333,19.031h-8.378c.191,2.006,1.661,2.6,3.329,2.6a9.053,9.053,0,0,0,4.2-.946v3.447a9.581,9.581,0,0,1-4.743,1.109c-4.169,0-7.089-2.61-7.089-7.77,0-4.358,2.478-7.819,6.548-7.819s6.186,3.459,6.186,7.841C132.39,17.9,132.353,18.8,132.333,19.031Zm-6.156-5.894c-1.07,0-2.259.808-2.259,2.735h4.425C128.342,13.946,127.227,13.137,126.177,13.137Zm-13.447,12.1a4.8,4.8,0,0,1-3.028-1.082L109.692,29l-4.279.91,0-19.975h3.768l.223,1.056a4.793,4.793,0,0,1,3.352-1.341c3.005,0,5.835,2.707,5.835,7.689C118.59,22.774,115.79,25.237,112.729,25.237Zm-1-11.8a2.581,2.581,0,0,0-2.044.848l.026,6.358a2.556,2.556,0,0,0,2.018.812c1.582,0,2.643-1.723,2.643-4.027C114.375,15.192,113.3,13.438,111.731,13.438Zm-12.5-3.505h4.3v15h-4.3Zm0-4.789,4.3-.913V7.716l-4.3.913Zm-4.58,9.62V24.931H90.37v-15h3.7l.268,1.264A2.918,2.918,0,0,1,97.91,9.934v3.933A3.04,3.04,0,0,0,94.647,14.763ZM85.475,19.67c0,2.521,2.7,1.736,3.248,1.518V24.67a6.6,6.6,0,0,1-3,.567,4.311,4.311,0,0,1-4.446-4.4l.02-13.728,4.178-.889,0,3.716h3.249v3.649H85.475Zm-5.333.729c0,3.08-2.452,4.838-6.01,4.838a11.881,11.881,0,0,1-4.679-.971V20.181a10.788,10.788,0,0,0,4.684,1.367c.954,0,1.641-.256,1.641-1.047,0-2.042-6.5-1.273-6.5-6.01,0-3.029,2.313-4.842,5.784-4.842a11.315,11.315,0,0,1,4.253.782v4.031a9.58,9.58,0,0,0-4.256-1.1c-.9,0-1.454.259-1.454.927C73.6,16.213,80.142,15.3,80.142,20.4Z" transform="translate(725.301 1245.553)" fill="#424770" fill-rule="evenodd" opacity="0.502"/>
  </g>
</svg>
