<?xml version="1.0" encoding="UTF-8" standalone="no"?>
<svg
   xmlns:dc="http://purl.org/dc/elements/1.1/"
   xmlns:cc="http://creativecommons.org/ns#"
   xmlns:rdf="http://www.w3.org/1999/02/22-rdf-syntax-ns#"
   xmlns:svg="http://www.w3.org/2000/svg"
   xmlns="http://www.w3.org/2000/svg"
   viewBox="0 0 92.275597 92.275597"
   height="92.275597"
   width="92.275597"
   xml:space="preserve"
   id="svg2"
   version="1.1"><metadata
     id="metadata8"><rdf:RDF><cc:Work
         rdf:about=""><dc:format>image/svg+xml</dc:format><dc:type
           rdf:resource="http://purl.org/dc/dcmitype/StillImage" /></cc:Work></rdf:RDF></metadata><defs
     id="defs6"><clipPath
       id="clipPath18"
       clipPathUnits="userSpaceOnUse"><path
         id="path16"
         d="M 0,69.207 H 69.207 V 0 H 0 Z" /></clipPath></defs><g
     transform="matrix(1.3333333,0,0,-1.3333333,0,92.2756)"
     id="g10"><g
       id="g12"><g
         clip-path="url(#clipPath18)"
         id="g14"><g
           transform="translate(69.2066,34.6031)"
           id="g20"><path
             id="path22"
             style="fill:#7db6d4;fill-opacity:1;fill-rule:nonzero;stroke:none"
             d="m 0,0 c 0,-19.111 -15.492,-34.603 -34.603,-34.603 -19.111,0 -34.604,15.492 -34.604,34.603 0,19.111 15.493,34.604 34.604,34.604 C -15.492,34.604 0,19.111 0,0" /></g><g
           transform="translate(29.8526,18.7457)"
           id="g24"><path
             id="path26"
             style="fill:#ffffff;fill-opacity:1;fill-rule:nonzero;stroke:none"
             d="M 0,0 C 0,1.191 0.406,2.175 1.218,2.949 2.03,3.723 3.069,4.108 4.336,4.108 5.603,4.108 6.642,3.723 7.454,2.949 8.266,2.175 8.672,1.191 8.672,0 8.672,-1.173 8.275,-2.144 7.48,-2.908 6.687,-3.673 5.639,-4.055 4.336,-4.055 3.033,-4.055 1.985,-3.673 1.191,-2.908 0.397,-2.144 0,-1.173 0,0 m 0.776,8.203 c 0,2.501 0.304,4.492 0.911,5.975 0.606,1.481 1.717,2.942 3.332,4.378 1.614,1.439 2.689,2.61 3.225,3.511 0.535,0.903 0.802,1.855 0.802,2.857 0,3.02 -1.391,4.53 -4.175,4.53 -1.32,0 -2.377,-0.406 -3.171,-1.22 C 0.906,27.42 0.491,26.298 0.455,24.866 h -7.761 c 0.035,3.412 1.137,6.082 3.305,8.011 2.168,1.927 5.126,2.893 8.872,2.893 3.783,0 6.718,-0.915 8.806,-2.746 2.087,-1.831 3.131,-4.416 3.131,-7.756 0,-1.517 -0.339,-2.951 -1.017,-4.301 -0.678,-1.347 -1.865,-2.843 -3.56,-4.485 L 10.063,14.419 C 8.708,13.114 7.931,11.586 7.735,9.838 L 7.628,8.203 Z" /></g></g></g></g></svg>