<svg xmlns="http://www.w3.org/2000/svg" width="167.422" height="34.551" viewBox="0 0 167.422 34.551">
  <g id="Group_86" data-name="Group 86" transform="translate(-476 -1246)">
    <text id="Secure_Server" data-name="Secure Server" transform="translate(515.422 1253)" fill="gray" font-size="18" font-family="Roboto-Bold, Roboto" font-weight="700"><tspan x="0" y="19">Secure Server</tspan></text>
    <path id="Path_379" data-name="Path 379" d="M29.388,9.374V9.347c-.015-.332-.025-.683-.031-1.074a3.662,3.662,0,0,0-3.448-3.587A14.21,14.21,0,0,1,16.236.609L16.214.588a2.211,2.211,0,0,0-3.005,0l-.022.021A14.211,14.211,0,0,1,3.515,4.686,3.662,3.662,0,0,0,.067,8.273c-.006.388-.016.739-.031,1.073l0,.062C-.043,13.46-.138,18.5,1.548,23.077a17.4,17.4,0,0,0,4.174,6.5,21.836,21.836,0,0,0,8.169,4.832,2.526,2.526,0,0,0,.335.091,2.473,2.473,0,0,0,.972,0,2.529,2.529,0,0,0,.336-.092,21.85,21.85,0,0,0,8.16-4.834,17.424,17.424,0,0,0,4.174-6.5C29.561,18.483,29.465,13.432,29.388,9.374Zm-3.422,13c-1.779,4.823-5.41,8.135-11.1,10.125a.521.521,0,0,1-.064.017.456.456,0,0,1-.178,0,.513.513,0,0,1-.064-.017c-5.7-1.987-9.33-5.3-11.108-10.12C1.9,18.158,1.984,13.531,2.062,9.448V9.425c.016-.351.026-.718.032-1.122A1.628,1.628,0,0,1,3.628,6.71,17.788,17.788,0,0,0,9.666,5.382a15.8,15.8,0,0,0,4.92-3.306.187.187,0,0,1,.251,0,15.8,15.8,0,0,0,4.92,3.306A17.788,17.788,0,0,0,25.795,6.71,1.627,1.627,0,0,1,27.329,8.3c.006.406.017.773.032,1.122C27.439,13.513,27.524,18.144,25.966,22.371Zm0,0" transform="translate(476 1246.001)" fill="#ccc"/>
    <path id="Path_380" data-name="Path 380" d="M99.009,128.41a8.611,8.611,0,1,0,8.611,8.611A8.62,8.62,0,0,0,99.009,128.41Zm0,15.194a6.583,6.583,0,1,1,6.583-6.583A6.591,6.591,0,0,1,99.009,143.6Zm0,0" transform="translate(391.701 1126.255)" fill="#ccc"/>
    <path id="Path_381" data-name="Path 381" d="M160.488,212.288l-4,4L155.4,215.2a1.014,1.014,0,1,0-1.434,1.433l1.8,1.8a1.014,1.014,0,0,0,1.433,0l4.716-4.716a1.014,1.014,0,0,0-1.434-1.433Zm0,0" transform="translate(332.697 1048.314)" fill="#ccc"/>
  </g>
</svg>
