<svg xmlns="http://www.w3.org/2000/svg" width="125.43" height="78.393" viewBox="0 0 125.43 78.393">
  <g id="Group_5" data-name="Group 5" transform="translate(-329.923)">
    <rect id="Rectangle_2" data-name="Rectangle 2" width="125.43" height="78.393" rx="4.18" transform="translate(329.923)" fill="#026380"/>
    <g id="Group_4" data-name="Group 4">
      <path id="Path_10" data-name="Path 10" d="M368.839,37.371V36.117l-.6,1.254h-5.193l-.653-1.346v1.346h-9.707l-1.146-2.715H349.6l-1.215,2.715h-5.033V29.176l3.689-8.348H354.1l.993,2.365V20.846h8.638l1.9,3.982,1.859-4h27.274a4.658,4.658,0,0,1,2.371.643l-.006-.643H404v.9a5.6,5.6,0,0,1,3.062-.9h12.125l1.065,2.4v-2.4h7.769l1.41,2.4v-2.4h7.428V37.387h-7.631L427.436,34.5v2.871h-9.484l-1.334-2.957h-1.859l-1.25,2.957h-5.741a7.428,7.428,0,0,1-3.746-1.176v1.176H392.6V33.508c0-.561-.43-.522-.43-.522h-.418v4.385Z" fill="#fff"/>
      <path id="Path_11" data-name="Path 11" d="M363.136,40.957h15.015l2.168,2.453,2.217-2.453h11.545a5.3,5.3,0,0,1,2.113.576v-.576h10.281a5.249,5.249,0,0,1,2.4.652v-.652h13.215v.6a4.482,4.482,0,0,1,2.207-.6h8.609v.6a5.26,5.26,0,0,1,2.231-.6H441.9v15.6a3.723,3.723,0,0,1-2.726,1.006h-8.912v-.5a4.577,4.577,0,0,1-2.141.5H404.444V53.533c0-.4-.172-.468-.525-.468h-.326v4.5h-7.4V53.092a4.979,4.979,0,0,1-2.191.441h-2.66v4.033h-9.119l-2.075-2.531-2.218,2.531h-14.8Z" fill="#fff"/>
      <path id="Path_12" data-name="Path 12" d="M410.462,43.447h9.424v2.527h-6.539v2.2H419.7V50.4h-6.355v2.318h6.539v2.465h-9.424Z" fill="#026380"/>
      <path id="Path_13" data-name="Path 13" d="M438.091,48.021c3.541.182,3.838,1.952,3.838,3.838a3.43,3.43,0,0,1-3.7,3.381h-6.054V52.723h4.716c.8,0,1.993,0,1.993-1.127,0-.536-.209-.877-1.061-.967-.379-.055-1.779-.133-1.992-.137-3.2-.084-3.945-1.676-3.945-3.613a3.235,3.235,0,0,1,3.435-3.4h6.053V45.99h-4.43c-1.008.01-2.1-.119-2.1,1.02,0,.72.538.865,1.219.931C436.307,47.941,437.88,48.023,438.091,48.021Z" fill="#026380"/>
      <path id="Path_14" data-name="Path 14" d="M427.237,48.021c3.543.182,3.84,1.952,3.84,3.838a3.429,3.429,0,0,1-3.7,3.381h-6.053V52.723h4.717c.8,0,1.992,0,1.992-1.127,0-.536-.211-.877-1.063-.967-.378-.055-1.781-.133-1.99-.137-3.2-.084-3.943-1.676-3.943-3.613a3.234,3.234,0,0,1,3.432-3.4h6.052V45.99H426.1c-1.01.01-2.1-.119-2.1,1.02,0,.72.539.865,1.221.931C425.456,47.941,427.028,48.023,427.237,48.021Z" fill="#026380"/>
      <path id="Path_15" data-name="Path 15" d="M393.061,43.473H382.946l-3.3,3.642-3.2-3.668H365.087V55.188h10.992l3.461-3.879,3.379,3.906h5.531V51.228h3.877c1.494,0,4.221-.05,4.221-4.165A3.252,3.252,0,0,0,393.061,43.473Zm-18.486,9.25h-6.646V50.4h6.357V48.178h-6.357v-2.2l7.009.015,2.807,3.195Zm11.018,1.363-4.141-4.9,4.141-4.585Zm6.5-5.276H388.5V45.992h3.6a1.42,1.42,0,1,1-.011,2.818Z" fill="#026380"/>
      <path id="Path_16" data-name="Path 16" d="M406.985,49.867a3.2,3.2,0,0,0,1.992-3.25c0-2.514-2.043-3.142-3.459-3.142h-7.494v11.74h2.883V51.072h3.774c1,0,1.388,1,1.414,1.993l.076,2.15h2.806l-.1-2.412C408.872,50.914,408.35,50.023,406.985,49.867ZM404.5,48.652h-3.59v-2.66h3.6a1.384,1.384,0,0,1,1.586,1.35C406.1,48.127,405.677,48.652,404.5,48.652Z" fill="#026380"/>
      <rect id="Rectangle_3" data-name="Rectangle 3" width="2.883" height="11.754" transform="translate(399.179 23.18)" fill="#026380"/>
      <path id="Path_17" data-name="Path 17" d="M375.583,23.193H385v2.527h-6.537v2.2h6.353V30.15h-6.353v2.318H385v2.465h-9.42Z" fill="#026380"/>
      <path id="Path_18" data-name="Path 18" d="M395.677,29.586a3.2,3.2,0,0,0,1.992-3.25c0-2.516-2.045-3.143-3.459-3.143h-7.5V34.934H389.6V30.793h3.773c1,0,1.391.994,1.416,1.99l.078,2.151h2.8l-.1-2.413C397.565,30.635,397.04,29.744,395.677,29.586Zm-2.491-1.215H389.6v-2.66h3.6a1.384,1.384,0,0,1,1.586,1.349C394.786,27.848,394.366,28.371,393.186,28.371Z" fill="#026380"/>
      <path id="Path_19" data-name="Path 19" d="M368.934,23.193,365.4,31.068l-3.525-7.875h-4.52V34.5l-5.031-11.307h-3.814L343.37,34.934h3.041l1.125-2.621h5.754l1.141,2.621h5.8V26.219l3.854,8.715h2.621l3.943-8.571v8.571h2.883V23.193Zm-20.308,6.586,1.719-4.1,1.791,4.1Z" fill="#026380"/>
      <path id="Path_20" data-name="Path 20" d="M431.806,23.188v8.128l-4.862-8.128h-4.26V34.213l-4.91-11.02H413.96l-3.971,9.094s-1.678,0-1.848-.041c-.693-.143-1.779-.633-1.792-2.7v-.852c0-2.751,1.494-2.953,3.41-2.953h1.779v-2.55h-3.764c-1.31,0-4.162,1-4.258,5.822-.066,3.25,1.35,5.93,4.547,5.93h3.8l1.125-2.622h5.752l1.141,2.622h5.687v-8.6l5.188,8.6h3.931V23.188Zm-17.706,6.6,1.717-4.1,1.809,4.1Z" fill="#026380"/>
    </g>
  </g>
</svg>
