<svg xmlns="http://www.w3.org/2000/svg" width="125.43" height="78.393" viewBox="0 0 125.43 78.393">
  <g id="Group_7" data-name="Group 7" transform="translate(-162.305 -1.938)">
    <path id="Rectangle_4" data-name="Rectangle 4" d="M4.18,0H121.25a4.18,4.18,0,0,1,4.18,4.18V74.211a4.182,4.182,0,0,1-4.182,4.182H4.182A4.182,4.182,0,0,1,0,74.211V4.18A4.18,4.18,0,0,1,4.18,0Z" transform="translate(162.305 1.938)" fill="#13457c"/>
    <g id="Group_6" data-name="Group 6">
      <path id="Path_21" data-name="Path 21" d="M240.07,63.637l1.162-.03,1.146-.083,1.123-.143,1.117-.2,1.086-.25,1.07-.3,1.047-.357,1.023-.4,1-.455.973-.493.941-.547.918-.584.881-.629.85-.668.82-.706.781-.751.752-.783.7-.821.67-.849.629-.881.584-.918.547-.943.492-.971.455-1,.4-1.026.358-1.048.3-1.069.25-1.086.2-1.115L262.5,43.4l.084-1.146.029-1.162-.029-1.154L262.5,38.8l-.145-1.123-.2-1.1-.25-1.084-.3-1.063-.358-1.047-.4-1.018-.455-.994L259.9,30.4l-.547-.933-.584-.918-.629-.881-.67-.843-.7-.819-.752-.783-.781-.744-.82-.706-.85-.668-.881-.629-.918-.585-.941-.539-.973-.493-1-.457-1.023-.4-1.047-.356-1.07-.3-1.086-.25-1.117-.2-1.123-.145-1.146-.084-1.162-.03-1.152.03-1.147.084-1.123.145-1.109.2-1.086.25-1.07.3L232.344,20l-1.025.4-.994.457-.963.493-.941.539-.912.585-.879.629-.852.668-.812.706-.781.744-.744.783-.705.819-.668.843-.623.881-.586.918-.537.933-.5.973-.447.994-.4,1.018-.35,1.047-.3,1.063-.252,1.084-.2,1.1-.143,1.123-.084,1.139-.031,1.154.031,1.162.084,1.146.143,1.124.2,1.115.252,1.086.3,1.069.35,1.048.4,1.026.447,1,.5.971.537.943.586.918.623.881.668.849.705.821.744.783.781.751.813.706.852.668.879.629.912.584.941.547.963.493.994.455,1.025.4,1.039.357,1.07.3,1.086.25,1.109.2,1.123.143,1.147.083,1.152.03Z" fill="#fbb231" fill-rule="evenodd"/>
      <path id="Path_22" data-name="Path 22" d="M209.967,63.637l1.152-.03,1.146-.083,1.125-.143,1.107-.2,1.086-.25,1.068-.3,1.041-.357,1.025-.4.994-.455.965-.493.939-.547.912-.584.881-.629.85-.668.813-.706.781-.751.744-.783.707-.821.666-.849.623-.881.584-.918.539-.943.5-.971.447-1,.4-1.026.35-1.048.3-1.069.252-1.086.2-1.115.146-1.124.082-1.146.029-1.162-.029-1.154-.082-1.139-.146-1.123-.2-1.1-.252-1.084-.3-1.063-.35-1.047-.4-1.018-.447-.994-.5-.973-.539-.933-.584-.918-.623-.881-.666-.843L226.6,26l-.744-.783-.781-.744-.812-.706-.85-.668-.881-.629-.912-.585-.939-.539-.965-.493-.994-.457-1.025-.4-1.041-.356-1.068-.3-1.086-.25-1.107-.2-1.125-.145-1.146-.084-1.152-.03-1.162.03-1.146.084-1.123.145-1.117.2-1.084.25-1.07.3L202.215,20l-1.023.4-1,.457-.971.493-.941.539-.92.585-.881.629-.85.668-.82.706-.781.744-.752.783-.705.819-.668.843-.631.881-.584.918-.547.933-.492.973-.457.994-.4,1.018-.357,1.047-.3,1.063-.25,1.084-.2,1.1-.145,1.123-.084,1.139-.029,1.154.029,1.162.084,1.146.145,1.124.2,1.115.25,1.086.3,1.069.357,1.048.4,1.026.457,1,.492.971.547.943.584.918.631.881.668.849.705.821.752.783.781.751.82.706.85.668.881.629.92.584.941.547.971.493,1,.455,1.023.4,1.049.357,1.07.3,1.084.25,1.117.2,1.123.143,1.146.083,1.162.03Z" fill="#ec1c2e" fill-rule="evenodd"/>
      <path id="Path_23" data-name="Path 23" d="M222.385,27.263h11.957V26.041H223.416l-1.031,1.223Z" fill="#fbb231" fill-rule="evenodd"/>
      <path id="Path_24" data-name="Path 24" d="M220.594,29.98h13.748V28.757H221.314l-.721,1.223Z" fill="#fbb231" fill-rule="evenodd"/>
      <path id="Path_25" data-name="Path 25" d="M219.256,32.69h15.086V31.468H219.789l-.533,1.223Z" fill="#fbb231" fill-rule="evenodd"/>
      <path id="Path_26" data-name="Path 26" d="M218.338,35.408h16V34.186H218.719l-.381,1.222Z" fill="#fbb231" fill-rule="evenodd"/>
      <path id="Path_27" data-name="Path 27" d="M218.871,48.54h15.508V47.318H218.49l.381,1.222Z" fill="#fbb231" fill-rule="evenodd"/>
      <path id="Path_28" data-name="Path 28" d="M220.016,51.257h14.363V50.035H219.447l.568,1.222Z" fill="#fbb231" fill-rule="evenodd"/>
      <path id="Path_29" data-name="Path 29" d="M221.625,53.967h12.754V52.745H220.857l.768,1.222Z" fill="#fbb231" fill-rule="evenodd"/>
      <path id="Path_30" data-name="Path 30" d="M223.842,56.685h10.537v-1.23H222.772l1.07,1.23Z" fill="#fbb231" fill-rule="evenodd"/>
      <path id="Path_31" data-name="Path 31" d="M217.8,38.118h16.541V36.9H218.035l-.234,1.222Z" fill="#fbb231" fill-rule="evenodd"/>
      <path id="Path_32" data-name="Path 32" d="M227.881,45.831h6.307V44.607h-6.08l-.227,1.223Z" fill="#fbb231" fill-rule="evenodd"/>
      <path id="Path_33" data-name="Path 33" d="M228.381,43.12h5.807V41.89h-5.578l-.229,1.229Z" fill="#fbb231" fill-rule="evenodd"/>
      <path id="Path_34" data-name="Path 34" d="M217.383,41.89h1.639V43.12h-1.562l-.076-1.229Z" fill="#fbb231" fill-rule="evenodd"/>
      <path id="Path_35" data-name="Path 35" d="M214.322,40.409l-.105-.007-.107-.015-.1-.015-.1-.016-.092-.015-.1-.016-.1-.015-.107-.016-.105-.014-.121-.008-.137-.008-.143-.008h-.16l-.176.008-.2.016-.219.014-.152.023-.145.023-.129.045-.115.045-.105.054-.1.06-.076.077-.068.067-.047.083-.039.083-.014.091v.091l.023.1.029.1.061.1.076.1.152.144.184.114.211.1.229.083.242.077.252.083.25.092.242.1.229.129.211.159.191.191.158.235.121.288.076.342.031.411-.031.478-.053.356-.092.311-.121.289-.152.25-.174.221-.2.189-.213.167-.234.145-.242.113-.252.1-.258.076-.266.06-.258.047-.252.022-.25.016-.234.006h-.326l-.3-.006h-.266l-.25-.007-.229-.008-.205-.016-.182-.015-.174-.022-.16-.016-.145-.03-.143-.024-.131-.037-.129-.031-.121-.046-.121-.044-.129-.046.342-1.677.068.015.084.023.105.029.129.032.137.03.15.03.168.038.182.031.189.03.2.031.207.022.211.023.221.007.221.008h.221l.219-.008.221-.045.176-.062.137-.083.105-.106.074-.106.061-.123.039-.12.031-.114.014-.221-.068-.19-.129-.152-.189-.128-.227-.113-.268-.114-.295-.107-.3-.121-.3-.136-.289-.16-.266-.2-.242-.235-.191-.289-.135-.342-.068-.409.008-.486.037-.3.053-.282.076-.257.092-.243.121-.228.137-.2.16-.191.189-.165.221-.145.242-.122.273-.113.3-.083.34-.069.373-.053.408-.03.449-.008h.279l.258.008.236.008.213.007.189.015.176.015.15.015.137.016.129.015.105.023.1.016.09.015.074.015.07.009.068.015.059.008-.387,1.714Z" fill="#fff" fill-rule="evenodd"/>
      <path id="Path_36" data-name="Path 36" d="M214.322,40.409h0l-.105-.007-.107-.015-.1-.015-.1-.016-.092-.015-.1-.016-.1-.015-.107-.016-.105-.014-.121-.008-.137-.008-.143-.008h-.16l-.176.008-.2.016-.219.014h0l-.152.023-.145.023-.129.045-.115.045-.105.054-.1.06-.076.077-.068.067-.047.083-.039.083-.014.091v.091l.023.1.029.1.061.1.076.1h0l.152.144.184.114.211.1.229.083.242.077.252.083.25.092.242.1.229.129.211.159.191.191.158.235.121.288.076.342.031.411-.031.478h0l-.053.356-.092.311-.121.289-.152.25-.174.221-.2.189-.213.167-.234.145-.242.113-.252.1-.258.076-.266.06-.258.047-.252.022-.25.016-.234.006h-.326l-.3-.006h-.266l-.25-.007-.229-.008-.205-.016-.182-.015-.174-.022-.16-.016-.145-.03-.143-.024-.131-.037-.129-.031-.121-.046-.121-.044-.129-.046.342-1.677h0l.068.015.084.023.105.029.129.032.137.03.15.03.168.038.182.031.189.03.2.031.207.022.211.023.221.007.221.008h.221l.219-.008h0l.221-.045.176-.062.137-.083.105-.106.074-.106.061-.123.039-.12.031-.114h0l.014-.221-.068-.19-.129-.152-.189-.128-.227-.113-.268-.114-.295-.107-.3-.121-.3-.136-.289-.16-.266-.2-.242-.235-.191-.289-.135-.342-.068-.409.008-.486h0l.037-.3.053-.282.076-.257.092-.243.121-.228.137-.2.16-.191.189-.165.221-.145.242-.122.273-.113.3-.083.34-.069.373-.053.408-.03.449-.008h.279l.258.008.236.008.213.007.189.015.176.015.15.015.137.016.129.015.105.023.1.016.09.015.074.015.07.009.068.015.059.008-.387,1.714" fill="none" stroke="#fff" stroke-miterlimit="2.613" stroke-width="0.216"/>
      <path id="Path_37" data-name="Path 37" d="M216.123,36.82h2.1l-.311,1.837h1.268l-.273,1.715-1.336-.038-.729,4.235-.008.152.037.129.076.1.1.083.137.054.152.045.166.03.182.017.168-.008.152-.015.135-.023.123-.03.1-.03.068-.022.045-.016.016-.007-.266,1.412-.053.038-.053.03-.055.03-.053.03-.053.023-.061.023-.068.022-.068.023-.076.022-.076.016-.09.015-.092.016-.1.016-.113.015-.121.015-.129.015h-.576l-.3-.023-.266-.03-.242-.045-.205-.054-.176-.069-.143-.074-.129-.092-.1-.1-.076-.106-.053-.129-.039-.13-.021-.143-.008-.16v-.167l.023-.174.021-.19,1.451-8.281Z" fill="#fff" fill-rule="evenodd"/>
      <path id="Path_38" data-name="Path 38" d="M216.123,36.82h2.1l-.311,1.837h1.268l-.273,1.715-1.336-.038-.729,4.235h0l-.008.152.037.129.076.1.1.083.137.054.152.045.166.03.182.017h0l.168-.008.152-.015.135-.023.123-.03.1-.03.068-.022.045-.016.016-.007-.266,1.412h0l-.053.038-.053.03-.055.03-.053.03-.053.023-.061.023-.068.022-.068.023-.076.022-.076.016-.09.015-.092.016-.1.016-.113.015-.121.015-.129.015h-.576l-.3-.023-.266-.03-.242-.045-.205-.054-.176-.069-.143-.074-.129-.092-.1-.1-.076-.106-.053-.129-.039-.13-.021-.143-.008-.16v-.167l.023-.174.021-.19,1.451-8.281" fill="none" stroke="#fff" stroke-miterlimit="2.613" stroke-width="0.216"/>
      <path id="Path_39" data-name="Path 39" d="M220.857,43.234h0l-.02.128-.008.136.012.145.031.145.055.144.061.138.082.143.092.128.107.13.113.115.121.113.137.09.135.084.154.067.15.053.152.031h0l.2.03.188.023.2.022.2.016.2.007h.205l.2-.007.2-.016.205-.03.207-.039.211-.045.205-.068.213-.083.221-.092.211-.12.223-.129-.3,1.868h0l-.121.06-.123.061-.121.044-.113.047-.113.037-.123.039-.121.029-.129.024-.137.023-.152.016-.158.015-.176.015-.2.009h-.205l-.234.006h-.25l-.373-.006-.379-.038-.379-.054-.381-.092-.371-.113-.357-.146-.342-.189-.318-.221-.3-.258-.258-.311-.219-.35-.184-.4-.129-.448-.084-.509-.021-.561.037-.622h0l.031-.243.045-.281.061-.295.084-.32.115-.325.135-.327.176-.333.211-.319.244-.3.295-.288.334-.258.381-.228.44-.19.494-.137.547-.09.615-.032h0l.295.008.313.03.309.053.313.076.3.115.295.136.273.182.25.212.229.259.189.3.152.349.105.4.061.454.008.516-.053.577-.113.639-.039.463h-5.533l.35-1.5h3.324l.016-.189-.008-.182-.016-.167-.029-.151-.055-.145-.053-.13L223.7,40.7l-.076-.106-.09-.091-.1-.076-.113-.068L223.2,40.3l-.119-.044-.123-.031-.129-.023-.135-.016h0l-.146.008-.135.023-.129.031-.129.044-.131.06-.113.069-.115.083-.1.091-.1.106-.092.113-.082.123-.07.13-.068.136-.053.151-.045.152-.031.159-.3,1.571" fill="none" stroke="#fff" stroke-miterlimit="2.613" stroke-width="0.216"/>
      <path id="Path_40" data-name="Path 40" d="M238.963,39.112l-.1-.053-.1-.046-.105-.053-.115-.053-.113-.045-.129-.046-.129-.046-.137-.045-.145-.038-.145-.03-.16-.031-.158-.023-.174-.016-.176-.015h-.561l-.2.015-.2.024-.215.037-.211.061-.213.084-.211.106-.215.136-.205.167-.2.2-.189.243-.182.281-.168.333-.158.379-.143.427-.123.485-.045.272-.031.266-.016.266.008.259.023.258.053.243.068.228.084.228.113.206.137.2.16.175.182.16.205.137.234.114.258.1.291.068.1.022.113.023.137.016.152.015.166.015h.365l.189-.015.2-.024.2-.037.189-.053.189-.06.189-.084.176-.1.158-.121.152-.137-.342,2.027-.045.038-.047.046-.061.054-.068.043-.082.061-.107.054-.121.053-.137.045-.174.054-.2.038-.229.031-.266.03-.295.015-.342.009-.387-.009-.428-.022-.348-.038-.35-.076-.35-.113-.348-.152-.334-.181-.318-.229-.3-.265-.281-.3-.25-.342-.213-.379-.182-.425-.137-.463-.09-.509-.031-.539.016-.592.082-.63.063-.311.068-.3.074-.3.076-.281.084-.266.1-.265.1-.25.105-.235.115-.235.113-.221.129-.212.137-.2.137-.19.15-.182.152-.167.16-.159.174-.152.176-.144.182-.129.191-.122.2-.114.205-.1.213-.091.221-.084.234-.076.234-.061.244-.054.258-.044.258-.039.273-.03.273-.014.289-.009.242.009.236.014.227.023.229.031.213.029.2.046.2.038.184.045.174.045.152.045.145.046.121.045.105.038.092.031.068.03.047.016-.381,2.1Z" fill="#fff" fill-rule="evenodd"/>
      <path id="Path_41" data-name="Path 41" d="M238.963,39.112h0l-.1-.053-.1-.046-.105-.053-.115-.053-.113-.045-.129-.046-.129-.046-.137-.045-.145-.038-.145-.03-.16-.031-.158-.023-.174-.016-.176-.015h-.561l-.2.015-.2.024-.215.037-.211.061-.213.084-.211.106-.215.136-.205.167-.2.2-.189.243-.182.281-.168.333-.158.379-.143.427-.123.485h0l-.045.272-.031.266-.016.266.008.259.023.258.053.243.068.228.084.228.113.206.137.2.16.175.182.16.205.137.234.114.258.1.291.068h0l.1.022.113.023.137.016.152.015.166.015h.365l.189-.015.2-.024.2-.037.189-.053.189-.06.189-.084.176-.1.158-.121.152-.137-.342,2.027h0l-.045.038-.047.046-.061.054-.068.043-.082.061-.107.054-.121.053-.137.045-.174.054-.2.038-.229.031-.266.03-.295.015-.342.009-.387-.009-.428-.022h0l-.348-.038-.35-.076-.35-.113-.348-.152-.334-.181-.318-.229-.3-.265-.281-.3-.25-.342-.213-.379-.182-.425-.137-.463-.09-.509-.031-.539.016-.592.082-.63h0l.063-.311.068-.3.074-.3.076-.281.084-.266.1-.265.1-.25.105-.235.115-.235.113-.221.129-.212.137-.2.137-.19.15-.182.152-.167.16-.159.174-.152.176-.144.182-.129.191-.122.2-.114.205-.1.213-.091.221-.084.234-.076.234-.061.244-.054.258-.044.258-.039.273-.03.273-.014.289-.009h0l.242.009.236.014.227.023.229.031.213.029.2.046.2.038.184.045.174.045.152.045.145.046.121.045.105.038.092.031.068.03.047.016-.381,2.1" fill="none" stroke="#fff" stroke-miterlimit="2.613" stroke-width="0.216"/>
      <path id="Path_42" data-name="Path 42" d="M257.65,46.786h-2.1l.152-.842v-.077l-.123.153-.127.135-.129.122-.137.107-.139.1-.137.082-.137.069-.145.069-.143.053-.145.038-.145.038-.152.022-.152.024-.145.015-.15.008h-.152l-.395-.031-.363-.083-.334-.129-.3-.174-.273-.221-.242-.257-.213-.282-.182-.318-.152-.343-.121-.355-.084-.372-.061-.388-.021-.387.006-.394.039-.387.068-.387.113-.449.139-.424.156-.387.191-.364.2-.342.227-.3.236-.272.25-.251.266-.221.281-.189.289-.167.287-.129.3-.107.3-.067.3-.045.311-.015.221.006.211.024.2.038.184.054.172.061.152.067.152.084.137.083.121.089.113.1.1.1.092.1.076.1.07.1.059.092.047.091h0l.531-2.983h2.064l-1.717,9.928Z" fill="#fff" fill-rule="evenodd"/>
      <path id="Path_43" data-name="Path 43" d="M257.65,46.786h-2.1l.152-.842v-.077h0l-.123.153-.127.135-.129.122-.137.107-.139.1-.137.082-.137.069-.145.069-.143.053-.145.038-.145.038-.152.022-.152.024-.145.015-.15.008h-.152l-.395-.031-.363-.083-.334-.129-.3-.174-.273-.221-.242-.257-.213-.282-.182-.318-.152-.343-.121-.355-.084-.372-.061-.388-.021-.387.006-.394.039-.387.068-.387h0l.113-.449.139-.424.156-.387.191-.364.2-.342.227-.3.236-.272.25-.251.266-.221.281-.189.289-.167.287-.129.3-.107.3-.067.3-.045.311-.015h0l.221.006.211.024.2.038.184.054.172.061.152.067.152.084.137.083.121.089.113.1.1.1.092.1.076.1.07.1.059.092.047.091h0l.531-2.983h2.064l-1.717,9.928" fill="none" stroke="#fff" stroke-miterlimit="2.613" stroke-width="0.216"/>
      <path id="Path_44" data-name="Path 44" d="M254.213,44.95l.213-.015.2-.045.182-.053.176-.083.158-.09.152-.115.143-.128.131-.138.113-.152.105-.167.1-.174.084-.181.074-.191.063-.2.053-.205.037-.2.037-.212.025-.22V42.17l-.01-.211-.022-.2-.031-.19-.053-.182-.061-.174L256,41.064l-.09-.145-.1-.123-.113-.105-.129-.091-.139-.061-.143-.038-.16-.016-.205.016-.189.03-.174.061-.176.076-.152.1-.15.122-.129.129-.129.145-.115.166-.105.176-.1.182-.084.2-.074.2-.061.207-.061.219-.047.221-.039.335.018.364.053.371.1.357.152.312.2.25.25.167.3.061Z" fill="#fbb231" fill-rule="evenodd"/>
      <path id="Path_45" data-name="Path 45" d="M207.6,45.1l-.3,1.685h-1.912l.053-.311.039-.281.029-.212.031-.114-.105.122-.123.122-.143.114-.16.105-.182.107-.191.09-.2.091-.2.076-.221.068-.221.054-.219.045-.229.03-.221.016-.219.007-.213-.023-.207-.03-.266-.069-.242-.076-.213-.1-.189-.114-.166-.121-.152-.137-.121-.145-.107-.151-.09-.16-.076-.168-.061-.166-.045-.167-.031-.175-.023-.175-.016-.167v-.167l.023-.3.047-.28.074-.266.1-.258.121-.243.137-.22.16-.212.182-.191.189-.174.213-.16.219-.143.229-.122.242-.1.252-.085.258-.068.266-.046h.016l.037-.008.053-.007.084-.007.092-.015.105-.008.113-.015.131-.015.129-.015.129-.015.137-.008.121-.015.121-.007.113-.009.105-.006h.26l.184.006.166.009h.166l.137.007.107.007.074.008H206l.016-.053.045-.136.039-.16.014-.143-.029-.167-.068-.153-.092-.136-.121-.114-.145-.1L205.5,40.4l-.184-.046-.2-.015-.213-.008-.229-.007h-.234l-.242.007-.25.016-.244.022-.242.023-.236.031-.227.03-.221.038-.2.037-.182.039-.168.047-.135.044-.107.053-.084.045.539-1.829.168-.068.166-.061.184-.053.182-.039.182-.038.2-.029.2-.031.205-.016.213-.015.219-.008.228-.008h.729l.266.008.266.008.213.015.229.039.236.053.24.068.234.092.23.106.227.129.213.144.19.168.168.182.152.2.113.228.076.244.045.257v.288l-.045.3L207.6,45.1Z" fill="#fff" fill-rule="evenodd"/>
      <path id="Path_46" data-name="Path 46" d="M207.6,45.1l-.3,1.685h-1.912l.053-.311.039-.281.029-.212.031-.114h0l-.105.122-.123.122-.143.114-.16.105-.182.107-.191.09-.2.091-.2.076-.221.068-.221.054-.219.045-.229.03-.221.016-.219.007-.213-.023-.207-.03h0l-.266-.069-.242-.076-.213-.1-.189-.114-.166-.121-.152-.137-.121-.145-.107-.151-.09-.16-.076-.168-.061-.166-.045-.167-.031-.175-.023-.175-.016-.167v-.167h0l.023-.3.047-.28.074-.266.1-.258.121-.243.137-.22.16-.212.182-.191.189-.174.213-.16.219-.143.229-.122.242-.1.252-.085.258-.068.266-.046h.016l.037-.008.053-.007.084-.007.092-.015.105-.008.113-.015.131-.015.129-.015.129-.015.137-.008.121-.015.121-.007.113-.009.105-.006h.26l.184.006.166.009h.166l.137.007.107.007.074.008H206l.016-.053.045-.136.039-.16.014-.143h0l-.029-.167-.068-.153-.092-.136-.121-.114-.145-.1L205.5,40.4l-.184-.046-.2-.015h0l-.213-.008-.229-.007h-.234l-.242.007-.25.016-.244.022-.242.023-.236.031-.227.03-.221.038-.2.037-.182.039-.168.047-.135.044-.107.053-.084.045.539-1.829h0l.168-.068.166-.061.184-.053.182-.039.182-.038.2-.029.2-.031.205-.016.213-.015.219-.008.228-.008h.729l.266.008.266.008h0l.213.015.229.039.236.053.24.068.234.092.23.106.227.129.213.144.19.168.168.182.152.2.113.228.076.244.045.257v.288l-.045.3L207.6,45.1" fill="none" stroke="#fff" stroke-miterlimit="2.613" stroke-width="0.216"/>
      <path id="Path_47" data-name="Path 47" d="M205.77,43.12l-.008-.038-.031-.038-.045-.023-.076-.015-.084-.015-.1-.009H205.2l-.123.009-.129.015-.121.015-.121.016-.113.015-.107.022-.09.023-.084.022-.053.015-.061.024-.084.03-.084.038-.1.046-.1.054-.105.052-.1.061-.105.076-.1.076-.092.092-.084.091-.076.1-.053.107-.047.121-.021.122-.008.258.039.2.074.152.1.114.113.076.129.045.121.023.123.007.229-.007.205-.023.2-.031.172-.045.154-.053.143-.067.129-.069.115-.083.1-.076.09-.091.076-.083.061-.091.053-.091.045-.091.039-.084.021-.083.063-.219.053-.251.045-.242.039-.2Z" fill="#ec1c2e" fill-rule="evenodd"/>
      <path id="Path_48" data-name="Path 48" d="M191.627,46.786h-2.064l1.723-9.966h3.592l.34,5.913L197.7,36.82h3.75l-1.762,9.966h-2.064l1.3-7.446h-.082l-3.09,7.446h-2.33l-.014-.311-.055-.828-.068-1.176-.076-1.352-.076-1.358-.068-1.191-.053-.866L193,39.34h-.113l-1.26,7.446Z" fill="#fff" fill-rule="evenodd"/>
      <path id="Path_49" data-name="Path 49" d="M191.627,46.786h-2.064l1.723-9.966h3.592l.34,5.913L197.7,36.82h3.75l-1.762,9.966h-2.064l1.3-7.446h-.082l-3.09,7.446h-2.33l-.014-.311-.055-.828-.068-1.176-.076-1.352-.076-1.358-.068-1.191-.053-.866L193,39.34h-.113l-1.26,7.446" fill="none" stroke="#fff" stroke-miterlimit="2.613" stroke-width="0.216"/>
      <path id="Path_50" data-name="Path 50" d="M245.272,45.1l-.311,1.685h-1.906l.016-.311.008-.273V46l.016-.091-.1.114-.115.113-.137.106-.15.107-.16.1-.182.091-.189.092-.189.076-.207.06-.211.061-.213.039-.211.03-.223.016-.211.007-.207-.023-.2-.03-.273-.069-.242-.076-.213-.1-.2-.114-.168-.121-.145-.137-.121-.145-.107-.151-.09-.16-.068-.168-.061-.166-.037-.167-.031-.175-.023-.175-.016-.167v-.167l.016-.3.047-.28.068-.266.1-.258.113-.243.146-.22.158-.212.174-.191.2-.174.2-.16.221-.143.234-.122.236-.1.25-.085.25-.068.258-.046h.016l.039-.008.053-.007.076-.007.1-.015.107-.008.113-.015.121-.015.129-.015.137-.015.129-.008.131-.015.121-.007.105-.009.105-.006h.266l.184.006.174.009h.168l.143.007.123.007.068.008h.031l.014-.053.023-.136.021-.16.016-.143-.031-.167-.059-.153-.1-.136-.115-.114-.135-.1-.16-.069-.168-.046-.182-.015-.213-.008-.227-.007h-.236l-.242.007-.252.016-.242.022-.242.023-.236.031-.227.03-.221.038-.2.037-.184.039-.168.047-.137.044-.105.053-.084.045.533-1.829.166-.068.174-.061.174-.053.184-.039.189-.038.189-.029.2-.031.205-.016.213-.015.221-.008.219-.008h.715l.258.008.258.008.213.015.229.039.234.053.244.068.234.092.234.106.229.129.213.144.189.168.176.182.15.2.113.228.084.244.053.257v.288l-.037.3-.8,4.008Z" fill="#fff" fill-rule="evenodd"/>
      <path id="Path_51" data-name="Path 51" d="M244.961,46.84l.045-.046.311-1.686-.092-.015-.311,1.686.047-.047v.107l.037-.008.008-.038-.045.046Z" fill="#fff" fill-rule="evenodd"/>
      <path id="Path_52" data-name="Path 52" d="M243.008,46.786l.047.054h1.906v-.107h-1.906l.045.053h-.092L243,46.84h.053l-.047-.054Z" fill="#fff" fill-rule="evenodd"/>
      <path id="Path_53" data-name="Path 53" d="M243.131,45.935l-.068-.06-.031.122-.008.2v.273l-.016.311h.092l.016-.311.016-.273-.01-.2v-.062l-.066-.06.076.06Z" fill="#fff" fill-rule="evenodd"/>
      <path id="Path_54" data-name="Path 54" d="M240.178,46.908h0l.211.03.207.022.211-.006.223-.016.219-.03.213-.039.211-.059.213-.062.189-.076.2-.09.182-.091.16-.106.16-.107.137-.1.121-.123.1-.115-.076-.06-.1.114-.105.106-.137.107-.145.106-.16.091-.182.092-.182.091-.189.075-.2.061-.211.062-.213.038-.2.029-.223.016-.211.007-.207-.023-.2-.029h0l-.014.091Z" fill="#fff" fill-rule="evenodd"/>
      <path id="Path_55" data-name="Path 55" d="M238.34,44.607h0l.008.167.016.167.021.183.031.175.039.167.061.174.068.174.1.16.107.16.121.144.152.145.174.122.2.122.221.1.248.077.275.068.014-.091-.271-.069-.234-.076-.207-.1-.2-.107-.16-.12-.137-.13-.121-.144-.105-.145-.082-.159-.07-.16-.061-.158-.037-.168-.031-.175-.021-.167-.016-.167.008-.167h-.107Z" fill="#fff" fill-rule="evenodd"/>
      <path id="Path_56" data-name="Path 56" d="M241.064,41.693h0l-.264.045-.258.069-.25.083-.244.106-.236.121-.229.152-.2.16-.2.182L239,42.8l-.158.212-.152.228-.113.251-.1.257-.068.273-.045.288-.023.3h.107l.008-.3.045-.272.068-.258.1-.258.115-.236.137-.212.16-.212.166-.189.2-.167.207-.16.211-.136.236-.123.227-.1.252-.083.242-.069.25-.045h0v-.091Z" fill="#fff" fill-rule="evenodd"/>
      <path id="Path_57" data-name="Path 57" d="M242.629,41.533h-.084l-.105.016-.105.009-.121.006-.131.015-.129.008-.137.015-.129.015-.121.016-.113.015-.107.007-.1.016-.076.007-.061.007-.031.008h-.016v.091h.016l.047-.008.045-.006.076-.008.1-.015.107-.008.113-.015.121-.016.129-.015.137-.015.129-.007.131-.016.121-.007.105-.008h.189v-.107Z" fill="#fff" fill-rule="evenodd"/>
      <path id="Path_58" data-name="Path 58" d="M243.654,41.617l.047-.038h-.031l-.068-.007-.123-.007-.143-.015h-.342l-.184-.016h-.182v.107h.365l.174.015h.31l.123.008.068.008h.031l.043-.038-.043.038.037.007.006-.045-.09-.016Z" fill="#fff" fill-rule="evenodd"/>
      <path id="Path_59" data-name="Path 59" d="M243.731,41.131h-.008l-.008.143-.023.152-.021.137-.016.053.09.016.016-.054.023-.138.023-.166.023-.143h-.1Z" fill="#fff" fill-rule="evenodd"/>
      <path id="Path_60" data-name="Path 60" d="M242.826,40.38v.007L243,40.4l.158.046.152.068.129.091.105.106.092.129.063.137.029.16h.09l-.029-.174-.06-.168-.108-.144-.121-.123-.145-.1-.168-.069-.174-.044-.189-.023v.1Z" fill="#fff" fill-rule="evenodd"/>
      <path id="Path_61" data-name="Path 61" d="M239.57,40.745l.076.045.076-.038.1-.053.129-.045.168-.044.182-.038.2-.039.221-.038.219-.029.236-.032.242-.023.242-.022.252-.015h.705l.213.007v-.091l-.213-.007-.227-.016h-.236l-.242.016-.252.014-.242.023-.242.023-.236.03-.234.029-.221.039-.2.038-.182.038-.166.044-.145.047-.115.052-.092.054.078.045-.092-.015Z" fill="#fff" fill-rule="evenodd"/>
      <path id="Path_62" data-name="Path 62" d="M240.133,38.876l-.031.039-.531,1.829.092.015.529-1.83-.029.039-.029-.092-.023.008-.008.031.031-.039Z" fill="#fff" fill-rule="evenodd"/>
      <path id="Path_63" data-name="Path 63" d="M243.51,38.528h0l-.258-.015-.258-.008h-.715l-.219.016-.221.008-.213.016-.205.013-.205.031-.187.031-.191.039-.184.038-.182.053-.174.061-.166.068.029.092.168-.068.174-.06.166-.055.184-.037.19-.039.189-.03.189-.031.205-.015.213-.016.221-.007h.934l.258.007h.258v-.09Z" fill="#fff" fill-rule="evenodd"/>
      <path id="Path_64" data-name="Path 64" d="M246.113,41.1h0l.039-.312V40.5l-.053-.267-.084-.25-.121-.234-.152-.213-.184-.189-.189-.168-.219-.145-.229-.136-.242-.106-.236-.092-.25-.067-.236-.053-.234-.037-.213-.016v.09l.213.016.219.038.236.053.236.068.234.091.227.107.229.121.205.144.189.167.166.175.152.2.107.222.084.235.053.25v.288l-.039.3h0l.092.015Z" fill="#fff" fill-rule="evenodd"/>
      <path id="Path_65" data-name="Path 65" d="M245.316,45.108h0l.8-4.007-.092-.015-.8,4.007h0l.092.015Z" fill="#fff" fill-rule="evenodd"/>
      <path id="Path_66" data-name="Path 66" d="M243.434,43.12l-.016-.045-.029-.037-.053-.023-.078-.022-.082-.009-.1-.008h-.115l-.113.008-.123.016-.119.015-.121.016-.115.015-.113.023-.1.015-.1.023-.076.015-.053.008-.061.023-.076.023-.084.03-.1.044-.092.047-.105.053-.1.067-.1.069-.1.083-.084.082-.084.1-.066.106-.055.114-.045.122-.023.129-.008.258.037.2.063.152.09.114.113.076.131.045.129.023.129.007.227-.007.213-.023.2-.039.176-.052.166-.061.145-.068.137-.077.121-.09.107-.083.09-.1.084-.092.068-.1.053-.09.037-.092.031-.09.023-.083.029-.213.039-.22.029-.212.016-.191Z" fill="#fbb231" fill-rule="evenodd"/>
      <path id="Path_67" data-name="Path 67" d="M259.07,45.748l.016-.176.061-.205.107-.182.129-.159.158-.128.182-.092.2-.062.213-.022.215.022.2.062.184.092.158.128.129.159.105.182.063.205.016.176h-.229l-.008-.138-.045-.167-.076-.151-.1-.13-.121-.106-.142-.075-.168-.053-.176-.016-.174.016-.166.053-.147.075-.121.106-.1.13-.076.151-.045.167-.016.138Z" fill="#fff" fill-rule="evenodd"/>
      <path id="Path_68" data-name="Path 68" d="M259.754,45.748v-.456h.418l.092.007.084.015.059.023.055.03.037.046.029.046.016.052.008.054-.008.068-.016.053-.021.046-.016.016h-.318l.029-.009.053-.007.047-.015.039-.016.029-.022.016-.024.016-.037v-.054l-.01-.038-.014-.031-.025-.015-.022-.015-.037-.007-.039-.007h-.311v.3Z" fill="#fff" fill-rule="evenodd"/>
      <path id="Path_69" data-name="Path 69" d="M259.07,45.748l-.006.044.022.22.061.2.107.183.129.152.158.128.182.1.2.06.213.023.215-.023.2-.06.184-.1.158-.128.129-.152.105-.183.063-.2.023-.22-.008-.044h-.229l.008.044-.016.182-.045.168-.076.144-.1.128-.121.107-.142.083-.168.054-.176.015-.174-.015-.166-.054-.147-.083-.121-.107-.1-.128-.076-.144-.045-.168-.016-.182v-.044Z" fill="#fff" fill-rule="evenodd"/>
      <path id="Path_70" data-name="Path 70" d="M259.754,45.748v.462h.189v-.379h.189l.229.379h.15l-.227-.379h.055l.051-.016.047-.015.039-.03.014-.022h-.318l-.039.007h-.189v-.007Z" fill="#fff" fill-rule="evenodd"/>
      <path id="Path_71" data-name="Path 71" d="M259.064,45.792h0l.022-.22.061-.2.107-.182.129-.16.158-.128.182-.092.2-.061.213-.022h0l.215.022.2.061.184.092.158.128.129.16.1.182.063.2.023.22h0l-.023.22-.063.2-.1.182-.129.152-.158.128-.184.1-.2.06-.215.023h0l-.213-.023-.2-.06-.182-.1-.158-.128-.129-.152-.107-.182-.061-.2-.022-.22m.879.418h-.189v-.919h.418l.092.008.084.014.058.023.055.031.037.046.029.045.016.053.008.053h0l-.008.068-.016.054-.021.045-.029.038-.039.03-.047.015-.051.017h-.055l.227.379h-.151l-.228-.379h-.19v.379m.19-.456h0l.068-.015.053-.008.047-.014.039-.016.029-.022.016-.024.015-.037v-.054h0l-.009-.038-.014-.03-.025-.015-.022-.015-.037-.008-.039-.006h-.311v.3h.19m0,.918h0l.176-.015.168-.054.142-.082.121-.107.1-.128.076-.144.045-.168.016-.182h0l-.016-.182-.045-.168-.076-.151-.1-.13-.121-.106-.142-.075-.168-.053-.176-.016h0l-.174.016-.166.053-.146.075-.122.106-.1.13-.076.151-.045.168-.016.182h0l.016.182.045.168.076.144.1.128.122.107.146.082.166.054.174.015" fill="none" stroke="#fff" stroke-miterlimit="2.613" stroke-width="0.216"/>
      <path id="Path_72" data-name="Path 72" d="M245.84,46.786h2.141l.767-4.319.029-.166.045-.168.047-.167.061-.167.076-.167.09-.16.1-.151.123-.145.135-.128.152-.122.174-.115.2-.091.221-.075.242-.061.266-.046.3-.016h.189l.342-1.95-.213.015-.205.024-.189.037-.182.053-.168.061-.158.078-.152.083-.143.091-.139.107-.129.105-.121.122-.121.121-.115.129-.111.143-.115.137-.107.152.229-1.374H247.26l-1.42,8.129Z" fill="#fff" fill-rule="evenodd"/>
      <path id="Path_73" data-name="Path 73" d="M245.84,46.786h2.141l.767-4.319h0l.029-.166.045-.168.047-.167.061-.167.076-.167.09-.16.1-.151.123-.145.135-.128.152-.122.174-.115.2-.091.221-.075.242-.061.266-.046.3-.016h.189l.342-1.95h0l-.213.015-.205.024-.189.037-.182.053-.168.061-.158.078-.152.083-.143.091-.139.107-.129.105-.121.122-.121.121-.115.129-.111.143-.115.137-.107.152.229-1.374H247.26l-1.42,8.129h0" fill="none" stroke="#fff" stroke-miterlimit="2.613" stroke-width="0.216"/>
      <path id="Path_74" data-name="Path 74" d="M225.74,46.786h2.178l.728-4.319.031-.166.037-.16.039-.159.053-.152.061-.152.076-.145.09-.136.107-.129.121-.115.137-.113.166-.091.184-.083.213-.069.234-.059.258-.039.3-.022h.021l.031.008.037.007h.039l.039.007.029.008.021.008h.008l.01-.03.021-.091.029-.136.039-.167.053-.2.053-.213.07-.212.066-.213.063-.144.076-.145.074-.143.076-.129.068-.113.053-.091.037-.053.016-.022h-.008l-.029-.008-.039-.008-.053-.008H231.6l-.061-.007-.053-.008h-.053l-.236.015-.211.024-.2.037-.182.046-.176.06-.158.077-.145.075L229.99,39l-.129.1-.121.114-.113.114-.115.128-.113.13-.107.145-.113.15-.113.152.273-1.374H227.16l-1.42,8.129Z" fill="#fff" fill-rule="evenodd"/>
      <path id="Path_75" data-name="Path 75" d="M225.74,46.786h2.178l.728-4.319h0l.031-.166.037-.16.039-.159.053-.152.061-.152.076-.145.09-.136.107-.129.121-.115.137-.113.166-.091.184-.083.213-.069.234-.059.258-.039.3-.022h.021l.031.008.037.007h.039l.039.007.029.008.021.008h.008l.01-.03.021-.091.029-.136.039-.167.053-.2.053-.213.07-.212.066-.213h0l.063-.144.076-.145.074-.143.076-.129.068-.113.053-.091.037-.053.016-.022h-.008l-.029-.008-.039-.008-.053-.008H231.6l-.061-.007-.053-.008h-.053l-.236.015-.211.024-.2.037-.182.046-.176.06-.158.077-.145.075L229.99,39l-.129.1-.121.114-.113.114-.115.128-.113.13-.107.145-.113.15-.113.152.273-1.374H227.16l-1.42,8.129h0" fill="none" stroke="#fff" stroke-miterlimit="2.613" stroke-width="0.216"/>
      <path id="Path_76" data-name="Path 76" d="M259.086,54.772v-.031l.061-.2.107-.175.129-.151.158-.122.182-.092.2-.052.213-.024.215.024.2.052.184.092.158.122.129.151.105.175.063.2v.031h-.221l-.045-.158-.076-.145-.1-.13-.121-.106-.142-.084-.168-.053-.176-.016-.174.016-.166.053-.147.084-.121.106-.1.13-.076.145-.045.158Z" fill="#fbb231" fill-rule="evenodd"/>
      <path id="Path_77" data-name="Path 77" d="M259.754,54.772v-.265h.51l.084.015.059.014.055.03.037.039.029.046.016.053.008.068h-.15v-.038l-.01-.038-.014-.03-.025-.015-.022-.016-.037-.008-.039-.007h-.311v.151Z" fill="#fbb231" fill-rule="evenodd"/>
      <path id="Path_78" data-name="Path 78" d="M259.064,54.938l.022-.167h.221v.007l-.016.16Z" fill="#fbb231" fill-rule="evenodd"/>
      <path id="Path_79" data-name="Path 79" d="M259.754,54.938v-.167h.189v.151h.189l.068-.014.053-.008.047-.016.039-.015.029-.022.016-.024.016-.037v-.016h.15l-.008.053-.016.046-.021.039-.029.029Z" fill="#fbb231" fill-rule="evenodd"/>
      <path id="Path_80" data-name="Path 80" d="M260.977,54.938l-.016-.16v-.007h.221l.023.167Z" fill="#fbb231" fill-rule="evenodd"/>
      <path id="Path_81" data-name="Path 81" d="M259.064,54.938v.023l.022.22.061.205.107.183.129.159.158.13.182.09.2.062.213.022.215-.022.2-.062.184-.09.158-.13.129-.159.105-.183.063-.205.023-.22v-.023h-.228v.023l-.016.183-.045.167-.076.144-.1.128-.121.108-.142.083-.168.053-.176.015-.174-.015-.166-.053-.147-.083-.121-.108-.1-.128-.076-.144-.045-.167-.016-.183v-.023Z" fill="#fbb231" fill-rule="evenodd"/>
      <path id="Path_82" data-name="Path 82" d="M259.754,54.938v.441h.189V55h.189l.229.38h.15l-.227-.38h.055l.051-.014.047-.016.039-.031h-.723Z" fill="#fbb231" fill-rule="evenodd"/>
      <path id="Path_83" data-name="Path 83" d="M225.975,41.077l-.061-.454-.1-.4-.153-.349-.189-.3-.229-.259-.25-.212-.273-.182-.295-.136-.3-.115-.312-.076-.309-.053-.312-.03-.3-.008-.615.031-.547.091-.494.136-.44.191-.381.227-.334.258-.295.288-.244.3-.211.319-.176.334-.134.327-.116.325-.084.32-.06.3-.045.281-.031.243-.037.622.021.561.084.51.129.447.184.4.218.349.258.311.3.258.318.221.342.189.358.145.371.113.381.092.378.054.379.038.373.006h.25l.235-.006h.205l.2-.009.176-.015.158-.014.152-.016.137-.023.129-.024.121-.029.123-.038.114-.037.113-.047.121-.045.123-.061.121-.06.305-1.868-.223.129-.211.121-.221.092-.212.083-.206.068-.21.045-.208.039-.205.03-.2.016-.2.007h-.205l-.195-.007-.2-.016-.2-.022-.187-.024-.2-.03-.152-.03-.15-.054-.155-.067-.134-.084L221.5,44.7l-.121-.113-.113-.114-.108-.13-.092-.129-.082-.143-.06-.138-.055-.144-.031-.145-.012-.145.006-.127.018-.1h4.923l.039-.463.114-.639.052-.577Zm-2.057.7h-2.773l0-.007h0l.019-.106.031-.16.045-.151.053-.152.068-.136.071-.13.082-.123.092-.113.1-.106.1-.091.115-.083.113-.069.131-.06.129-.045.129-.031.135-.023.146-.008.135.016.129.023.123.03.119.045.115.061.114.068.1.076.09.091.076.106.076.113.053.131.055.144.029.151.016.168.008.182Z" fill="#fff" fill-rule="evenodd"/>
    </g>
  </g>
</svg>
