<svg xmlns="http://www.w3.org/2000/svg" width="125.43" height="78.394" viewBox="0 0 125.43 78.394">
  <g id="Group_3" data-name="Group 3" transform="translate(0 -114.803)">
    <path id="Rectangle_1" data-name="Rectangle 1" d="M4.182,0H121.25a4.18,4.18,0,0,1,4.18,4.18V74.213a4.181,4.181,0,0,1-4.181,4.181H4.182A4.182,4.182,0,0,1,0,74.212V4.182A4.182,4.182,0,0,1,4.182,0Z" transform="translate(0 114.803)" fill="#1c3663"/>
    <g id="Group_2" data-name="Group 2">
      <path id="Path_1" data-name="Path 1" d="M60.635,149.244a1.79,1.79,0,0,0-1.311.8s-2.992,5.13-3.285,5.642c-.162.276-.322.1-.35,0-.021-.125-.925-5.607-.925-5.607a1.148,1.148,0,0,0-1.141-.818l-1.865,0a.619.619,0,0,0-.629.8s1.424,8.084,1.7,9.984c.139,1.051-.016,1.238-.016,1.238L50.969,164.5c-.272.436-.123.795.324.795h2.162a1.756,1.756,0,0,0,1.309-.795l8.316-14.068s.795-1.2.063-1.191c-.5.008-2.508,0-2.508,0" fill="#fff"/>
      <path id="Path_2" data-name="Path 2" d="M34.379,152.1a4.387,4.387,0,0,1-2.635.691h-.512a.624.624,0,0,1-.636-.8l.629-2.709a1.06,1.06,0,0,1,1-.794l.683,0a3.293,3.293,0,0,1,1.815.409,1.365,1.365,0,0,1,.6,1.243,2.251,2.251,0,0,1-.941,1.962m4.508-4.175a3.123,3.123,0,0,0-1.145-1.227,5.257,5.257,0,0,0-1.812-.67,15.1,15.1,0,0,0-2.465-.2l-4.36,0a1.087,1.087,0,0,0-1,.795l-2.937,12.778a.621.621,0,0,0,.631.8h2.088a1.068,1.068,0,0,0,1-.8l.72-3.1a1.067,1.067,0,0,1,.995-.792h.6a9.9,9.9,0,0,0,5.957-1.571,4.88,4.88,0,0,0,2.129-4.137,3.863,3.863,0,0,0-.4-1.882" fill="#fff"/>
      <path id="Path_3" data-name="Path 3" d="M48.951,149.754a7.956,7.956,0,0,0-3.728-.666,16.521,16.521,0,0,0-2.53.2c-.623.1-.683.112-1.072.2a1.224,1.224,0,0,0-.916.969l-.254,1.048c-.144.671.238.643.406.59a11.408,11.408,0,0,1,1.243-.367,9.088,9.088,0,0,1,1.959-.264,5.163,5.163,0,0,1,1.894.267.959.959,0,0,1,.631.948.686.686,0,0,1-.033.294c-.035.084-.1.163-.3.189-1.189.073-2.045.181-3.078.331a9.623,9.623,0,0,0-2.651.728,4.116,4.116,0,0,0-1.794,1.42,3.842,3.842,0,0,0-.6,2.179,2.559,2.559,0,0,0,.854,1.979,3.2,3.2,0,0,0,2.2.755,5.891,5.891,0,0,0,1.31-.123,6.519,6.519,0,0,0,1.006-.343,5.263,5.263,0,0,0,.861-.477c.305-.2.516-.347.788-.524l.007.016-.076.336,0,.009,0,.006a.614.614,0,0,0,.555.78l.006.008h.035l0,0,1.607,0h.3a.034.034,0,0,0,.029-.011,1.09,1.09,0,0,0,.9-.783l1.525-6.583a4.011,4.011,0,0,0,.078-.539,4.407,4.407,0,0,0,.036-.5A2.2,2.2,0,0,0,48.951,149.754ZM45.258,157.6a5.387,5.387,0,0,1-.821.422,2.943,2.943,0,0,1-1.089.236,2.434,2.434,0,0,1-1.188-.229.809.809,0,0,1-.408-.778,1.581,1.581,0,0,1,.305-1.02,2.162,2.162,0,0,1,.888-.6,7.824,7.824,0,0,1,1.379-.308c.477-.061,1.418-.168,1.537-.17s.2-.067.147.253c-.022.14-.295,1.257-.42,1.764A1,1,0,0,1,45.258,157.6Z" fill="#fff"/>
      <path id="Path_4" data-name="Path 4" d="M86.867,149.764a7.965,7.965,0,0,0-3.728-.665,16.369,16.369,0,0,0-2.528.2c-.623.1-.687.111-1.07.194a1.22,1.22,0,0,0-.918.968l-.256,1.05c-.142.67.238.642.408.59a11.161,11.161,0,0,1,1.243-.37,9.208,9.208,0,0,1,1.959-.263,5.188,5.188,0,0,1,1.894.268.958.958,0,0,1,.631.947.73.73,0,0,1-.033.3c-.035.083-.1.162-.3.189-1.193.07-2.051.179-3.082.331a9.645,9.645,0,0,0-2.651.727,4.135,4.135,0,0,0-1.794,1.419,3.863,3.863,0,0,0-.6,2.181,2.564,2.564,0,0,0,.853,1.979,3.2,3.2,0,0,0,2.2.754,5.833,5.833,0,0,0,1.31-.123,6.667,6.667,0,0,0,1.006-.343,5.336,5.336,0,0,0,.859-.477c.3-.2.516-.347.788-.525l.009.016-.076.338,0,.007,0,.006a.62.62,0,0,0,.557.783l.006.006h.033l0,0c.267,0,1.18,0,1.607,0h.3c.02,0,.022-.006.027-.011a1.086,1.086,0,0,0,.9-.784l1.523-6.58a3.386,3.386,0,0,0,.08-.541,4.378,4.378,0,0,0,.036-.5A2.2,2.2,0,0,0,86.867,149.764Zm-3.693,7.842a5.661,5.661,0,0,1-.819.424,2.971,2.971,0,0,1-1.089.236,2.428,2.428,0,0,1-1.188-.23.806.806,0,0,1-.406-.778,1.579,1.579,0,0,1,.3-1.02,2.162,2.162,0,0,1,.89-.6,7.646,7.646,0,0,1,1.375-.308c.477-.06,1.418-.169,1.539-.17s.2-.067.147.254c-.026.139-.3,1.255-.42,1.762A.985.985,0,0,1,83.174,157.606Z" fill="#fff"/>
      <path id="Path_5" data-name="Path 5" d="M72.289,152.155a4.409,4.409,0,0,1-2.633.684h-.519a.617.617,0,0,1-.633-.794l.625-2.713a1.071,1.071,0,0,1,.994-.79l.686,0a3.389,3.389,0,0,1,1.814.4,1.4,1.4,0,0,1,.607,1.245,2.294,2.294,0,0,1-.941,1.968m4.508-4.18a3.2,3.2,0,0,0-1.151-1.231,5.176,5.176,0,0,0-1.816-.667,14.59,14.59,0,0,0-2.455-.193l-4.367,0a1.088,1.088,0,0,0-1,.8l-2.936,12.78a.615.615,0,0,0,.623.794l2.1,0a1.088,1.088,0,0,0,1-.791l.709-3.1a1.072,1.072,0,0,1,1-.793h.6A9.871,9.871,0,0,0,75.064,154a4.916,4.916,0,0,0,2.129-4.143,4.05,4.05,0,0,0-.4-1.88" fill="#fff"/>
      <path id="Union_1" data-name="Union 1" d="M88.965,160.245l0,0a.62.62,0,0,1-.562-.786l0-.006c.011-.04.044-.181.095-.4l2.582-11.7.123-.56c0-.012.006-.024.01-.036a1.078,1.078,0,0,1,.99-.759h1.873a.622.622,0,0,1,.63.792l.006,0L91.9,159.45c0,.012-.006.024-.01.036a1.083,1.083,0,0,1-.993.759Z" fill="#fff"/>
      <g id="Group_1" data-name="Group 1">
        <path id="Path_8" data-name="Path 8" d="M96.9,148.568a1.677,1.677,0,0,1-.211.041,1.308,1.308,0,0,1-.2.017.627.627,0,0,1-.472-.167.75.75,0,0,1-.163-.536v-1.081h-.23v-.288h.23v-.583H96.2v.583H96.9v.288H96.2v.926c0,.106,0,.189.008.249a.422.422,0,0,0,.051.169.235.235,0,0,0,.109.107.537.537,0,0,0,.215.034.664.664,0,0,0,.176-.026,1.127,1.127,0,0,0,.129-.041H96.9Z" fill="#fff"/>
        <path id="Path_9" data-name="Path 9" d="M100.283,148.587h-.342v-1.158c0-.086,0-.171-.011-.253a.6.6,0,0,0-.051-.195.284.284,0,0,0-.121-.117.5.5,0,0,0-.225-.041.638.638,0,0,0-.289.073,1.773,1.773,0,0,0-.287.182c0,.028.008.06.01.1s0,.072,0,.109v1.3h-.342v-1.158c0-.089,0-.175-.012-.255a.558.558,0,0,0-.049-.193.289.289,0,0,0-.121-.119.537.537,0,0,0-.226-.039.62.62,0,0,0-.282.071,1.626,1.626,0,0,0-.281.174v1.519h-.342v-2.033h.342v.225a1.594,1.594,0,0,1,.32-.206.784.784,0,0,1,.338-.075.671.671,0,0,1,.354.087.535.535,0,0,1,.215.243,1.617,1.617,0,0,1,.379-.253.882.882,0,0,1,.365-.077.589.589,0,0,1,.494.2.892.892,0,0,1,.16.566Z" fill="#fff"/>
      </g>
    </g>
  </g>
</svg>
