<svg xmlns="http://www.w3.org/2000/svg" width="125.43" height="78.393" viewBox="0 0 125.43 78.393">
  <g id="Group_9" data-name="Group 9" transform="translate(0 -1.938)">
    <path id="Rectangle_5" data-name="Rectangle 5" d="M4.18,0H121.25a4.18,4.18,0,0,1,4.18,4.18V74.211a4.182,4.182,0,0,1-4.182,4.182H4.182A4.182,4.182,0,0,1,0,74.211V4.18A4.18,4.18,0,0,1,4.18,0Z" transform="translate(0 1.938)" fill="#3957a7"/>
    <g id="Group_8" data-name="Group 8">
      <path id="Path_84" data-name="Path 84" d="M57.721,52.91H51.594l3.83-23.535h6.127Z" fill="#fff"/>
      <path id="Path_85" data-name="Path 85" d="M46.439,29.375,40.6,45.562l-.692-3.485h0l-2.06-10.584a2.624,2.624,0,0,0-2.907-2.119H25.281l-.111.4a22.856,22.856,0,0,1,6.408,2.69L36.9,52.91h6.385l9.75-23.535Z" fill="#fff"/>
      <path id="Path_86" data-name="Path 86" d="M94.635,52.91h5.625l-4.9-23.535H90.43a2.816,2.816,0,0,0-2.83,1.753L78.463,52.91H84.85l1.275-3.495h7.791Zm-6.742-8.325,3.218-8.809,1.813,8.809Z" fill="#fff"/>
      <path id="Path_87" data-name="Path 87" d="M78.941,35.034l.873-5.054a17.689,17.689,0,0,0-5.509-1.025c-3.041,0-10.262,1.329-10.262,7.791,0,6.08,8.476,6.156,8.476,9.348s-7.6,2.622-10.111.608L61.5,51.985a17.16,17.16,0,0,0,6.916,1.33c4.182,0,10.49-2.166,10.49-8.057,0-6.118-8.55-6.69-8.55-9.349S76.32,33.589,78.941,35.034Z" fill="#fff"/>
    </g>
    <path id="Path_88" data-name="Path 88" d="M39.906,42.078l-2.06-10.584a2.624,2.624,0,0,0-2.907-2.119H25.281l-.111.4a23.746,23.746,0,0,1,9.092,4.565A18.354,18.354,0,0,1,39.906,42.078Z" fill="#f9a533"/>
  </g>
</svg>
