<svg id="Design" xmlns="http://www.w3.org/2000/svg" viewBox="0 0 54.59 54.59">
<title>facebook</title>
<style>
.path{
    fill:#d4180b;
}
</style>
<path class="path" d="M27.29,54.59a27.3,27.3,0,1,1,27.3-27.3A27.33,27.33,0,0,1,27.29,54.59Zm0-51.66A24.36,24.36,0,1,0,51.65,27.29,24.39,24.39,0,0,0,27.29,2.93Z"/>
<path class="path" d="M23,27.42V43.24a.41.41,0,0,0,.41.41H29.3a.41.41,0,0,0,.41-.41V27.16H34a.41.41,0,0,0,.41-.37l.41-4.85a.41.41,0,0,0-.41-.44H29.71V18.06a1.46,1.46,0,0,1,1.46-1.46h3.28a.41.41,0,0,0,.41-.41V11.35a.41.41,0,0,0-.41-.42H28.91a5.9,5.9,0,0,0-5.9,5.9V21.5H20.08a.41.41,0,0,0-.42.41v4.84a.41.41,0,0,0,.42.41H23Z" fill-rule="evenodd"/>
</svg>
