<?xml version="1.0" encoding="utf-8"?>
<!-- Generator: Adobe Illustrator 23.0.1, SVG Export Plug-In . SVG Version: 6.00 Build 0)  -->
<svg version="1.1"
	 id="svg2" xmlns:cc="http://creativecommons.org/ns#" xmlns:dc="http://purl.org/dc/elements/1.1/" xmlns:inkscape="http://www.inkscape.org/namespaces/inkscape" xmlns:rdf="http://www.w3.org/1999/02/22-rdf-syntax-ns#" xmlns:sodipodi="http://sodipodi.sourceforge.net/DTD/sodipodi-0.dtd" xmlns:svg="http://www.w3.org/2000/svg"
	 xmlns="http://www.w3.org/2000/svg" xmlns:xlink="http://www.w3.org/1999/xlink" x="0px" y="0px" viewBox="0 0 135.7 40"
	 style="enable-background:new 0 0 135.7 40;" xml:space="preserve">
<path d="M135.7,8.4c0-0.3,0-0.6,0-0.9c0-0.7-0.1-1.3-0.2-2c-0.1-0.7-0.3-1.3-0.6-1.9c-0.6-1.2-1.6-2.2-2.8-2.8
	c-0.6-0.3-1.2-0.5-1.9-0.6c-0.7-0.1-1.3-0.2-2-0.2c-0.3,0-0.6,0-0.9,0c-0.4,0-0.7,0-1.1,0v0H9.5C9.2,0,8.8,0,8.4,0
	C8.1,0,7.8,0,7.5,0c-0.7,0-1.3,0.1-2,0.2C4.9,0.3,4.2,0.5,3.6,0.8C3,1.1,2.5,1.5,2,2C1.5,2.5,1.1,3,0.8,3.6C0.5,4.2,0.3,4.9,0.2,5.5
	C0.1,6.2,0,6.9,0,7.5c0,0.3,0,0.6,0,0.9v23.1c0,0.3,0,0.6,0,0.9c0,0.7,0.1,1.3,0.2,2c0.1,0.7,0.3,1.3,0.6,1.9C1.1,37,1.5,37.5,2,38
	c0.5,0.5,1,0.9,1.6,1.2c0.6,0.3,1.2,0.5,1.9,0.6c0.7,0.1,1.3,0.2,2,0.2c0.3,0,0.6,0,0.9,0c0.4,0,0.7,0,1.1,0h116.6
	c0.4,0,0.7,0,1.1,0c0.3,0,0.6,0,0.9,0c0.7,0,1.3-0.1,2-0.2c0.7-0.1,1.3-0.3,1.9-0.6c0.6-0.3,1.1-0.7,1.6-1.2c0.5-0.5,0.9-1,1.2-1.6
	c0.3-0.6,0.5-1.2,0.6-1.9c0.1-0.7,0.2-1.3,0.2-2c0-0.3,0-0.6,0-0.9c0-0.4,0-0.7,0-1.1V9.5C135.7,9.2,135.7,8.8,135.7,8.4z
	 M134.8,30.5c0,0.4,0,0.7,0,1.1c0,0.3,0,0.6,0,0.9c0,0.6-0.1,1.2-0.2,1.9c-0.1,0.6-0.3,1.1-0.5,1.7c-0.3,0.5-0.6,1-1,1.4
	c-0.4,0.4-0.9,0.8-1.4,1c-0.5,0.3-1.1,0.5-1.7,0.5c-0.6,0.1-1.2,0.2-1.9,0.2c-0.3,0-0.6,0-0.9,0l-1.1,0l-117.7,0c-0.3,0-0.6,0-0.9,0
	c-0.6,0-1.3-0.1-1.9-0.2c-0.6-0.1-1.1-0.3-1.7-0.5c-0.5-0.3-1-0.6-1.4-1c-0.4-0.4-0.8-0.9-1-1.4c-0.3-0.5-0.4-1.1-0.5-1.7
	c-0.1-0.6-0.2-1.2-0.2-1.9c0-0.2,0-0.9,0-0.9V8.4c0,0,0-0.7,0-0.9c0-0.6,0.1-1.3,0.2-1.9C1.1,5.1,1.3,4.5,1.6,4c0.3-0.5,0.6-1,1-1.4
	C3,2.2,3.5,1.9,4,1.6c0.5-0.3,1.1-0.4,1.7-0.5c0.6-0.1,1.2-0.2,1.9-0.2l0.9,0h118.8l0.9,0c0.6,0,1.2,0.1,1.9,0.2
	c0.6,0.1,1.1,0.3,1.7,0.5c1,0.5,1.9,1.4,2.4,2.4c0.3,0.5,0.4,1.1,0.5,1.6c0.1,0.6,0.2,1.3,0.2,1.9c0,0.3,0,0.6,0,0.9
	c0,0.4,0,0.7,0,1.1V30.5z"/>
<g>
	<g>
		<path d="M47.4,10.2c0,0.8-0.2,1.5-0.7,2c-0.6,0.6-1.3,0.9-2.2,0.9s-1.6-0.3-2.2-0.9c-0.6-0.6-0.9-1.3-0.9-2.2s0.3-1.6,0.9-2.2
			c0.6-0.6,1.3-0.9,2.2-0.9c0.4,0,0.8,0.1,1.2,0.3c0.4,0.2,0.7,0.4,0.9,0.7l-0.5,0.5c-0.4-0.5-0.9-0.7-1.6-0.7
			c-0.6,0-1.2,0.2-1.6,0.7c-0.5,0.4-0.7,1-0.7,1.7s0.2,1.3,0.7,1.7s1,0.7,1.6,0.7c0.7,0,1.2-0.2,1.7-0.7c0.3-0.3,0.5-0.7,0.5-1.2
			h-2.2V9.8h2.9C47.4,9.9,47.4,10.1,47.4,10.2z"/>
		<path d="M52,7.7h-2.7v1.9h2.5v0.7h-2.5v1.9H52V13h-3.5V7H52V7.7z"/>
		<path d="M55.3,13h-0.8V7.7h-1.7V7H57v0.7h-1.7V13z"/>
		<path d="M59.9,13V7h0.8v6H59.9z"/>
		<path d="M64.1,13h-0.8V7.7h-1.7V7h4.1v0.7H64L64.1,13L64.1,13z"/>
		<path d="M73.6,12.2c-0.6,0.6-1.3,0.9-2.2,0.9c-0.9,0-1.6-0.3-2.2-0.9c-0.6-0.6-0.9-1.3-0.9-2.2s0.3-1.6,0.9-2.2
			c0.6-0.6,1.3-0.9,2.2-0.9c0.9,0,1.6,0.3,2.2,0.9s0.9,1.3,0.9,2.2S74.2,11.6,73.6,12.2z M69.8,11.7c0.4,0.4,1,0.7,1.6,0.7
			s1.2-0.2,1.6-0.7c0.4-0.4,0.7-1,0.7-1.7S73.5,8.7,73,8.3c-0.4-0.4-1-0.7-1.6-0.7s-1.2,0.2-1.6,0.7c-0.4,0.4-0.7,1-0.7,1.7
			S69.3,11.3,69.8,11.7z"/>
		<path d="M75.6,13V7h0.9l2.9,4.7l0,0v-1.2V7h0.8v6h-0.8l-3.1-4.9l0,0v1.2V13H75.6z"/>
		<path d="M68.1,21.8c-2.4,0-4.3,1.8-4.3,4.3c0,2.4,1.9,4.3,4.3,4.3s4.3-1.8,4.3-4.3C72.4,23.5,70.5,21.8,68.1,21.8z M68.1,28.6
			c-1.3,0-2.4-1.1-2.4-2.6s1.1-2.6,2.4-2.6s2.4,1,2.4,2.6C70.5,27.5,69.4,28.6,68.1,28.6z M58.8,21.8c-2.4,0-4.3,1.8-4.3,4.3
			c0,2.4,1.9,4.3,4.3,4.3c2.4,0,4.3-1.8,4.3-4.3C63.1,23.5,61.2,21.8,58.8,21.8z M58.8,28.6c-1.3,0-2.4-1.1-2.4-2.6s1.1-2.6,2.4-2.6
			c1.3,0,2.4,1,2.4,2.6C61.2,27.5,60.1,28.6,58.8,28.6z M47.7,23.1v1.8H52c-0.1,1-0.5,1.8-1,2.3c-0.6,0.6-1.6,1.3-3.3,1.3
			c-2.7,0-4.7-2.1-4.7-4.8s2.1-4.8,4.7-4.8c1.4,0,2.5,0.6,3.3,1.3l1.3-1.3c-1.1-1-2.5-1.8-4.5-1.8c-3.6,0-6.7,3-6.7,6.6
			s3.1,6.6,6.7,6.6c2,0,3.4-0.6,4.6-1.9c1.2-1.2,1.6-2.9,1.6-4.2c0-0.4,0-0.8-0.1-1.1H47.7z M93.1,24.5c-0.4-1-1.4-2.7-3.6-2.7
			s-4,1.7-4,4.3c0,2.4,1.8,4.3,4.2,4.3c1.9,0,3.1-1.2,3.5-1.9l-1.4-1c-0.5,0.7-1.1,1.2-2.1,1.2s-1.6-0.4-2.1-1.3l5.7-2.4L93.1,24.5z
			 M87.3,25.9c0-1.6,1.3-2.5,2.2-2.5c0.7,0,1.4,0.4,1.6,0.9L87.3,25.9z M82.6,30h1.9V17.5h-1.9V30z M79.6,22.7L79.6,22.7
			c-0.5-0.5-1.3-1-2.3-1c-2.1,0-4.1,1.9-4.1,4.3s1.9,4.2,4.1,4.2c1,0,1.8-0.5,2.2-1h0.1v0.6c0,1.6-0.9,2.5-2.3,2.5
			c-1.1,0-1.9-0.8-2.1-1.5l-1.6,0.7c0.5,1.1,1.7,2.5,3.8,2.5c2.2,0,4-1.3,4-4.4V22h-1.8C79.6,22,79.6,22.7,79.6,22.7z M77.4,28.6
			c-1.3,0-2.4-1.1-2.4-2.6s1.1-2.6,2.4-2.6s2.3,1.1,2.3,2.6C79.7,27.5,78.7,28.6,77.4,28.6z M101.8,17.5h-4.5V30h1.9v-4.7h2.6
			c2.1,0,4.1-1.5,4.1-3.9S103.9,17.5,101.8,17.5z M101.9,23.5h-2.7v-4.3h2.7c1.4,0,2.2,1.2,2.2,2.1C104,22.4,103.2,23.5,101.9,23.5z
			 M113.4,21.7c-1.4,0-2.8,0.6-3.3,1.9l1.7,0.7c0.4-0.7,1-0.9,1.7-0.9c1,0,1.9,0.6,2,1.6v0.1c-0.3-0.2-1.1-0.5-1.9-0.5
			c-1.8,0-3.6,1-3.6,2.8c0,1.7,1.5,2.8,3.1,2.8c1.3,0,1.9-0.6,2.4-1.2h0.1v1h1.8v-4.8C117.2,23,115.5,21.7,113.4,21.7z M113.2,28.6
			c-0.6,0-1.5-0.3-1.5-1.1c0-1,1.1-1.3,2-1.3c0.8,0,1.2,0.2,1.7,0.4C115.2,27.8,114.2,28.6,113.2,28.6z M123.7,22l-2.1,5.4h-0.1
			l-2.2-5.4h-2l3.3,7.6l-1.9,4.2h1.9l5.1-11.8H123.7z M106.9,30h1.9V17.5h-1.9V30z"/>
		<g>
			<g>
				<g>
					<g>
						<path d="M32.6,19.1L28,16.4l-4,3.7l3.5,3.3l5-2.8c0.3-0.1,0.5-0.5,0.5-0.7C33.1,19.5,32.8,19.3,32.6,19.1z"/>
						<polygon points="27,15.9 21.9,12.9 10.6,7.1 23.4,19.5 						"/>
						<polygon points="10.8,32.9 21.9,26.7 26.8,24 23.4,20.7 						"/>
						<polygon points="9.9,7.6 9.9,32.5 22.8,20.1 						"/>
					</g>
				</g>
			</g>
		</g>
	</g>
</g>
</svg>
