<?xml version="1.0" encoding="utf-8"?>
<!-- Generator: Adobe Illustrator 22.1.0, SVG Export Plug-In . SVG Version: 6.00 Build 0)  -->
<svg version="1.1" id="Layer_1" xmlns="http://www.w3.org/2000/svg" xmlns:xlink="http://www.w3.org/1999/xlink" x="0px" y="0px"
	 viewBox="0 0 1700 549" style="enable-background:new 0 0 1700 549;" xml:space="preserve">
<style type="text/css">
	.st0{fill:#E1001E;}
</style>
<g id="XMLID_49_">
	<path id="XMLID_71_" d="M448.1,249.9c-6.1,3.7-13.9,5.6-23.2,5.6c-15.6,0-27.5-5.9-35.7-17.6c-8.1-11.7-12.2-27.6-12.2-47.7
		c0-20.1,4.1-35.9,12.2-47.7c8.2-11.7,20-17.6,35.7-17.6c9.2,0,16.5,1.7,21.9,5.2c5.4,3.5,10.5,8.9,15,16.2l23.7-14.8
		c-6.1-10.9-14.1-19.2-24-24.8c-9.9-5.7-22.1-8.5-36.7-8.5c-11.6,0-22,2.3-31.2,6.8c-9.3,4.5-17.2,10.8-23.7,19
		s-11.6,17.9-15.2,29.2c-3.6,11.3-5.4,23.7-5.4,37.1c0,13.6,1.8,26,5.4,37.2s8.6,20.9,15.2,29.1c6.5,8.2,14.4,14.5,23.7,19
		s19.7,6.8,31.2,6.8c13.6,0,25.6-2.9,36.1-8.8c10.5-5.9,18.9-14.3,25.4-25.4l-22.2-14.8C459.6,240.6,454.2,246.1,448.1,249.9z"/>
	<path id="XMLID_70_" d="M579.4,142.8c-7,0-13.5,1.4-19.5,4.1s-10.8,6.6-14.2,11.6V93.6l-26.5,13.8v172.1h26.5v-78.1
		c0-10.9,2.4-19.2,7.1-25.2c4.7-5.9,11.5-8.9,20.3-8.9c8.6,0,15.3,2.7,20.2,8.1s7.2,14.9,7.2,28.5v75.5h26.5v-76.7
		c0-19.9-4-34.8-12.1-44.9C606.9,147.8,595,142.8,579.4,142.8z"/>
	<path id="XMLID_69_" d="M677.3,94.4c-4.8,0-8.8,1.7-12.1,5c-3.3,3.3-5,7.3-5,12.1c0,4.6,1.7,8.5,5,11.8c3.3,3.3,7.3,5,12.1,5
		c4.6,0,8.5-1.7,11.8-5c3.3-3.3,5-7.3,5-11.8c0-4.8-1.7-8.8-5-12.1C685.8,96.1,681.9,94.4,677.3,94.4z"/>
	<rect id="XMLID_68_" x="664" y="145.6" width="26.5" height="133.8"/>
	<path id="XMLID_67_" d="M788.7,142.8c-7,0-13.5,1.4-19.5,4.1s-10.8,6.6-14.2,11.6v-12.9h-26.5v133.8H755v-78.1
		c0-10.9,2.4-19.2,7.1-25.2c4.7-5.9,11.5-8.9,20.3-8.9c8.6,0,15.3,2.7,20.2,8.1c4.8,5.4,7.2,14.9,7.2,28.5v75.5h26.5v-76.7
		c0-19.9-4-34.8-12.1-44.9C816.2,147.8,804.3,142.8,788.7,142.8z"/>
	<path id="XMLID_64_" d="M966.7,162.7c-4.7-6.1-10.5-11-17.6-14.5c-7-3.6-15.3-5.4-24.8-5.4c-8.7,0-16.6,1.5-23.8,4.6
		c-7.2,3.1-13.4,7.5-18.5,13.4c-5.1,5.9-9.1,13.1-12,21.8c-2.9,8.7-4.3,18.7-4.3,30.1c0,11.1,1.5,20.9,4.6,29.6s7.2,16,12.5,21.9
		s11.4,10.5,18.5,13.5s14.5,4.6,22.3,4.6c10.2,0,18.9-1.5,26.3-4.6s13.9-7.4,19.9-13l-15.5-16.8c-4.4,3.4-9,6-13.6,7.9
		c-4.7,1.9-9.8,2.8-15.4,2.8c-4.1,0-8-0.7-11.7-2.2c-3.7-1.4-7.1-3.6-10.2-6.6c-3.1-3-5.6-6.8-7.7-11.3c-2-4.6-3.4-10.1-4.1-16.6
		h88.5c0.2-1.4,0.3-3.1,0.5-5.2c0.2-2.1,0.3-4.4,0.3-6.8c0-9-1.2-17.6-3.4-25.8C974.9,176,971.4,168.8,966.7,162.7z M891.9,200.2
		c1.2-10.7,4.4-19,9.6-24.9s12.2-8.8,21-8.8c5.4,0,10.1,0.9,13.9,2.7c3.8,1.8,7,4.2,9.6,7.3s4.5,6.6,5.7,10.7
		c1.3,4.1,2.1,8.4,2.4,13L891.9,200.2L891.9,200.2z"/>
	<path id="XMLID_63_" d="M1091.1,215.1c-3.8-3.3-8.5-6.3-14.2-8.9c-5.6-2.6-12.2-5.4-19.6-8.3c-5.1-2-9.2-3.9-12.4-5.5
		s-5.7-3.2-7.5-4.7c-1.9-1.5-3.2-3-3.8-4.5c-0.7-1.4-1-3-1-4.7c0-3.6,1.4-6.5,4.3-8.8s7.6-3.4,14-3.4c6.4,0,12.5,0.9,18.1,2.8
		c5.6,1.9,11.1,4.8,16.6,8.7l11.5-20.1c-5.9-4.4-12.9-8-20.8-10.7s-16.1-4.1-24.6-4.1c-6.6,0-12.8,0.8-18.4,2.3s-10.5,3.8-14.5,6.9
		c-4.1,3.1-7.2,6.9-9.4,11.5s-3.3,9.9-3.3,15.8c0,5.3,0.7,9.9,2,13.9s3.6,7.6,6.8,10.8c3.1,3.2,7.2,6.3,12.2,9.1
		c5,2.8,11.1,5.6,18.2,8.3c9.7,3.7,17.3,7.1,22.8,10.2c5.5,3.1,8.3,7.1,8.3,12.2c0,9.9-8.2,14.8-24.5,14.8c-6.3,0-12.8-1.1-19.5-3.3
		c-6.7-2.2-13.2-5.5-19.5-9.9l-12,19.9c6.8,4.9,14.7,9,23.8,12.2c9.1,3.2,18.2,4.8,27.4,4.8c6.6,0,13-0.7,19-2
		c6-1.4,11.3-3.6,15.9-6.6c4.6-3.1,8.3-7.1,11.1-12.1c2.8-5,4.2-11.3,4.2-18.7c0-6.3-0.9-11.6-2.8-16.1
		C1097.8,222.3,1094.9,218.4,1091.1,215.1z"/>
	<path id="XMLID_60_" d="M1226.4,162.7c-4.7-6.1-10.5-11-17.6-14.5c-7.1-3.6-15.3-5.4-24.9-5.4c-8.7,0-16.6,1.5-23.8,4.6
		s-13.4,7.5-18.5,13.4s-9.1,13.1-12,21.8c-2.9,8.7-4.3,18.7-4.3,30.1c0,11.1,1.5,20.9,4.6,29.6c3.1,8.7,7.2,16,12.5,21.9
		c5.3,6,11.4,10.5,18.5,13.5c7.1,3.1,14.5,4.6,22.3,4.6c10.2,0,18.9-1.5,26.3-4.6c7.3-3.1,13.9-7.4,19.9-13l-15.6-16.8
		c-4.4,3.4-9,6-13.6,7.9c-4.7,1.9-9.8,2.8-15.4,2.8c-4.1,0-8-0.7-11.7-2.2c-3.7-1.4-7.1-3.6-10.2-6.6c-3.1-3-5.6-6.8-7.7-11.3
		c-2-4.6-3.4-10.1-4.1-16.6h88.4c0.2-1.4,0.3-3.1,0.5-5.2s0.3-4.4,0.3-6.8c0-9-1.1-17.6-3.4-25.8
		C1234.6,176,1231.1,168.8,1226.4,162.7z M1151.6,200.2c1.2-10.7,4.4-19,9.6-24.9c5.2-5.9,12.2-8.8,21-8.8c5.4,0,10.1,0.9,13.9,2.7
		c3.8,1.8,7,4.2,9.6,7.3c2.6,3.1,4.5,6.6,5.7,10.7c1.3,4.1,2.1,8.4,2.4,13L1151.6,200.2L1151.6,200.2z"/>
	<path id="XMLID_57_" d="M1390.7,115.2c-5.1-4.7-11.2-8.2-18.2-10.6c-7.1-2.4-14.7-3.6-22.8-3.6H1275v178.4h26.5v-66.5h46.5
		c8.6,0,16.6-1.2,23.8-3.6c7.2-2.4,13.4-5.9,18.7-10.7c5.3-4.8,9.3-10.6,12.2-17.6c2.9-7,4.3-15,4.3-24.2c0-9.2-1.4-17.3-4.3-24.2
		C1399.8,125.7,1395.8,119.8,1390.7,115.2z M1372.1,179.5c-5.1,5.4-12.7,8.2-22.9,8.2h-47.8v-61.4h47.8c9.3,0,16.7,2.6,22.2,7.9
		c5.5,5.3,8.3,12.8,8.3,22.7C1379.8,166.5,1377.2,174.1,1372.1,179.5z"/>
	<path id="XMLID_53_" d="M1526.7,161.7c-5.3-5.9-11.7-10.6-19-13.9c-7.3-3.3-15.2-5-23.7-5c-8.5,0-16.4,1.6-23.6,4.7
		c-7.2,3.1-13.5,7.7-18.9,13.8c-5.3,6-9.6,13.4-12.6,22.1c-3.1,8.7-4.6,18.4-4.6,29.3c0,10.5,1.5,20.1,4.5,28.6
		c3,8.5,7.1,15.8,12.4,21.9s11.5,10.8,18.6,14.1c7.1,3.3,14.9,5,23.4,5c8.7,0,16.7-1.6,23.9-4.7c7.3-3.1,13.7-7.7,19.1-13.8
		c5.4-6,9.7-13.4,12.8-22.2c3.1-8.8,4.6-18.6,4.6-29.7c0-10.4-1.5-19.8-4.5-28.4C1536.2,174.9,1532.1,167.6,1526.7,161.7z
		 M1514.8,230c-1.5,5.4-3.7,10.1-6.6,14.1c-2.9,4-6.4,7.2-10.4,9.6c-4.1,2.4-8.6,3.6-13.5,3.6c-10,0-18.1-3.9-24.2-11.6
		c-6.1-7.7-9.2-19-9.2-33.8c0-13.3,2.8-23.9,8.5-32c5.7-8.1,13.6-12.1,23.6-12.1c10.7,0,19.1,4,25.1,12.1c6,8.1,9.1,19,9.1,32.8
		C1517.1,218.8,1516.4,224.6,1514.8,230z"/>
	<path id="XMLID_50_" d="M1654.8,158.3c-3.7-4.1-8.6-7.7-14.5-10.8c-5.9-3.1-12.3-4.6-19.1-4.6c-7,0-13.6,1.4-20,4.1
		s-12,6.9-16.8,12.5s-8.7,12.7-11.6,21.2s-4.3,18.4-4.3,29.8c0,12.8,1.3,23.7,3.9,32.8c2.6,9.1,6.3,16.5,11,22.3
		c4.7,5.8,10.2,10,16.4,12.8c6.3,2.7,13,4.1,20.1,4.1c7.1,0,13.5-1.5,19.1-4.5c5.6-3,10.9-6.7,15.8-11.2v12.9h26V93.6l-26,13.5
		V158.3z M1655,240.8c-3.4,4.4-7.7,8.3-12.9,11.8c-5.2,3.5-11,5.2-17.3,5.2c-9.7,0-17.1-3.8-22.2-11.4c-5.2-7.6-7.7-19.9-7.7-36.8
		c0-14.2,2.5-24.8,7.4-31.8c4.9-7,12.1-10.5,21.6-10.5c3.2,0,6.4,0.6,9.5,1.6c3.1,1.1,6.1,2.5,8.8,4.2c2.7,1.7,5.2,3.6,7.4,5.6
		s4.1,4.1,5.6,6.1L1655,240.8L1655,240.8z"/>
</g>
<g>
	<g>
		<path id="XMLID_2_" class="st0" d="M154.4,101.5c20.2,0,36.6-16.4,36.6-36.6s-16.4-36.6-36.6-36.6s-36.6,16.4-36.6,36.6
			C117.8,85.2,134.2,101.5,154.4,101.5z"/>
		<path d="M283.7,69.9c-1.2-1.2-3.1-1.2-4.4,0c-2.9,3-42.9,54.7-125.4,47.9c-48.7-4-108.6-35.6-124.6-48.1c-1.2-1-3-1-4.1,0.2
			c-1.2,1.2-1.2,3.2,0,4.4c0,0,63.9,59.8,63.9,122.6c0,67.3-52.8,113.5-64,127.4c-1.1,1.2-1,3.1,0.1,4.2c1,1,2.5,1.1,3.6,0.5
			c125.6-64.7,190.6-129.9,255.4-255.5C284.9,72.3,284.7,70.9,283.7,69.9z"/>
	</g>
	<path class="st0" d="M284.5,325.5c-10.8-36.6-35.6-86.9-67.6-121.8c-18.3,21.7-37.9,41.4-59.6,59.7c40.9,2.7,91.8,20.4,121.6,64.6
		l0,0l0,0c0.1,0.2,0.2,0.3,0.4,0.5c1.2,1.2,3.2,1.2,4.4,0C284.5,327.6,284.8,326.5,284.5,325.5L284.5,325.5z"/>
</g>
<g>
	<path d="M439.6,377.3c8.7-1.8,21.5-3,33.2-3c18.5,0,30.6,3.6,39,11.1c6.6,5.8,10.5,14.9,10.5,25.4c0,17.5-11.3,29.2-25.2,34v0.6
		c10.1,3.6,16.3,13.1,19.7,27c4.4,18.7,7.6,31.6,10.1,36.8H509c-2.2-4-5.2-15.3-8.7-32c-4-18.5-11.3-25.4-27-26h-16.3v58h-17.3
		V377.3z M456.9,438.1h17.7c18.5,0,30.2-10.1,30.2-25.4c0-17.3-12.5-24.8-30.8-24.8c-8.3,0-14.1,0.8-17.1,1.6V438.1z"/>
	<path d="M615.7,446.5h-51.9v48.3h58v14.5h-75.5v-134h72.6v14.5h-55.1v42.3h51.9V446.5z"/>
	<path d="M737.7,504.9c-6.2,3.2-19.1,6.4-35.4,6.4c-37.8,0-66-23.9-66-67.8c0-41.9,28.4-70.2,70-70.2c16.5,0,27.2,3.6,31.8,5.8
		l-4.4,14.3c-6.4-3.2-15.7-5.6-26.8-5.6c-31.4,0-52.3,20.1-52.3,55.1c0,32.8,18.9,53.7,51.3,53.7c10.7,0,21.5-2.2,28.4-5.6
		L737.7,504.9z"/>
	<path d="M782.1,467.2l-13.9,42.1h-17.9l45.5-134h20.9l45.7,134h-18.5l-14.3-42.1H782.1z M826,453.6l-13.3-38.6
		c-2.8-8.7-4.8-16.7-6.8-24.4h-0.6c-1.8,7.8-4,16.1-6.6,24.3l-13.1,38.8H826z"/>
	<path d="M882.1,377.1c8.3-1.6,19.3-2.8,33.2-2.8c17.1,0,29.6,4,37.6,11.1c7.4,6.4,11.9,16.1,11.9,27.8c0,12.1-3.6,21.7-10.5,28.6
		c-9.1,9.7-24.1,14.7-40.9,14.7c-5.2,0-9.9-0.2-13.9-1.2v53.9h-17.3V377.1z M899.4,441.3c3.8,1,8.5,1.4,14.3,1.4
		c20.9,0,33.6-10.1,33.6-28.4c0-17.7-12.5-26.2-31.6-26.2c-7.6,0-13.3,0.6-16.3,1.4V441.3z"/>
	<path d="M1051.6,467.2l-13.9,42.1h-17.9l45.5-134h20.9l45.7,134h-18.5l-14.3-42.1H1051.6z M1095.5,453.6l-13.3-38.6
		c-2.8-8.7-4.8-16.7-6.8-24.4h-0.6c-1.8,7.8-4,16.1-6.6,24.3l-13.1,38.8H1095.5z"/>
	<path d="M1151.6,377.1c8.3-1.6,19.3-2.8,33.2-2.8c17.1,0,29.6,4,37.6,11.1c7.4,6.4,11.9,16.1,11.9,27.8c0,12.1-3.6,21.7-10.5,28.6
		c-9.1,9.7-24.1,14.7-40.9,14.7c-5.2,0-9.9-0.2-13.9-1.2v53.9h-17.3V377.1z M1168.9,441.3c3.8,1,8.5,1.4,14.3,1.4
		c20.9,0,33.6-10.1,33.6-28.4c0-17.7-12.5-26.2-31.6-26.2c-7.6,0-13.3,0.6-16.3,1.4V441.3z"/>
	<path d="M1257.4,377.1c8.3-1.6,19.3-2.8,33.2-2.8c17.1,0,29.6,4,37.6,11.1c7.4,6.4,11.9,16.1,11.9,27.8c0,12.1-3.6,21.7-10.5,28.6
		c-9.1,9.7-24.1,14.7-40.9,14.7c-5.2,0-9.9-0.2-13.9-1.2v53.9h-17.3V377.1z M1274.6,441.3c3.8,1,8.5,1.4,14.3,1.4
		c20.9,0,33.6-10.1,33.6-28.4c0-17.7-12.5-26.2-31.6-26.2c-7.6,0-13.3,0.6-16.3,1.4V441.3z"/>
</g>
</svg>
