<svg width="533" height="439" viewBox="0 0 533 439" fill="none" xmlns="http://www.w3.org/2000/svg">
<path d="M350 13.0054L368.439 43.7193L344.913 70.7456L379.827 62.7096L398.255 93.4236L401.41 57.7402L436.315 49.7043L403.353 35.6932L406.488 0L382.972 27.0263L350 13.0054Z" fill="#D90050"/>
<path d="M140.673 45.3755L107.494 147.574H0L86.9456 210.747L53.7469 312.927L140.702 249.783L227.628 312.917L194.42 210.757L281.345 147.555L173.871 147.584L140.673 45.3755Z" fill="#D90050"/>
<path d="M464.101 99.7236L469.178 135.17L437.015 150.946L472.304 157.089L477.372 192.536L494.124 160.875L529.403 167.008L504.458 141.313L521.19 109.643L489.036 125.429L464.101 99.7236Z" fill="#D90050"/>
<path d="M404.595 344.351L382.223 372.323L348.699 359.683L368.38 389.608L346.007 417.571L380.547 408.105L400.227 438.011L401.884 402.249L436.424 392.763L402.929 380.133L404.595 344.351Z" fill="#D90050"/>
<path d="M484.037 242.605L474.207 277.046L438.396 278.328L468.114 298.334L458.273 332.765L486.483 310.688L516.191 330.675L503.905 297.042L532.105 274.946L496.303 276.237L484.037 242.605Z" fill="#D90050"/>
</svg>
