<?xml version="1.0" encoding="utf-8"?>
<!-- Generator: Adobe Illustrator 23.0.1, SVG Export Plug-In . SVG Version: 6.00 Build 0)  -->
<svg version="1.1" id="Layer_1" xmlns="http://www.w3.org/2000/svg" xmlns:xlink="http://www.w3.org/1999/xlink" x="0px" y="0px"
     viewBox="0 0 72 72" style="enable-background:new 0 0 72 72;" xml:space="preserve">
  <g id="XMLID_1_">
    <path id="XMLID_68_" d="M24.1,48.1h-8.6c-0.3,0-0.6,0.1-0.9,0.4c-0.2,0.2-0.4,0.5-0.4,0.9v8.1
                c0,0.3,0.1,0.6,0.4,0.9c0.2,0.2,0.5,0.4,0.9,0.4h8.6c0.3,0,0.6-0.1,0.9-0.4c0.2-0.2,0.4-0.5,0.4-0.9v-8.1c0-0.3-0.1-0.6-0.4-0.9
                C24.8,48.3,24.5,48.1,24.1,48.1z M22.9,56.3h-6.2v-5.7h6.2V56.3z"></path>
    <path id="XMLID_69_" d="M44.8,52H31.5c-0.7,0-1.2,0.5-1.2,1.2c0,0.7,0.5,1.2,1.2,1.2h13.3c0.7,0,1.2-0.5,1.2-1.2
                C46,52.5,45.5,52,44.8,52z"></path>
    <path id="XMLID_72_" d="M24.1,31.9h-8.6c-0.3,0-0.6,0.1-0.9,0.4c-0.2,0.2-0.4,0.5-0.4,0.9v8.1
                c0,0.3,0.1,0.6,0.4,0.9c0.2,0.2,0.5,0.4,0.9,0.4h8.6c0.3,0,0.6-0.1,0.9-0.4c0.2-0.2,0.4-0.5,0.4-0.9v-8.1c0-0.3-0.1-0.6-0.4-0.9
                C24.8,32.1,24.5,31.9,24.1,31.9z M22.9,40.1h-6.2v-5.7h6.2V40.1z"></path>
    <path id="XMLID_73_" d="M44.8,35.8H31.5c-0.7,0-1.2,0.5-1.2,1.2c0,0.7,0.5,1.2,1.2,1.2h13.3c0.7,0,1.2-0.5,1.2-1.2
                C46,36.3,45.5,35.8,44.8,35.8z"></path>
    <path id="XMLID_74_" d="M44.8,19.6H31.5c-0.7,0-1.2,0.5-1.2,1.2c0,0.7,0.5,1.2,1.2,1.2h13.3c0.7,0,1.2-0.5,1.2-1.2
                C46,20.1,45.5,19.6,44.8,19.6z"></path>
    <path id="XMLID_75_" d="M25.6,15.4l-8.3,9.3l-2.4-3c-0.4-0.5-1.2-0.6-1.7-0.2c-0.5,0.4-0.6,1.2-0.2,1.7l3.3,4.1
                c0.2,0.3,0.6,0.4,0.9,0.4c0.4,0,0.7-0.1,0.9-0.4l9.2-10.3c0.4-0.5,0.4-1.3-0.1-1.7C26.9,14.9,26.1,14.9,25.6,15.4z"></path>
    <path id="XMLID_78_" d="M65.8,35.8c-0.7-0.4-1.6-0.6-2.4-0.6c-1,0-2.1,0.3-2.9,0.9c-0.2,0.1-0.3,0.2-0.4,0.4
                l-3.4,6.1V7.2c0-1.9-1.6-3.5-3.5-3.5H42.8l-1.7-3c-0.2-0.4-0.6-0.6-1.1-0.6h-19c-0.4,0-0.9,0.2-1.1,0.6l-1.7,3H7
                c-1.9,0-3.5,1.6-3.5,3.5v61.3c0,1.9,1.6,3.5,3.5,3.5h46.3c1.9,0,3.5-1.6,3.5-3.5v-6.7c3.9-6.9,7.7-13.8,11.6-20.7
                c0.1-0.2,0.1-0.3,0.2-0.5c0-0.1,0-0.2,0-0.3C68.5,38.4,67.5,36.6,65.8,35.8z M21.1,3.7l0.7-1.2h17.5L40,3.7l1,1.9h-21L21.1,3.7z
                M54.3,68.5c0,0.6-0.5,1-1,1H7c-0.6,0-1-0.5-1-1V7.2c0-0.6,0.5-1,1-1H17L17,6.3c-0.2,0.4-0.2,0.8,0,1.2s0.6,0.6,1,0.6h25.1
                c0.4,0,0.8-0.2,1-0.6c0.2-0.4,0.2-0.8,0-1.2l-0.1-0.1h9.1c0.6,0,1,0.5,1,1V47l-6.7,12c-0.1,0.2-0.2,0.5-0.1,0.8l0.7,5.3
                c0.1,0.4,0.3,0.7,0.6,0.9c0.3,0.2,0.7,0.2,1,0.1l4.5-1.6V68.5z M56.7,56.8c-0.8,1.4-1.6,2.9-2.4,4.3c-0.1,0.3-0.3,0.5-0.4,0.8
                l-3.5,1.3l-0.5-3.4l4.4-7.8l2.4-4.3l5.4-9.6c0.4-0.2,0.9-0.4,1.3-0.4c0.4,0,0.8,0.1,1.2,0.3c0.8,0.4,1.4,1.3,1.4,2.3
                C62.9,45.7,59.8,51.3,56.7,56.8z"></path>
  </g>
</svg>
