<?xml version="1.0" encoding="utf-8"?>
<!-- Generator: Adobe Illustrator 23.0.1, SVG Export Plug-In . SVG Version: 6.00 Build 0)  -->
<svg version="1.1" id="Layer_1" xmlns="http://www.w3.org/2000/svg" xmlns:xlink="http://www.w3.org/1999/xlink" x="0px" y="0px"
     viewBox="0 0 72 72" style="enable-background:new 0 0 72 72;" xml:space="preserve">
  <g id="XMLID_2_">
    <path id="XMLID_33_" class="st0" d="M60.8,0.7H11.2c-3.6,0-6.5,2.9-6.5,6.5v57.6c0,3.6,2.9,6.5,6.5,6.5h49.6c3.6,0,6.5-2.9,6.5-6.5
                V7.2C67.3,3.6,64.4,0.7,60.8,0.7z M64.3,64.8c0,1.9-1.6,3.5-3.5,3.5H11.2c-1.9,0-3.5-1.6-3.5-3.5V7.2c0-1.9,1.6-3.5,3.5-3.5h49.6
                c1.9,0,3.5,1.6,3.5,3.5V64.8z"></path>
    <path id="XMLID_36_" class="st0" d="M27.3,20.7c-5.5,5.5-6.4,13.8-2.8,20.3c-0.1,0.1-0.3,0.1-0.4,0.3l-8,8
                c-0.2,0.2-0.4,0.5-0.4,0.8c0,0.3-0.4,3.2,1.4,5c0.6,0.6,1.7,1.3,3.5,1.3c0.3,0,0.7,0,1-0.1c0.3,0,0.6-0.2,0.9-0.4l8.5-8.5
                c2.6,1.4,5.4,2.1,8.2,2.1c4.3,0,8.7-1.7,12-5c6.6-6.6,6.6-17.4,0-24C44.7,14.1,33.9,14.1,27.3,20.7z M20.9,53.5
                c-0.7,0-1.2-0.1-1.6-0.4c-0.5-0.5-0.6-1.4-0.6-2.1l7.5-7.5c0.3,0.4,0.7,0.8,1.1,1.2c0.4,0.4,0.8,0.8,1.2,1.1L20.9,53.5z M49.2,42.6
                c-5.4,5.4-14.3,5.4-19.7,0c-5.4-5.4-5.4-14.3,0-19.7c2.7-2.7,6.3-4.1,9.9-4.1c3.6,0,7.1,1.4,9.9,4.1C54.6,28.3,54.6,37.1,49.2,42.6
                z"></path>
    <path id="XMLID_40_" class="st0" d="M45.2,30.9c0-3.3-1.2-6.7-6.2-6.7c-2.1,0-4,0.6-5.4,1.5l0.7,2c1.2-0.7,2.7-1.2,4.3-1.2
                c3.4,0,3.7,2.4,3.7,3.8v0.3c-6.3,0-9.9,2.1-9.9,6.1c0,2.4,1.7,4.7,5,4.7c2.3,0,4.1-1.2,5-2.4h0.1l0.2,2.1h2.7
                c-0.2-1.1-0.3-2.5-0.3-3.9V30.9z M42.3,35.5c0,0.3-0.1,0.6-0.2,0.9c-0.5,1.4-1.8,2.7-4,2.7c-1.5,0-2.8-0.9-2.8-2.8
                c0-3.2,3.7-3.8,6.9-3.7V35.5z"></path>
    <path id="XMLID_41_" class="st0" d="M20.7,11.7h30.6c0.8,0,1.5-0.7,1.5-1.5s-0.7-1.5-1.5-1.5H20.7c-0.8,0-1.5,0.7-1.5,1.5
                S19.9,11.7,20.7,11.7z"></path>
    <path id="XMLID_42_" class="st0" d="M51.3,60.7H20.7c-0.8,0-1.5,0.7-1.5,1.5s0.7,1.5,1.5,1.5h30.6c0.8,0,1.5-0.7,1.5-1.5
                S52.1,60.7,51.3,60.7z"></path>
  </g>
</svg>
