<?xml version="1.0" encoding="utf-8"?>
<!-- Generator: Adobe Illustrator 23.0.1, SVG Export Plug-In . SVG Version: 6.00 Build 0)  -->
<svg version="1.1" id="Layer_1" xmlns="http://www.w3.org/2000/svg" xmlns:xlink="http://www.w3.org/1999/xlink" x="0px" y="0px"
     viewBox="0 0 72 72" style="enable-background:new 0 0 72 72;" xml:space="preserve">
  <g>
    <path class="st0" d="M66.1,0.3H9.5c-2.6,0-2.6,2.5-2.6,3.6v8.3H3.6c-0.7,0-1.3,0.6-1.3,1.3s0.6,1.3,1.3,1.3h3.1v18.9H3.6
                c-0.7,0-1.3,0.6-1.3,1.3s0.6,1.3,1.3,1.3h3.1V55H3.6c-0.7,0-1.3,0.6-1.3,1.3s0.6,1.3,1.3,1.3h3.1v10.5c0,1.1,0,3.6,2.6,3.6h56.7
                c2,0,3.6-1.6,3.6-3.6V3.9C69.6,1.9,68.1,0.3,66.1,0.3z M67.1,68.1c0,0.6-0.5,1.1-1.1,1.1H9.5c-0.1-0.3-0.1-0.8-0.1-1.1V57.6H10
                c0.6,2.8,3.1,4.9,6.1,4.9c3.4,0,6.2-2.8,6.2-6.2c0-3.4-2.8-6.2-6.2-6.2c-3,0-5.4,2.1-6,4.9H9.4V36.2H10c0.6,2.8,3.1,4.9,6.1,4.9
                c3.4,0,6.2-2.8,6.2-6.2c0-3.4-2.8-6.2-6.2-6.2c-3,0-5.4,2.1-6,4.9H9.4V14.8H10c0.6,2.8,3.1,4.9,6.1,4.9c3.4,0,6.2-2.8,6.2-6.2
                s-2.8-6.2-6.2-6.2c-3,0-5.4,2.1-6,4.9H9.4V3.9c0-0.3,0-0.8,0.1-1.1h56.6c0.6,0,1.1,0.5,1.1,1.1V68.1z M15.1,55h-2.6
                c0.5-1.4,1.8-2.3,3.4-2.3c2,0,3.6,1.6,3.6,3.6S18,59.9,16,59.9c-1.6,0-2.9-1-3.4-2.4h2.6c0.7,0,1.3-0.6,1.3-1.3
                C16.5,55.6,15.9,55,15.1,55z M15.1,33.6h-2.6c0.5-1.4,1.8-2.3,3.4-2.3c2,0,3.6,1.6,3.6,3.6S18,38.5,16,38.5c-1.6,0-2.9-1-3.4-2.4
                h2.6c0.7,0,1.3-0.6,1.3-1.3C16.5,34.2,15.9,33.6,15.1,33.6z M15.1,12.2h-2.6c0.5-1.4,1.8-2.3,3.4-2.3c2,0,3.6,1.6,3.6,3.6
                S18,17.1,16,17.1c-1.6,0-2.9-1-3.4-2.4h2.6c0.7,0,1.3-0.6,1.3-1.3C16.5,12.7,15.9,12.2,15.1,12.2z"></path>
    <path id="XMLID_3_" class="st0" d="M51.1,12.2h-21c-0.7,0-1.3,0.6-1.3,1.3s0.6,1.3,1.3,1.3h21c0.7,0,1.3-0.6,1.3-1.3
                S51.8,12.2,51.1,12.2z"></path>
    <path id="XMLID_2_" class="st0" d="M30.1,36.5h20.8c0.7,0,1.3-0.6,1.3-1.3s-0.6-1.3-1.3-1.3H30.1c-0.7,0-1.3,0.6-1.3,1.3
                S29.4,36.5,30.1,36.5z"></path>
    <path id="XMLID_1_" class="st0" d="M51.1,55h-21c-0.7,0-1.3,0.6-1.3,1.3s0.6,1.3,1.3,1.3h21c0.7,0,1.3-0.6,1.3-1.3S51.8,55,51.1,55
                z"></path>
  </g>
</svg>
