<svg id="Layer_1" data-name="Layer 1" xmlns="http://www.w3.org/2000/svg" viewBox="0 0 173 173"><title>ChinesePod_Tools</title><path d="M55.57,42.88A12.71,12.71,0,0,0,42.88,55.57v61.86a12.71,12.71,0,0,0,12.69,12.69H86.5a1.68,1.68,0,0,0,1.68-1.68v-18a1.66,1.66,0,0,0-.56-1.24,1.7,1.7,0,0,0-1.29-.43A5,5,0,0,0,82.65,111a6.43,6.43,0,0,1-5.78,3,6.5,6.5,0,0,1-6.05-6A6.43,6.43,0,0,1,82.64,104a4.94,4.94,0,0,0,3.68,2.26,1.7,1.7,0,0,0,1.3-.42,1.68,1.68,0,0,0,.56-1.25V88.18h13.2a9.71,9.71,0,0,0-3.75,7.69,9.82,9.82,0,0,0,3.09,7.13,9.7,9.7,0,0,0,6.69,2.65c.21,0,.42,0,.63,0a9.78,9.78,0,0,0,5.42-17.45h15a1.68,1.68,0,0,0,1.68-1.68V55.57a12.71,12.71,0,0,0-12.69-12.69H55.57ZM71.89,84.82a9.72,9.72,0,0,0,3.48-7.48,9.82,9.82,0,0,0-3.09-7.13,9.78,9.78,0,1,0-13,14.61h-13V55.57a9.35,9.35,0,0,1,9.33-9.33H84.82V62.8A1.64,1.64,0,0,0,85.38,64a1.66,1.66,0,0,0,1.29.43,4.93,4.93,0,0,0,3.68-2.24,6.42,6.42,0,0,1,11.47,1.32l.09.28a5.46,5.46,0,0,1,.24,1.15l0,.29a6.42,6.42,0,0,1-11.82,3.89,5,5,0,0,0-3.68-2.25h-.36a1.72,1.72,0,0,0-.94.42,1.66,1.66,0,0,0-.52.9,1.34,1.34,0,0,0,0,.35V84.82Zm12.93,3.36v13.17a9.79,9.79,0,1,0,0,12.34v13.07H55.57a9.35,9.35,0,0,1-9.33-9.33V88.18H62.68a1.67,1.67,0,0,0,1.26-.58,1.63,1.63,0,0,0,.4-1.32,5,5,0,0,0-2.21-3.53,6.41,6.41,0,0,1-3-5.77,6.49,6.49,0,0,1,6-6,6.43,6.43,0,0,1,3.89,11.82,5,5,0,0,0-2.23,3.52,1.67,1.67,0,0,0,1.66,1.91Zm3.36-16.32a9.79,9.79,0,1,0,0-12.34V46.24h29.25a9.35,9.35,0,0,1,9.33,9.33V84.82H110.3a1.69,1.69,0,0,0-1.23.54,1.64,1.64,0,0,0-.44,1.26,5,5,0,0,0,2.24,3.84,6.42,6.42,0,0,1,3,5.78,6.48,6.48,0,0,1-6,6,6.42,6.42,0,0,1-3.89-11.81,5.06,5.06,0,0,0,2.27-3.84,1.65,1.65,0,0,0-.44-1.27,1.71,1.71,0,0,0-1.23-.54H88.18v-13Z" fill="#e1001e"/><path d="M138.93,17.42a16.66,16.66,0,0,1,16.65,16.65V138.93a16.66,16.66,0,0,1-16.65,16.65H34.07a16.66,16.66,0,0,1-16.65-16.65V34.07A16.66,16.66,0,0,1,34.07,17.42H138.93m0-3.35H34.07a20,20,0,0,0-20,20V138.93a20,20,0,0,0,20,20H138.93a20,20,0,0,0,20-20V34.07a20,20,0,0,0-20-20Z" fill="#e1001e"/></svg>