<svg id="Layer_1" data-name="Layer 1" xmlns="http://www.w3.org/2000/svg" viewBox="0 0 173 173"><title>ChinesePod_Tools</title><path d="M115.6,83.21a33.3,33.3,0,0,1-4.24-5c-2-2.91-3.85-6.89-3.85-10.86v-.8a24,24,0,0,0-3.18-11.8,14.48,14.48,0,0,0-2.25-3.18c.13-.13.26-.39.53-.66a7.64,7.64,0,0,0,1.06-1.72,5.56,5.56,0,0,0,.66-2.26,2.58,2.58,0,0,0-.26-1.06A4.84,4.84,0,0,0,103,44.64a13,13,0,0,0-2.79-1.59,52.41,52.41,0,0,0-18-2.78,90.87,90.87,0,0,0-15.91,1.46c-6.09,1.06-10.86,2.91-14.44,5.43a25.38,25.38,0,0,0-9.94,13.78,60.21,60.21,0,0,0-1.86,14.72h0v.53a20.37,20.37,0,0,0,2.39,9.14,67.36,67.36,0,0,0,8.21,11.8c1.46,1.72,2.92,3.44,4.11,5a22.82,22.82,0,0,1,2.65,4.11,9.48,9.48,0,0,1,.67,4.24c0,4.11-1.33,9.68-2.65,14-.53,1.86-1.2,3.58-1.6,4.91h3.32c.4-1.2.79-2.52,1.32-4,1.33-4.64,2.79-10.2,2.79-15A12.34,12.34,0,0,0,60.2,105a32.09,32.09,0,0,0-4.38-6.36c-2.65-3.32-6-7-8.48-10.87a22.33,22.33,0,0,1-3.05-5.83,15.44,15.44,0,0,1-1.19-5.84v-.39h0c.26-5.84.53-12.6,3.58-18.43a19.94,19.94,0,0,1,6.89-7.68,32.53,32.53,0,0,1,13.25-4.91A117,117,0,0,1,82.2,43.45h0a49.14,49.14,0,0,1,14.84,2,28.5,28.5,0,0,1,3.58,1.45,1.91,1.91,0,0,1,.53.4c0,.13-.13.27-.26.53a13.84,13.84,0,0,1-1.2,1.73,2.4,2.4,0,0,0-.53.66l-.13.13h0a1.7,1.7,0,0,0-.53,1.19,1.62,1.62,0,0,0,.53,1.2h0a17.51,17.51,0,0,1,2.78,3.84,20.62,20.62,0,0,1,2.79,10.07v.8c0,5.17,2.38,9.67,4.64,13a43.37,43.37,0,0,0,3.18,4c-.4.27-.93.67-1.33.93a11.43,11.43,0,0,1-1.72,1.06l-1.33.66A1.52,1.52,0,0,0,107,88.91V89c.14.4.4,1.46.67,2.52a6.77,6.77,0,0,1,.26,1.59v.4c-.93.13-2.38.26-3.84.4s-3.18.26-4.24.26h-1.2a1.62,1.62,0,0,0-1.45.93A1.45,1.45,0,0,0,97.71,97s1.85,1.33,4.1,2.79c1.2.66,2.39,1.46,3.58,2.12a13.06,13.06,0,0,0,2,.79c-.13.27-.13.4-.26.67l-.4.39a3.28,3.28,0,0,0-1.33,1.33,3.58,3.58,0,0,0-.39,1.59,6.77,6.77,0,0,0,.26,1.59,9.94,9.94,0,0,0,.66,2.12,9,9,0,0,1,.27,1.59v.4l-.13.26a2.09,2.09,0,0,1-.93.53,3.91,3.91,0,0,1-1.33.14h0a18.54,18.54,0,0,1-3.44-.53,17.66,17.66,0,0,0-3.71-.53,6.75,6.75,0,0,0-2.13.39,3.2,3.2,0,0,0-1.19,1.07A11.91,11.91,0,0,0,92,116.35a38.56,38.56,0,0,0-1.86,11.79v1.59h3.18v-1.59a35.8,35.8,0,0,1,1.06-8.61,11.5,11.5,0,0,1,1.06-3,5.91,5.91,0,0,1,.53-.93l.14-.13h0a1.36,1.36,0,0,1,.53-.13h0a17.83,17.83,0,0,1,3,.53,19.69,19.69,0,0,0,4.11.53,7.68,7.68,0,0,0,2.39-.4,6.1,6.1,0,0,0,2.25-1.46,3.63,3.63,0,0,0,.8-1.33,5.68,5.68,0,0,0,.26-1.45,11.32,11.32,0,0,0-.66-3.18c-.13-.53-.27-.93-.4-1.33a2.37,2.37,0,0,1-.13-.79v-.14h0a5.61,5.61,0,0,0,1.59-1.46,6.37,6.37,0,0,0,.93-2.25,5.92,5.92,0,0,0,.13-1.19,1.57,1.57,0,0,0-1.33-1.59,12.69,12.69,0,0,1-2.65-.93c-1.06-.53-2.25-1.19-3.31-1.86.8-.13,1.72-.13,2.52-.26,2-.27,3.71-.53,3.71-.53a1.46,1.46,0,0,0,1.19-.93,4.14,4.14,0,0,0,.13-1.19,9.25,9.25,0,0,0-.26-1.86,20.59,20.59,0,0,0-.66-3l.79-.4c2.26-1.33,4.64-3,4.77-3a1.39,1.39,0,0,0,.67-1.19c-.4-.53-.67-1.06-.93-1.33Z" fill="#e1001e"/><path d="M119.44,93a1.61,1.61,0,1,0-2.52,2h0a6,6,0,0,1,.67,1.19,7.08,7.08,0,0,1,.53,2.39,3.73,3.73,0,0,1-1.2,2.78,1.6,1.6,0,0,0,2.39,2.12,7.35,7.35,0,0,0,2-4.9,9.57,9.57,0,0,0-.93-3.85A6.86,6.86,0,0,0,119.44,93Z" fill="#e1001e"/><path d="M126.2,91.83c-.79-1.73-1.59-2.79-1.59-2.92a1.61,1.61,0,1,0-2.52,2h0a14.66,14.66,0,0,1,1.46,2.52A13.75,13.75,0,0,1,124.88,99a9.25,9.25,0,0,1-2.65,6.5,1.59,1.59,0,1,0,2.38,2.12A12.66,12.66,0,0,0,128.06,99,20.11,20.11,0,0,0,126.2,91.83Z" fill="#e1001e"/><path d="M132.17,87.19a36.55,36.55,0,0,0-2.79-5,1.53,1.53,0,1,0-2.52,1.72h0a28.84,28.84,0,0,1,2.52,4.64,26.29,26.29,0,0,1,2.39,10.34,18.43,18.43,0,0,1-5.3,13,1.59,1.59,0,0,0,2.25,2.25A21.21,21.21,0,0,0,135,99,27.72,27.72,0,0,0,132.17,87.19Z" fill="#e1001e"/><path d="M138.93,17.42a16.66,16.66,0,0,1,16.65,16.65V138.93a16.66,16.66,0,0,1-16.65,16.65H34.07a16.66,16.66,0,0,1-16.65-16.65V34.07A16.66,16.66,0,0,1,34.07,17.42H138.93m0-3.35H34.07a20,20,0,0,0-20,20V138.93a20,20,0,0,0,20,20H138.93a20,20,0,0,0,20-20V34.07a20,20,0,0,0-20-20Z" fill="#e1001e"/></svg>