<svg id="Layer_1" data-name="Layer 1" xmlns="http://www.w3.org/2000/svg" viewBox="0 0 173 173"><title>ChinesePod_Tools</title><path d="M126.53,98.26a1.72,1.72,0,0,0-1.25-.46H121a1.84,1.84,0,0,0-.23-.57,41.78,41.78,0,0,1-1.36-9.3v-.22a35.73,35.73,0,0,1,.8-7c.22-1,.45-2,.68-2.72,0-.11,0-.11.11-.23h4.08a2.34,2.34,0,0,0,1.25-.45,1.7,1.7,0,0,0,.45-1.25,2.37,2.37,0,0,0-.45-1.25,1.7,1.7,0,0,0-1.25-.45H79.91v-1.2h38.56a2.34,2.34,0,0,0,1.25-.45,1.71,1.71,0,0,0,.46-1.25,2.34,2.34,0,0,0-.46-1.24,1.71,1.71,0,0,0-1.25-.46h-4.31a2,2,0,0,0-.22-.57,41.2,41.2,0,0,1-1.36-9.3v-.22a36.49,36.49,0,0,1,.79-7c.23-1,.45-2,.68-2.72,0-.11,0-.11.11-.23h4.09a2.33,2.33,0,0,0,1.24-.45,1.67,1.67,0,0,0,.46-1.25,2.38,2.38,0,0,0-.46-1.25,1.69,1.69,0,0,0-1.24-.45H55.18a6.81,6.81,0,0,0-4.31,1.48,12.74,12.74,0,0,0-3.75,5.67A18.86,18.86,0,0,0,46,59.74h0a19,19,0,0,0,2,8.39,9.18,9.18,0,0,0,2.84,3.41A7.09,7.09,0,0,0,55.18,73h10v1.2H62a6.82,6.82,0,0,0-4.31,1.47,11.87,11.87,0,0,0-3.74,5.56,18.91,18.91,0,0,0-1.13,6.35h0a19.08,19.08,0,0,0,2,8.4,9.22,9.22,0,0,0,2.83,3.4A7.07,7.07,0,0,0,62,100.86h63.3a2.37,2.37,0,0,0,1.25-.45,1.7,1.7,0,0,0,.45-1.25C127.09,98.94,126.87,98.48,126.53,98.26ZM55.18,69.72a3.3,3.3,0,0,1-2.27-.79,8.75,8.75,0,0,1-2.61-4,14.48,14.48,0,0,1-.91-5.22h0a15.2,15.2,0,0,1,1.7-6.81,5.81,5.81,0,0,1,1.82-2.38,3.44,3.44,0,0,1,2.27-.79h55.58c-.23.79-.45,1.93-.68,3.06a44.76,44.76,0,0,0-.68,6.69v.34a33.34,33.34,0,0,0,.91,7.72c.11.79.34,1.47.45,2.15H79.91V59h15a1.71,1.71,0,0,0,0-3.41H59.6a1.71,1.71,0,0,0,0,3.41h5.45V69.72ZM76.5,59V83.74l-3-2.95a1.64,1.64,0,0,0-2.38,0L68.56,83.4V59ZM117,95.53c.11.8.34,1.48.45,2.16H61.87a3.26,3.26,0,0,1-2.27-.8,8.65,8.65,0,0,1-2.61-4,14.47,14.47,0,0,1-.91-5.21h0a15,15,0,0,1,1.71-6.81,8.32,8.32,0,0,1,1.92-2.38,3.49,3.49,0,0,1,2.27-.8h3.18v9.76A1.67,1.67,0,0,0,68,88.73l4.31-4.31L77,89.07a1.57,1.57,0,0,0,1.81.34,1.61,1.61,0,0,0,1-1.59V77.72h37.66c-.22.91-.45,1.93-.68,3.07a44.49,44.49,0,0,0-.68,6.69v.34A54.68,54.68,0,0,0,117,95.53Z" fill="#e1001e"/><path d="M118.59,126.08h-4.31a2,2,0,0,0-.23-.56,41.39,41.39,0,0,1-1.36-9.31V116a36.49,36.49,0,0,1,.79-7c.23-1,.46-2,.68-2.72,0-.11,0-.11.12-.22h4a2.34,2.34,0,0,0,1.24-.46,1.67,1.67,0,0,0,.46-1.25,2.34,2.34,0,0,0-.46-1.24,1.7,1.7,0,0,0-1.24-.46H55.18a6.81,6.81,0,0,0-4.31,1.48,11.84,11.84,0,0,0-3.75,5.56A18.86,18.86,0,0,0,46,116h0a19,19,0,0,0,2,8.39,9.07,9.07,0,0,0,2.84,3.4,7,7,0,0,0,4.31,1.48h63.29a2.42,2.42,0,0,0,1.25-.45,1.72,1.72,0,0,0,.46-1.25,2.35,2.35,0,0,0-.46-1.25A9.91,9.91,0,0,0,118.59,126.08Zm-8.4-2c.12.8.34,1.48.46,2.16H55.06a3.25,3.25,0,0,1-2.26-.8,8.55,8.55,0,0,1-2.61-4,14.48,14.48,0,0,1-.91-5.22h0a15.13,15.13,0,0,1,1.7-6.8A8.37,8.37,0,0,1,52.91,107a3.45,3.45,0,0,1,2.27-.8h55.58c-.23.91-.45,1.93-.68,3.06a44.75,44.75,0,0,0-.68,6.7v.34A42.58,42.58,0,0,0,110.19,124Z" fill="#e1001e"/><path d="M138.93,17.42a16.66,16.66,0,0,1,16.65,16.65V138.93a16.66,16.66,0,0,1-16.65,16.65H34.07a16.66,16.66,0,0,1-16.65-16.65V34.07A16.66,16.66,0,0,1,34.07,17.42H138.93m0-3.35H34.07a20,20,0,0,0-20,20V138.93a20,20,0,0,0,20,20H138.93a20,20,0,0,0,20-20V34.07a20,20,0,0,0-20-20Z" fill="#e1001e"/></svg>