<?xml version="1.0" encoding="utf-8"?>
<!-- Generator: Adobe Illustrator 23.0.1, SVG Export Plug-In . SVG Version: 6.00 Build 0)  -->
<svg version="1.1" id="Layer_1" xmlns="http://www.w3.org/2000/svg" xmlns:xlink="http://www.w3.org/1999/xlink" x="0px" y="0px"
	 viewBox="0 0 704.3 411.2" style="enable-background:new 0 0 704.3 411.2;" xml:space="preserve">
<style type="text/css">
	.st0{fill:#111111;}
	.st1{fill:url(#SVGID_1_);}
	.st2{opacity:5.000000e-02;fill:url(#SVGID_2_);enable-background:new    ;}
	.st3{opacity:0.1;fill:url(#SVGID_3_);enable-background:new    ;}
	.st4{opacity:0.8;}
	.st5{fill:#FFFFFF;fill-opacity:0;}
	.st6{opacity:2.000000e-02;fill:#F9F9F9;enable-background:new    ;}
	.st7{opacity:5.000000e-02;fill:#F3F3F3;enable-background:new    ;}
	.st8{opacity:7.000000e-02;fill:#ECECEC;enable-background:new    ;}
	.st9{opacity:0.1;fill:#E6E6E6;enable-background:new    ;}
	.st10{opacity:0.12;fill:#E0E0E0;enable-background:new    ;}
	.st11{opacity:0.15;fill:#DADADA;enable-background:new    ;}
	.st12{opacity:0.17;fill:#D3D3D3;enable-background:new    ;}
	.st13{opacity:0.2;fill:#CDCDCD;enable-background:new    ;}
	.st14{opacity:0.22;fill:#C7C7C7;enable-background:new    ;}
	.st15{opacity:0.24;fill:#C1C1C1;enable-background:new    ;}
	.st16{opacity:0.27;fill:#BBBBBB;enable-background:new    ;}
	.st17{opacity:0.29;fill:#B4B4B4;enable-background:new    ;}
	.st18{opacity:0.32;fill:#AEAEAE;enable-background:new    ;}
	.st19{opacity:0.34;fill:#A8A8A8;enable-background:new    ;}
	.st20{opacity:0.37;fill:#A2A2A2;enable-background:new    ;}
	.st21{opacity:0.39;fill:#9B9B9B;enable-background:new    ;}
	.st22{opacity:0.41;fill:#959595;enable-background:new    ;}
	.st23{opacity:0.44;fill:#8F8F8F;enable-background:new    ;}
	.st24{opacity:0.46;fill:#898989;enable-background:new    ;}
	.st25{opacity:0.49;fill:#838383;enable-background:new    ;}
	.st26{opacity:0.51;fill:#7C7C7C;enable-background:new    ;}
	.st27{opacity:0.54;fill:#767676;enable-background:new    ;}
	.st28{opacity:0.56;fill:#707070;enable-background:new    ;}
	.st29{opacity:0.59;fill:#6A6A6A;enable-background:new    ;}
	.st30{opacity:0.61;fill:#646464;enable-background:new    ;}
	.st31{opacity:0.63;fill:#5D5D5D;enable-background:new    ;}
	.st32{opacity:0.66;fill:#575757;enable-background:new    ;}
	.st33{opacity:0.68;fill:#515151;enable-background:new    ;}
	.st34{opacity:0.71;fill:#4B4B4B;enable-background:new    ;}
	.st35{opacity:0.73;fill:#444444;enable-background:new    ;}
	.st36{opacity:0.76;fill:#3E3E3E;enable-background:new    ;}
	.st37{opacity:0.78;fill:#383838;enable-background:new    ;}
	.st38{opacity:0.8;fill:#323232;enable-background:new    ;}
	.st39{opacity:0.83;fill:#2C2C2C;enable-background:new    ;}
	.st40{opacity:0.85;fill:#252525;enable-background:new    ;}
	.st41{opacity:0.88;fill:#1F1F1F;enable-background:new    ;}
	.st42{opacity:0.9;fill:#191919;enable-background:new    ;}
	.st43{opacity:0.93;fill:#131313;enable-background:new    ;}
	.st44{opacity:0.95;fill:#0C0C0C;enable-background:new    ;}
	.st45{opacity:0.98;fill:#060606;enable-background:new    ;}
	.st46{fill:#212226;}
	.st47{fill:url(#SVGID_4_);}
	.st48{opacity:0.3;fill:url(#SVGID_5_);enable-background:new    ;}
	.st49{opacity:0.1;fill:#CDCCCB;enable-background:new    ;}
	.st50{opacity:5.000000e-02;fill:#CDCCCB;enable-background:new    ;}
	.st51{filter:url(#Adobe_OpacityMaskFilter_1_);}
	.st52{mask:url(#mask_2_);}
	.st53{fill:url(#SVGID_6_);}
	.st54{opacity:0.5;fill:url(#SVGID_7_);enable-background:new    ;}
	.st55{fill:url(#SVGID_8_);}
	.st56{fill:url(#SVGID_9_);}
	.st57{fill:url(#SVGID_10_);}
	.st58{fill:url(#SVGID_11_);}
	.st59{fill:#838383;}
	.st60{fill:url(#SVGID_12_);}
	.st61{fill:url(#SVGID_13_);}
	.st62{fill:url(#SVGID_14_);}
	.st63{fill:url(#SVGID_15_);}
	.st64{fill:url(#SVGID_16_);}
	.st65{fill:url(#SVGID_17_);}
	.st66{fill:url(#SVGID_18_);}
</style>
<title>Computer</title>
<g>
	<g>
		<g>
			<path class="st0" d="M619.5,397.6H81.4c-9.7,0-17.5-8-17.5-17.7V50.8c0-9.7,7.8-17.6,17.5-17.7c0,0,0,0,0,0h538.1
				c9.7,0.1,17.5,8,17.5,17.7v329.1C637,389.6,629.2,397.5,619.5,397.6z"/>
			<linearGradient id="SVGID_1_" gradientUnits="userSpaceOnUse" x1="61.9398" y1="215.37" x2="639.0003" y2="215.37">
				<stop  offset="0" style="stop-color:#3E3D3F"/>
				<stop  offset="1.000000e-02" style="stop-color:#B8BABC"/>
				<stop  offset="2.000000e-02" style="stop-color:#E2E3E4"/>
				<stop  offset="4.000000e-02" style="stop-color:#B8BABC"/>
				<stop  offset="1" style="stop-color:#B8BABC"/>
			</linearGradient>
			<path class="st1" d="M619.5,33.1c9.7,0.1,17.5,8,17.5,17.7v329.1c0,9.7-7.8,17.6-17.5,17.7H81.4c-9.7,0-17.5-8-17.5-17.7V50.8
				c0-9.7,7.8-17.6,17.5-17.7c0,0,0,0,0,0H619.5 M619.5,31.1L619.5,31.1H81.4c-5.2,0-10.1,2.1-13.8,5.8c-3.7,3.7-5.7,8.6-5.7,13.9
				v329.1c0,10.8,8.7,19.6,19.5,19.7h538.1c10.8-0.1,19.5-8.9,19.5-19.7V50.8C639.1,40,630.3,31.2,619.5,31.1L619.5,31.1L619.5,31.1
				z"/>
		</g>
		
			<linearGradient id="SVGID_2_" gradientUnits="userSpaceOnUse" x1="63.85" y1="28.005" x2="636.93" y2="28.005" gradientTransform="matrix(1 0 0 -1 0 411.89)">
			<stop  offset="0" style="stop-color:#231F20"/>
			<stop  offset="0.12" style="stop-color:#3A3839"/>
			<stop  offset="0.24" style="stop-color:#4B4A4C"/>
			<stop  offset="0.37" style="stop-color:#555557"/>
			<stop  offset="0.51" style="stop-color:#58595B"/>
			<stop  offset="0.68" style="stop-color:#565658"/>
			<stop  offset="0.79" style="stop-color:#4E4E4F"/>
			<stop  offset="0.88" style="stop-color:#403F40"/>
			<stop  offset="0.96" style="stop-color:#2D2A2B"/>
			<stop  offset="1" style="stop-color:#231F20"/>
		</linearGradient>
		<path class="st2" d="M63.8,376v3.8c0,4.5,1.7,8.7,4.7,12h563.7c3-3.3,4.7-7.5,4.7-12V376H63.8z"/>
		
			<linearGradient id="SVGID_3_" gradientUnits="userSpaceOnUse" x1="468.8094" y1="404.3175" x2="566.4494" y2="-9.6325" gradientTransform="matrix(1 0 0 -1 0 411.89)">
			<stop  offset="0" style="stop-color:#FFFFFF"/>
			<stop  offset="1" style="stop-color:#A6A8AB"/>
		</linearGradient>
		<path class="st3" d="M619.5,33.1H316.3c42.5,90.7,131.4,246,187.8,364.5h115.4c9.7-0.1,17.5-8,17.5-17.7V50.8
			C637,41.1,629.2,33.2,619.5,33.1z"/>
		<g class="st4">
			<path class="st5" d="M689.8,408.9c0,0-11.2-1.4-86.2-2H126.3c0,0-62.6,0.6-79,2h0.1c-0.3,0-0.5,0-0.8,0.1l0,0h0h-0.1v0.1
				c0,0.1,0.5,0.1,0.5,0.1s11.2,1.4,86.2,2h477.3c0,0,62.6-0.6,79-2h-0.1c0.3,0,0.5,0,0.8-0.1h0.1V409
				C690.4,408.9,689.9,408.9,689.8,408.9z"/>
			<path class="st6" d="M688.4,408.8c0,0-11.1-1.4-85.8-2H127.8c0,0-62.3,0.6-78.6,2h0.1c-0.3,0-0.5,0-0.8,0.1h-0.1v0.2
				c0,0.1,0.5,0.1,0.5,0.1s11.1,1.4,85.8,2h474.9c0,0,62.3-0.6,78.6-2h-0.1c0.3,0,0.5,0,0.8-0.1h0.1l0,0l0,0v-0.1
				C689,408.8,688.5,408.8,688.4,408.8z"/>
			<path class="st7" d="M687,408.6c0,0-11.1-1.4-85.3-2H129.1c0,0-61.9,0.6-78.2,2H51c-0.2,0-0.5,0-0.7,0.1l0,0h0h-0.1v0.1
				c0,0.1,0.4,0.1,0.5,0.1s11.1,1.4,85.3,2h472.6c0,0,61.9-0.6,78.2-2h-0.1c0.2,0,0.5,0,0.7-0.1h0.1v-0.1
				C687.5,408.7,687.1,408.6,687,408.6z"/>
			<path class="st8" d="M685.6,408.5c0,0-11-1.4-84.9-2H130.5c0,0-61.6,0.6-77.8,2h0.1c-0.2,0-0.5,0-0.7,0.1H52v0.1
				c0,0.1,0.4,0.1,0.5,0.1s11,1.4,84.9,2h470.1c0,0,61.6-0.6,77.8-2h-0.1c0.3,0,0.5,0,0.8-0.1h0.1l0,0l0,0v-0.1
				C686.1,408.6,685.7,408.5,685.6,408.5z"/>
			<path class="st9" d="M684.2,408.4c0,0-11-1.4-84.5-2H131.9c0,0-61.3,0.6-77.4,2h0.1c-0.2,0-0.5,0-0.7,0.1l0,0l0,0h-0.1v0.1
				c0,0.1,0.4,0.1,0.5,0.1s11,1.4,84.5,2h467.7c0,0,61.3-0.6,77.4-2h-0.1c0.3,0,0.5,0,0.8-0.1h0.1v-0.1
				C684.7,408.5,684.3,408.4,684.2,408.4z"/>
			<path class="st10" d="M682.8,408.3c0,0-10.9-1.4-84-2H133.3c0,0-61,0.6-77,2h0.1c-0.2,0-0.5,0-0.7,0.1h-0.1v0.1
				c0,0.1,0.4,0.1,0.5,0.1s10.9,1.4,84,2h465.4c0,0,61-0.6,77-2h-0.1c0.2,0,0.5,0,0.7-0.1h0.1l0,0l0,0v-0.1
				C683.3,408.3,682.8,408.3,682.8,408.3z"/>
			<path class="st11" d="M681.3,408.2c0,0-10.9-1.4-83.6-2h-463c0,0-60.7,0.6-76.6,2h0.1c-0.2,0-0.5,0-0.7,0.1l0,0h0h-0.1v0.1
				c0,0.1,0.4,0.1,0.5,0.1s10.9,1.4,83.6,2h463c0,0,60.7-0.6,76.6-2H681c0.2,0,0.5,0,0.7-0.1h0.1v-0.1
				C681.9,408.2,681.4,408.2,681.3,408.2z"/>
			<path class="st12" d="M679.9,408.1c0,0-10.8-1.4-83.2-2H136.1c0,0-60.4,0.6-76.2,2H60c-0.2,0-0.5,0-0.7,0.1h-0.1v0.1
				c0,0.1,0.4,0.1,0.5,0.1s10.8,1.4,83.2,2h460.6c0,0,60.4-0.6,76.2-2h-0.1c0.2,0,0.5,0,0.7-0.1h0.1l0,0l0,0v-0.1
				C680.4,408.1,680,408.1,679.9,408.1z"/>
			<path class="st13" d="M678.5,408c0,0-10.8-1.4-82.8-2H137.5c0,0-60.1,0.6-75.8,2h0.1c-0.3,0-0.5,0-0.8,0l0,0l0,0l0,0l0,0l0,0v0.1
				c0,0.1,0.4,0.1,0.5,0.1s10.7,1.4,82.7,2h458.2c0,0,60.1-0.6,75.8-2h-0.1c0.2,0,0.5,0,0.7-0.1h0.1V408
				C679,408,678.6,408,678.5,408z"/>
			<path class="st14" d="M677.1,407.9c0,0-10.7-1.4-82.3-2H138.9c0,0-59.8,0.6-75.4,2h0.1c-0.2,0-0.5,0-0.7,0.1h-0.1v0.1
				c0,0.1,0.4,0.1,0.5,0.1s10.7,1.4,82.3,2h455.9c0,0,59.8-0.6,75.4-2h-0.1c0.2,0,0.5,0,0.7-0.1l0,0l0,0l0,0l0,0l0,0V408
				C677.6,407.9,677.2,407.9,677.1,407.9z"/>
			<path class="st15" d="M675.7,407.7c0,0-10.6-1.4-81.9-2H140.3c0,0-59.4,0.6-75.1,2h0.1c-0.2,0-0.5,0-0.7,0.1l0,0h-0.1l0,0l0,0
				l0,0v0.2c0,0.1,0.4,0.1,0.5,0.1s10.6,1.4,81.9,2h453.5c0,0,59.5-0.6,75-2h-0.1c0.2,0,0.5,0,0.7-0.1h0.1v-0.1
				C676.2,407.8,675.8,407.7,675.7,407.7z"/>
			<path class="st16" d="M674.3,407.6c0,0-10.6-1.4-81.5-2H141.7c0,0-59.1,0.6-74.7,2h0.1c-0.2,0-0.5,0-0.7,0.1h-0.1v0.1
				c0,0.1,0.4,0.1,0.5,0.1s10.6,1.4,81.4,2h451.1c0,0,59.1-0.6,74.7-2h-0.1c0.2,0,0.5,0,0.7-0.1l0,0h0l0,0l0,0l0,0v-0.1
				C674.8,407.6,674.3,407.6,674.3,407.6z"/>
			<path class="st17" d="M672.8,407.5c0,0-10.5-1.4-81-2H143.1c0,0-58.8,0.6-74.3,2h0.1c-0.2,0-0.5,0-0.7,0.1l0,0l0,0l0,0l0,0l0,0
				v0.1c0,0.1,0.4,0.1,0.5,0.1s10.5,1.4,81,2h448.6c0,0,58.8-0.6,74.2-2h-0.1c0.2,0,0.5,0,0.7-0.1h0.1v-0.1
				C673.3,407.5,672.9,407.5,672.8,407.5z"/>
			<path class="st18" d="M671.4,407.4c0,0-10.5-1.4-80.6-2H144.5c0,0-58.5,0.6-73.9,2h0.1c-0.2,0-0.5,0-0.7,0.1h-0.1v0.1
				c0,0.1,0.4,0.1,0.5,0.1s10.5,1.4,80.6,2h446.4c0,0,58.5-0.6,73.9-2h-0.1c0.2,0,0.5,0,0.7-0.1l0,0h0l0,0l0,0l0,0v-0.1
				C671.9,407.4,671.5,407.4,671.4,407.4z"/>
			<path class="st19" d="M670,407.3c0,0-10.4-1.4-80.2-2h-444c0,0-58.2,0.6-73.5,2h0.1c-0.2,0-0.5,0-0.7,0.1l0,0l0,0l0,0l0,0l0,0
				v0.1c0,0.1,0.4,0.1,0.5,0.1s10.4,1.4,80.2,2h444c0,0,58.2-0.6,73.5-2h-0.1c0.2,0,0.5,0,0.7-0.1h0.1l0,0l0,0v-0.1
				C670.5,407.3,670.1,407.3,670,407.3z"/>
			<path class="st20" d="M668.6,407.2c0,0-10.4-1.4-79.7-2H147.3c0,0-57.9,0.6-73.1,2h0.1c-0.2,0-0.5,0-0.7,0.1h-0.1v0.1
				c0,0.1,0.4,0.1,0.5,0.1s10.4,1.4,79.7,2h441.6c0,0,57.9-0.6,73.1-2h-0.1c0.2,0,0.5,0,0.7-0.1l0,0l0,0h0.1v-0.1
				C669.1,407.2,668.7,407.2,668.6,407.2z"/>
			<path class="st21" d="M667.2,407c0,0-10.3-1.4-79.3-2H148.7c0,0-57.6,0.6-72.7,2h0.1c-0.2,0-0.5,0-0.7,0.1l0,0h-0.1l0,0l0,0l0,0
				v0.1c0,0.1,0.4,0.1,0.5,0.1s10.3,1.4,79.3,2h439.2c0,0,57.6-0.6,72.7-2h-0.1c0.2,0,0.5,0,0.7-0.1h0.1v-0.1
				C667.7,407.1,667.2,407,667.2,407z"/>
			<path class="st22" d="M665.8,406.9c0,0-10.2-1.4-78.9-2H150.1c0,0-57.3,0.6-72.3,2h0.1c-0.2,0-0.5,0-0.7,0.1H77v0.1
				c0,0.1,0.4,0.1,0.5,0.1s10.2,1.4,78.9,2h436.8c0,0,57.3-0.6,72.3-2h-0.1c0.2,0,0.5,0,0.7-0.1l0,0l0,0h0.1V407
				C666.2,407,665.8,406.9,665.8,406.9z"/>
			<path class="st23" d="M664.3,406.8c0,0-10.2-1.4-78.4-2H151.4c0,0-56.9,0.6-71.9,2h0.1c-0.2,0-0.5,0-0.7,0.1l0,0h-0.1l0,0v0.1
				c0,0.1,0.4,0.1,0.5,0.1s10.2,1.4,78.4,2h434.4c0,0,57-0.6,71.9-2H664c0.2,0,0.5,0,0.7-0.1h0.1v-0.1
				C664.8,406.9,664.4,406.8,664.3,406.8z"/>
			<path class="st24" d="M662.9,406.7c0,0-10.1-1.4-78-2H152.9c0,0-56.6,0.6-71.5,2h0.1c-0.2,0-0.5,0-0.7,0.1h-0.1v0.2
				c0,0.1,0.4,0.1,0.5,0.1s10.1,1.4,78,2h432.1c0,0,56.6-0.6,71.5-2h-0.1c0.2,0,0.5,0,0.7-0.1l0,0l0,0h0.1v-0.1
				C663.4,406.7,663,406.7,662.9,406.7z"/>
			<path class="st25" d="M661.5,406.6c0,0-10.1-1.4-77.6-2H154.2c0,0-56.3,0.6-71.1,2h0.1c-0.2,0-0.5,0-0.7,0.1h-0.1l0,0l0,0v0.1
				c0,0.1,0.4,0.1,0.5,0.1s10.1,1.4,77.6,2h429.6c0,0,56.3-0.6,71.1-2h-0.1c0.2,0,0.5,0,0.7-0.1h0.1l0,0l0,0v-0.1
				C662,406.6,661.6,406.6,661.5,406.6z"/>
			<path class="st26" d="M660.1,406.5c0,0-10-1.4-77.2-2H155.6c0,0-56,0.6-70.7,2H85c-0.2,0-0.5,0-0.7,0.1h-0.1v0.1
				c0,0.1,0.4,0.1,0.5,0.1s10,1.4,77.1,2h427.3c0,0,56-0.6,70.7-2h-0.1c0.2,0,0.5,0,0.7-0.1l0,0l0,0h0.1v-0.1
				C660.6,406.5,660.2,406.5,660.1,406.5z"/>
			<path class="st27" d="M658.7,406.4c0,0-10-1.4-76.7-2H157c0,0-55.7,0.6-70.3,2h0.1c-0.2,0-0.5,0-0.7,0.1H86l0,0l0,0v0.1
				c0,0.1,0.4,0.1,0.5,0.1s10,1.4,76.7,2h424.9c0,0,55.7-0.6,70.3-2h-0.1c0.2,0,0.5,0,0.7-0.1h0.1v-0.1
				C659.1,406.4,658.8,406.4,658.7,406.4z"/>
			<path class="st28" d="M657.2,406.2c0,0-9.9-1.4-76.3-2H158.4c0,0-55.4,0.6-69.9,2h0.1c-0.2,0-0.5,0-0.7,0.1h-0.1v0.1
				c0,0.1,0.4,0.1,0.5,0.1s9.9,1.4,76.3,2h422.5c0,0,55.4-0.6,69.9-2h0c0.2,0,0.4,0,0.7-0.1l0,0l0,0h0.1v-0.1
				C657.7,406.3,657.3,406.2,657.2,406.2z"/>
			<path class="st29" d="M655.8,406.1c0,0-9.9-1.4-75.9-2H159.8c0,0-55.1,0.6-69.5,2h0.1c-0.2,0-0.4,0-0.7,0.1h-0.1l0,0l0,0v0.2
				c0,0.1,0.4,0.1,0.5,0.1s9.8,1.4,75.9,2h420.1c0,0,55.1-0.6,69.5-2h-0.1c0.2,0,0.5,0,0.7-0.1h0.1v-0.1
				C656.3,406.2,655.9,406.1,655.8,406.1z"/>
			<path class="st30" d="M654.4,406c0,0-9.8-1.4-75.4-2H161.2c0,0-54.8,0.6-69.1,2h0.1c-0.2,0-0.4,0-0.7,0.1h-0.1v0.1
				c0,0.1,0.4,0.1,0.5,0.1s9.8,1.4,75.4,2h417.8c0,0,54.8-0.6,69.1-2h-0.1c0.2,0,0.5,0,0.7-0.1l0,0l0,0h0.1v-0.1
				C654.9,406,654.5,406,654.4,406z"/>
			<path class="st31" d="M653,405.9c0,0-9.7-1.4-75-2H162.6c0,0-54.5,0.6-68.7,2H94c-0.2,0-0.4,0-0.7,0.1h-0.1l0,0l0,0v0.2
				c0,0.1,0.4,0.1,0.5,0.1s9.7,1.4,75,2H584c0,0,54.5-0.6,68.7-2h-0.1c0.2,0,0.4,0,0.7-0.1l0,0l0,0l0,0V406
				C653.5,405.9,653.1,405.9,653,405.9z"/>
			<path class="st32" d="M651.6,405.8c0,0-9.7-1.4-74.6-2H164c0,0-54.1,0.6-68.3,2h0.1c-0.2,0-0.4,0-0.7,0.1H95v0.1
				c0,0.1,0.4,0.1,0.4,0.1s9.7,1.4,74.6,2h413c0,0,54.1-0.6,68.3-2h-0.1c0.2,0,0.4,0,0.7-0.1l0,0l0,0h0.1v-0.1
				C652,405.8,651.7,405.8,651.6,405.8z"/>
			<path class="st33" d="M650.2,405.7c0,0-9.6-1.4-74.1-2H165.4c0,0-53.8,0.6-67.9,2h0.1c-0.2,0-0.4,0-0.7,0.1h-0.1l0,0l0,0v0.2
				c0,0.1,0.4,0.1,0.4,0.1s9.6,1.4,74.1,2H582c0,0,53.8-0.6,68-2h-0.1c0.2,0,0.4,0,0.7-0.1h0.1v-0.1
				C650.6,405.7,650.2,405.7,650.2,405.7z"/>
			<path class="st34" d="M648.8,405.5c0,0-9.6-1.4-73.7-2H166.8c0,0-53.5,0.6-67.6,2h0.1c-0.2,0-0.4,0-0.7,0.1h-0.1v0.1
				c0,0.1,0.4,0.1,0.4,0.1s9.6,1.4,73.7,2H581c0,0,53.5-0.6,67.6-2h-0.1c0.2,0,0.4,0,0.7-0.1l0,0l0,0h0.1v-0.1
				C649.2,405.6,648.8,405.5,648.8,405.5z"/>
			<path class="st35" d="M647.3,405.4c0,0-9.5-1.4-73.3-2H168.2c0,0-53.2,0.6-67.2,2h0.1c-0.2,0-0.4,0-0.6,0.1h-0.1l0,0l0,0v0.2
				c0,0.1,0.4,0.1,0.4,0.1s9.5,1.4,73.3,2H580c0,0,53.2-0.6,67.2-2H647c0.2,0,0.4,0,0.7-0.1h0.1v-0.1
				C647.8,405.5,647.4,405.4,647.3,405.4z"/>
			<path class="st36" d="M645.9,405.3c0,0-9.5-1.4-72.8-2H169.6c0,0-52.9,0.6-66.8,2h0.1c-0.2,0-0.4,0-0.6,0.1l0,0l0,0l0,0v0.1
				c0,0.1,0.4,0.1,0.4,0.1s9.5,1.4,72.8,2h403.4c0,0,52.9-0.6,66.8-2h-0.1c0.2,0,0.4,0,0.6-0.1l0,0l0,0h0.1v-0.1
				C646.4,405.4,646,405.3,645.9,405.3z"/>
			<path class="st37" d="M644.5,405.2c0,0-9.4-1.4-72.4-2H171c0,0-52.6,0.6-66.4,2h0.1c-0.2,0-0.4,0-0.6,0.1H104l0,0l0,0v0.2
				c0,0.1,0.4,0.1,0.4,0.1s9.4,1.4,72.4,2h401c0,0,52.6-0.6,66.4-2h-0.1c0.2,0,0.4,0,0.6-0.1l0,0l0,0l0,0v-0.1
				C644.9,405.2,644.6,405.2,644.5,405.2z"/>
			<path class="st38" d="M643.1,405.1c0,0-9.4-1.4-72-2H172.4c0,0-52.3,0.6-66,2h0.1c-0.2,0-0.4,0-0.6,0.1l0,0l0,0h-0.1v0.1
				c0,0.1,0.4,0.1,0.4,0.1s9.4,1.4,72,2h398.7c0,0,52.3-0.6,66-2h-0.1c0.2,0,0.4,0,0.6-0.1l0,0l0,0h0.1v-0.1
				C643.5,405.1,643.2,405.1,643.1,405.1z"/>
			<path class="st39" d="M641.7,405c0,0-9.3-1.4-71.6-2H173.8c0,0-51.9,0.6-65.6,2h0.1c-0.2,0-0.4,0-0.6,0.1h-0.1l0,0l0,0v0.2
				c0,0.1,0.4,0.1,0.4,0.1s9.3,1.4,71.6,2h396.3c0,0,52-0.6,65.6-2h-0.1c0.2,0,0.4,0,0.6-0.1h0.1v-0.1
				C642.1,405,641.7,405,641.7,405z"/>
			<path class="st40" d="M640.2,404.9c0,0-9.2-1.4-71.1-2h-394c0,0-51.7,0.6-65.2,2h0.1c-0.2,0-0.4,0-0.6,0.1l0,0l0,0h-0.1v0.1
				c0,0.1,0.4,0.1,0.4,0.1s9.2,1.4,71.1,2h394c0,0,51.6-0.6,65.2-2H640c0.2,0,0.4,0,0.6-0.1l0,0l0,0h0.1V405
				C640.7,404.9,640.3,404.9,640.2,404.9z"/>
			<path class="st41" d="M638.8,404.8c0,0-9.2-1.4-70.7-2H176.6c0,0-51.3,0.6-64.8,2h0.1c-0.2,0-0.4,0-0.6,0.1h-0.1l0,0l0,0v0.2
				c0,0.1,0.4,0.1,0.4,0.1s9.2,1.4,70.7,2h391.5c0,0,51.3-0.6,64.8-2h-0.1c0.2,0,0.4,0,0.6-0.1h0.1v-0.1
				C639.3,404.8,638.9,404.8,638.8,404.8z"/>
			<path class="st42" d="M637.4,404.6c0,0-9.1-1.4-70.3-2H178c0,0-51,0.6-64.4,2h0.1c-0.2,0-0.4,0-0.6,0.1l0,0l0,0H113v0.1
				c0,0.1,0.4,0.1,0.4,0.1s9.1,1.4,70.3,2h389.1c0,0,51-0.6,64.4-2h-0.1c0.2,0,0.4,0,0.6-0.1l0,0l0,0h0.1v-0.1
				C637.8,404.7,637.5,404.6,637.4,404.6z"/>
			<path class="st43" d="M636,404.5c0,0-9.1-1.4-69.8-2H179.3c0,0-50.7,0.6-64,2h0.1c-0.2,0-0.4,0-0.6,0.1h-0.1l0,0l0,0v0.2
				c0,0.1,0.4,0.1,0.4,0.1s9.1,1.4,69.8,2h386.8c0,0,50.7-0.6,64-2h-0.1c0.2,0,0.4,0,0.6-0.1l0,0l0,0l0,0v-0.1
				C636.4,404.5,636.1,404.5,636,404.5z"/>
			<path class="st44" d="M634.6,404.4c0,0-9-1.4-69.4-2H180.7c0,0-50.4,0.6-63.6,2h0.1c-0.2,0-0.4,0-0.6,0.1l0,0l0,0h-0.1v0.1
				c0,0.1,0.3,0.1,0.4,0.1s9,1.4,69.4,2h384.4c0,0,50.4-0.6,63.6-2h-0.1c0.2,0,0.4,0,0.6-0.1l0,0l0,0l0,0v-0.1
				C635,404.4,634.6,404.4,634.6,404.4z"/>
			<path class="st45" d="M633.2,404.3c0,0-9-1.4-69-2h-382c0,0-50.1,0.6-63.2,2h0.1c-0.2,0-0.4,0-0.6,0.1h-0.1l0,0l0,0v0.2
				c0,0.1,0.3,0.1,0.4,0.1s9,1.4,69,2h382c0,0,50.1-0.6,63.2-2h-0.1c0.2,0,0.4,0,0.6-0.1l0,0l0,0l0,0v-0.1
				C633.6,404.3,633.2,404.3,633.2,404.3z"/>
			<path d="M631.7,404.2c0,0-8.9-1.4-68.5-2H183.5c0,0-49.8,0.6-62.8,2h0.1c-0.2,0-0.4,0-0.6,0.1l0,0l0,0h-0.1v0.1
				c0,0.1,0.4,0.1,0.4,0.1s8.9,1.4,68.6,2h379.6c0,0,49.8-0.6,62.8-2h-0.1c0.2,0,0.4,0,0.6-0.1l0,0l0,0l0,0v-0.1
				C632.2,404.2,631.8,404.2,631.7,404.2z"/>
		</g>
		<path class="st46" d="M63.8,376v3.8c0,4.5,1.7,8.7,4.7,12h563.7c3-3.3,4.7-7.5,4.7-12V376H63.8z"/>
		
			<radialGradient id="SVGID_4_" cx="363.1371" cy="362.4583" r="2.91" gradientTransform="matrix(0.98 0 0 -0.99 -4.41 406.1811)" gradientUnits="userSpaceOnUse">
			<stop  offset="0" style="stop-color:#354F77"/>
			<stop  offset="0.29" style="stop-color:#354D73"/>
			<stop  offset="0.56" style="stop-color:#354568"/>
			<stop  offset="0.83" style="stop-color:#353954"/>
			<stop  offset="1" style="stop-color:#352F44"/>
		</radialGradient>
		<path class="st47" d="M353.2,47.2c0,1.6-1.3,2.8-2.9,2.8c-1.6,0-2.8-1.3-2.8-2.9c0-1.6,1.3-2.8,2.8-2.8
			C352,44.3,353.2,45.6,353.2,47.2z"/>
		
			<linearGradient id="SVGID_5_" gradientUnits="userSpaceOnUse" x1="349.6316" y1="364.5891" x2="353.1115" y2="363.9891" gradientTransform="matrix(1 0 0 -1 0 411.89)">
			<stop  offset="0" style="stop-color:#726A8A"/>
			<stop  offset="4.000000e-02" style="stop-color:#6E6684"/>
			<stop  offset="0.34" style="stop-color:#4E4759"/>
			<stop  offset="0.61" style="stop-color:#36313A"/>
			<stop  offset="0.84" style="stop-color:#282427"/>
			<stop  offset="1" style="stop-color:#231F20"/>
		</linearGradient>
		<path class="st48" d="M352.8,47.6c0,0.7-0.6,1.3-1.3,1.3c-0.7,0-1.3-0.6-1.3-1.3c0-0.7,0.6-1.3,1.3-1.3
			C352.2,46.3,352.8,46.9,352.8,47.6C352.8,47.6,352.8,47.6,352.8,47.6z"/>
		<path class="st49" d="M349.2,48.3c0.2,0.4,0.2,0.8,0,0.9s-0.6-0.1-0.8-0.5s-0.2-0.8,0-0.9S349,48,349.2,48.3z"/>
		<path class="st49" d="M352.6,45.7c0.3,0.4,0.4,0.7,0.3,0.8s-0.4-0.2-0.6-0.5s-0.4-0.7-0.3-0.8S352.4,45.3,352.6,45.7z"/>
		<path class="st50" d="M351.2,45c0.2,0.4-0.3,1.1-1.1,1.5s-1.6,0.3-1.9-0.1s0.3-1.1,1.1-1.5S351,44.5,351.2,45z"/>
		<defs>
			<filter id="Adobe_OpacityMaskFilter" filterUnits="userSpaceOnUse" x="348.9" y="45.7" width="3.1" height="3.1">
				<feColorMatrix  type="matrix" values="1 0 0 0 0  0 1 0 0 0  0 0 1 0 0  0 0 0 1 0"/>
			</filter>
		</defs>
		<mask maskUnits="userSpaceOnUse" x="348.9" y="45.7" width="3.1" height="3.1" id="mask-2_1_">
			<defs>
				<filter id="Adobe_OpacityMaskFilter_1_" filterUnits="userSpaceOnUse" x="348.9" y="45.7" width="3.1" height="3.1">
					<feColorMatrix  type="matrix" values="1 0 0 0 0  0 1 0 0 0  0 0 1 0 0  0 0 0 1 0"/>
				</filter>
			</defs>
			
				<mask maskUnits="userSpaceOnUse" x="348.9" y="45.7" width="3.1" height="3.1" id="mask_2_" style="filter:url(#Adobe_OpacityMaskFilter);">
				<g class="st51">
				</g>
			</mask>
			<g class="st52">
				
					<radialGradient id="SVGID_6_" cx="363.1472" cy="362.4483" r="1.57" gradientTransform="matrix(0.98 0 0 -0.99 -4.41 406.1811)" gradientUnits="userSpaceOnUse">
					<stop  offset="0" style="stop-color:#FFFFFF"/>
					<stop  offset="0.53" style="stop-color:#FFFFFF"/>
					<stop  offset="0.67" style="stop-color:#FDFDFD"/>
					<stop  offset="0.72" style="stop-color:#F6F6F6"/>
					<stop  offset="0.75" style="stop-color:#EBEBEB"/>
					<stop  offset="0.78" style="stop-color:#DADADA"/>
					<stop  offset="0.8" style="stop-color:#CCCCCC"/>
					<stop  offset="0.82" style="stop-color:#C2C2C2"/>
					<stop  offset="0.85" style="stop-color:#A8A8A8"/>
					<stop  offset="0.9" style="stop-color:#7D7D7D"/>
					<stop  offset="0.95" style="stop-color:#424242"/>
					<stop  offset="1" style="stop-color:#000000"/>
				</radialGradient>
				<path class="st53" d="M351.9,47.2c0,0.9-0.7,1.5-1.5,1.5c-0.9,0-1.5-0.7-1.5-1.5c0-0.8,0.7-1.5,1.5-1.5
					C351.3,45.7,351.9,46.4,351.9,47.2z"/>
			</g>
		</mask>
		<g>
			
				<radialGradient id="SVGID_7_" cx="363.1472" cy="362.4483" r="1.57" gradientTransform="matrix(0.98 0 0 -0.99 -4.41 406.1811)" gradientUnits="userSpaceOnUse">
				<stop  offset="0" style="stop-color:#354F77"/>
				<stop  offset="0.12" style="stop-color:#354769"/>
				<stop  offset="0.37" style="stop-color:#353851"/>
				<stop  offset="0.53" style="stop-color:#353248"/>
				<stop  offset="0.76" style="stop-color:#353248"/>
				<stop  offset="0.8" style="stop-color:#353248"/>
				<stop  offset="1" style="stop-color:#352F44"/>
			</radialGradient>
			<path class="st54" d="M351.9,47.2c0,0.9-0.7,1.5-1.5,1.5c-0.9,0-1.5-0.7-1.5-1.5c0-0.8,0.7-1.5,1.5-1.5
				C351.3,45.7,351.9,46.4,351.9,47.2z"/>
		</g>
		
			<linearGradient id="SVGID_8_" gradientUnits="userSpaceOnUse" x1="352.15" y1="5.59" x2="352.15" y2="16.88" gradientTransform="matrix(1 0 0 -1 0 411.89)">
			<stop  offset="0" style="stop-color:#3B3A3C"/>
			<stop  offset="0.2" style="stop-color:#3E3D3F"/>
			<stop  offset="0.36" style="stop-color:#474749"/>
			<stop  offset="0.51" style="stop-color:#57585A"/>
			<stop  offset="0.52" style="stop-color:#58595B"/>
			<stop  offset="0.73" style="stop-color:#6D6E70"/>
			<stop  offset="1" style="stop-color:#808184"/>
		</linearGradient>
		<path class="st55" d="M0,395.4c0,0,12.3,7.3,94.5,10.5h523.3c0,0,68.6-3.4,86.5-10.5H0z"/>
		
			<linearGradient id="SVGID_9_" gradientUnits="userSpaceOnUse" x1="284.71" y1="17.841" x2="419.57" y2="17.841" gradientTransform="matrix(1 0 0 -1 0 411.89)">
			<stop  offset="0" style="stop-color:#58595B"/>
			<stop  offset="2.000000e-02" style="stop-color:#6D6E70"/>
			<stop  offset="7.000000e-02" style="stop-color:#BBBDBF"/>
			<stop  offset="8.000000e-02" style="stop-color:#D2D3D4"/>
			<stop  offset="0.1" style="stop-color:#E6E6E6"/>
			<stop  offset="0.11" style="stop-color:#E6E6E6"/>
			<stop  offset="0.5" style="stop-color:#E6E7E8"/>
			<stop  offset="0.91" style="stop-color:#E6E6E6"/>
			<stop  offset="0.92" style="stop-color:#E6E6E6"/>
			<stop  offset="0.94" style="stop-color:#CDCECF"/>
			<stop  offset="0.95" style="stop-color:#BBBDBF"/>
			<stop  offset="0.99" style="stop-color:#6D6E70"/>
			<stop  offset="1" style="stop-color:#58595B"/>
		</linearGradient>
		<path class="st56" d="M344.7,391.4h-60v3.7c1.1,0.7,2.4,1.2,3.7,1.4c1.5,0.2,3.1,0.3,4.6,0.2h118.1c1.6,0,3.1-0.1,4.6-0.4
			c1.3-0.2,2.6-0.6,3.8-1.1l-0.1-3.8H344.7z"/>
		
			<linearGradient id="SVGID_10_" gradientUnits="userSpaceOnUse" x1="0" y1="18.41" x2="285.02" y2="18.41" gradientTransform="matrix(1 0 0 -1 0 411.89)">
			<stop  offset="0" style="stop-color:#404041"/>
			<stop  offset="3.000000e-02" style="stop-color:#BBBDBF"/>
			<stop  offset="5.000000e-02" style="stop-color:#E6E7E8"/>
			<stop  offset="7.000000e-02" style="stop-color:#D0D2D3"/>
			<stop  offset="0.13" style="stop-color:#BBBDBF"/>
			<stop  offset="1" style="stop-color:#BBBDBF"/>
		</linearGradient>
		<rect y="391.8" class="st57" width="285" height="3.4"/>
		
			<linearGradient id="SVGID_11_" gradientUnits="userSpaceOnUse" x1="-676.6" y1="18.41" x2="-391.51" y2="18.41" gradientTransform="matrix(-1 0 0 -1 27.7 411.89)">
			<stop  offset="0" style="stop-color:#404041"/>
			<stop  offset="3.000000e-02" style="stop-color:#BBBDBF"/>
			<stop  offset="5.000000e-02" style="stop-color:#E6E7E8"/>
			<stop  offset="7.000000e-02" style="stop-color:#D0D2D3"/>
			<stop  offset="0.13" style="stop-color:#BBBDBF"/>
			<stop  offset="1" style="stop-color:#BBBDBF"/>
		</linearGradient>
		<rect x="419.2" y="391.8" class="st58" width="285.1" height="3.4"/>
		<path class="st59" d="M419.5,395.2h-0.2c-1.1,0.6-2.3,0.9-3.5,1.1c-1.5,0.2-3.1,0.4-4.6,0.4H292.6c-1.4,0-2.7,0-4.1-0.2
			c-1.2-0.2-2.4-0.6-3.5-1.3H0v0.3h285c1.1,0.6,2.2,1.1,3.5,1.2c1.1,0.2,2.3,0.2,3.5,0.2h119.2c1.6,0,3.1-0.1,4.7-0.4
			c1.2-0.2,2.3-0.5,3.4-1.1h285.1v-0.3H419.5z"/>
		
			<linearGradient id="SVGID_12_" gradientUnits="userSpaceOnUse" x1="284.72" y1="20.3" x2="419.51" y2="20.3" gradientTransform="matrix(1 0 0 -1 0 411.89)">
			<stop  offset="0" style="stop-color:#656668"/>
			<stop  offset="2.000000e-02" style="stop-color:#77787B"/>
			<stop  offset="7.000000e-02" style="stop-color:#C6C7C8"/>
			<stop  offset="7.000000e-02" style="stop-color:#C9CACB"/>
			<stop  offset="9.000000e-02" style="stop-color:#DDDDDC"/>
			<stop  offset="0.1" style="stop-color:#DADBDA"/>
			<stop  offset="0.17" style="stop-color:#CFD0D0"/>
			<stop  offset="0.26" style="stop-color:#C8CACB"/>
			<stop  offset="0.5" style="stop-color:#C6C8C9"/>
			<stop  offset="0.76" style="stop-color:#C8CACB"/>
			<stop  offset="0.85" style="stop-color:#CFD0D0"/>
			<stop  offset="0.91" style="stop-color:#DADBDA"/>
			<stop  offset="0.92" style="stop-color:#DDDDDC"/>
			<stop  offset="0.95" style="stop-color:#C6C7C8"/>
			<stop  offset="0.99" style="stop-color:#77787B"/>
			<stop  offset="1" style="stop-color:#656668"/>
		</linearGradient>
		<polygon class="st60" points="419.2,391.8 285,391.8 284.7,391.4 419.5,391.4 		"/>
		
			<linearGradient id="SVGID_13_" gradientUnits="userSpaceOnUse" x1="0" y1="20.295" x2="285.02" y2="20.295" gradientTransform="matrix(1 0 0 -1 0 411.89)">
			<stop  offset="0" style="stop-color:#3E3D3F"/>
			<stop  offset="1.000000e-02" style="stop-color:#B8BABC"/>
			<stop  offset="2.000000e-02" style="stop-color:#E2E3E4"/>
			<stop  offset="4.000000e-02" style="stop-color:#B8BABC"/>
			<stop  offset="1" style="stop-color:#B8BABC"/>
		</linearGradient>
		<polygon class="st61" points="284.7,391.4 0.4,391.4 0,391.8 285,391.8 		"/>
		
			<linearGradient id="SVGID_14_" gradientUnits="userSpaceOnUse" x1="-837.64" y1="20.3" x2="-552.54" y2="20.3" gradientTransform="matrix(-1 0 0 -1 -133.33 411.89)">
			<stop  offset="0" style="stop-color:#3E3D3F"/>
			<stop  offset="1.000000e-02" style="stop-color:#B8BABC"/>
			<stop  offset="2.000000e-02" style="stop-color:#E2E3E4"/>
			<stop  offset="4.000000e-02" style="stop-color:#B8BABC"/>
			<stop  offset="1" style="stop-color:#B8BABC"/>
		</linearGradient>
		<polygon class="st62" points="419.5,391.4 703.9,391.4 704.3,391.8 419.2,391.8 		"/>
		
			<linearGradient id="SVGID_15_" gradientUnits="userSpaceOnUse" x1="68.76" y1="9.16" x2="68.76" y2="10.14" gradientTransform="matrix(1 0 0 -1 0 411.89)">
			<stop  offset="0" style="stop-color:#A5A7AA"/>
			<stop  offset="6.000000e-02" style="stop-color:#8E9092"/>
			<stop  offset="0.17" style="stop-color:#6F7072"/>
			<stop  offset="0.29" style="stop-color:#555657"/>
			<stop  offset="0.42" style="stop-color:#414143"/>
			<stop  offset="0.56" style="stop-color:#333334"/>
			<stop  offset="0.73" style="stop-color:#2B2B2C"/>
			<stop  offset="1" style="stop-color:#282829"/>
		</linearGradient>
		<path class="st63" d="M71.3,402.2c0-0.2-1.1-0.5-2.5-0.5s-2.5,0.2-2.5,0.5s1.1,0.5,2.5,0.5S71.3,402.5,71.3,402.2z"/>
		
			<image style="overflow:visible;enable-background:new    ;" width="22" height="5" xlink:href="590527C57C888C4E.png"  transform="matrix(0.24 0 0 0.24 66.11 401.67)">
		</image>
		
			<linearGradient id="SVGID_16_" gradientUnits="userSpaceOnUse" x1="265.485" y1="9.16" x2="265.485" y2="10.14" gradientTransform="matrix(1 0 0 -1 0 411.89)">
			<stop  offset="0" style="stop-color:#A5A7AA"/>
			<stop  offset="6.000000e-02" style="stop-color:#8E9092"/>
			<stop  offset="0.17" style="stop-color:#6F7072"/>
			<stop  offset="0.29" style="stop-color:#555657"/>
			<stop  offset="0.42" style="stop-color:#414143"/>
			<stop  offset="0.56" style="stop-color:#333334"/>
			<stop  offset="0.73" style="stop-color:#2B2B2C"/>
			<stop  offset="1" style="stop-color:#282829"/>
		</linearGradient>
		<path class="st64" d="M268,402.2c0-0.2-1.1-0.5-2.5-0.5s-2.5,0.2-2.5,0.5s1.1,0.5,2.5,0.5S268,402.5,268,402.2z"/>
		
			<image style="overflow:visible;enable-background:new    ;" width="22" height="5" xlink:href="590527C57C888C52.png"  transform="matrix(0.24 0 0 0.24 262.91 401.67)">
		</image>
		
			<linearGradient id="SVGID_17_" gradientUnits="userSpaceOnUse" x1="438.835" y1="9.16" x2="438.835" y2="10.14" gradientTransform="matrix(1 0 0 -1 0 411.89)">
			<stop  offset="0" style="stop-color:#A5A7AA"/>
			<stop  offset="6.000000e-02" style="stop-color:#8E9092"/>
			<stop  offset="0.17" style="stop-color:#6F7072"/>
			<stop  offset="0.29" style="stop-color:#555657"/>
			<stop  offset="0.42" style="stop-color:#414143"/>
			<stop  offset="0.56" style="stop-color:#333334"/>
			<stop  offset="0.73" style="stop-color:#2B2B2C"/>
			<stop  offset="1" style="stop-color:#282829"/>
		</linearGradient>
		<path class="st65" d="M441.4,402.2c0-0.2-1.1-0.5-2.5-0.5s-2.5,0.2-2.5,0.5s1.1,0.5,2.5,0.5S441.4,402.5,441.4,402.2z"/>
		
			<image style="overflow:visible;enable-background:new    ;" width="22" height="5" xlink:href="590527C57C888C55.png"  transform="matrix(0.24 0 0 0.24 436.19 401.67)">
		</image>
		
			<linearGradient id="SVGID_18_" gradientUnits="userSpaceOnUse" x1="635.58" y1="9.16" x2="635.58" y2="10.14" gradientTransform="matrix(1 0 0 -1 0 411.89)">
			<stop  offset="0" style="stop-color:#A5A7AA"/>
			<stop  offset="6.000000e-02" style="stop-color:#8E9092"/>
			<stop  offset="0.17" style="stop-color:#6F7072"/>
			<stop  offset="0.29" style="stop-color:#555657"/>
			<stop  offset="0.42" style="stop-color:#414143"/>
			<stop  offset="0.56" style="stop-color:#333334"/>
			<stop  offset="0.73" style="stop-color:#2B2B2C"/>
			<stop  offset="1" style="stop-color:#282829"/>
		</linearGradient>
		<ellipse class="st66" cx="635.6" cy="402.2" rx="2.5" ry="0.5"/>
		
			<image style="overflow:visible;enable-background:new    ;" width="22" height="5" xlink:href="590527C57C888C56.png"  transform="matrix(0.24 0 0 0.24 632.99 401.67)">
		</image>
		
			<image style="overflow:visible;enable-background:new    ;" width="2885" height="3" xlink:href="590527C57C888C54.png"  transform="matrix(0.24 0 0 0.24 5.63 397.11)">
		</image>
	</g>
</g>
</svg>
